<svg width="575" height="118" viewBox="0 0 575 118" fill="none" xmlns="http://www.w3.org/2000/svg">
<path d="M101.284 28.1H80.5741C80.4136 20.5932 77.2878 13.4474 71.8668 8.19459C66.4458 2.94175 59.1611 0 51.5745 0C43.9878 0 36.7031 2.94175 31.2821 8.19459C25.8611 13.4474 22.7353 20.5932 22.5748 28.1H1.91732C1.65062 28.0988 1.38662 28.153 1.14235 28.2589C0.898084 28.3649 0.67897 28.5204 0.499138 28.7153C0.319306 28.9102 0.182749 29.1403 0.0982718 29.3907C0.0137951 29.641 -0.0167256 29.9062 0.00867776 30.1689L6.31888 100.151C6.33264 104.793 8.20637 109.24 11.529 112.516C14.8516 115.793 19.3517 117.631 24.042 117.627H79.2108C83.8771 117.621 88.3508 115.785 91.6528 112.522C94.9548 109.258 96.8163 104.834 96.8301 100.215L103.14 30.1689C103.165 29.9104 103.136 29.6496 103.055 29.4027C102.974 29.1559 102.842 28.9283 102.667 28.7341C102.493 28.54 102.28 28.3834 102.042 28.2744C101.804 28.1653 101.546 28.1059 101.284 28.1ZM32.3128 28.1C32.4433 23.1163 34.5355 18.3801 38.1432 14.9009C41.751 11.4217 46.5891 9.47457 51.6264 9.47457C56.6637 9.47457 61.5018 11.4217 65.1096 14.9009C68.7174 18.3801 70.8095 23.1163 70.9401 28.1H32.3128Z" fill="#FFD400"/>
<path d="M32.5023 48.3456C32.698 48.3456 32.8936 48.3456 33.0893 48.3456C34.2341 48.5054 35.3995 48.2806 36.4026 47.7064C37.9064 46.8746 39.552 46.3304 41.2552 46.1018C41.8863 46.0038 42.5287 46.0038 43.1597 46.1018C43.6987 46.1492 44.2058 46.3772 44.5988 46.749C44.9919 47.1208 45.2478 47.6144 45.3251 48.1499C45.3251 48.3195 45.4034 48.476 45.4425 48.6456C45.4939 49.2551 45.7687 49.824 46.2142 50.243C46.6597 50.6621 47.2444 50.9016 47.8558 50.9155C49.3486 51.0852 50.8571 51.0588 52.3431 50.8372C54.1255 50.6087 55.9204 50.491 57.7175 50.485C58.4686 50.455 59.2102 50.6618 59.8375 51.0761C60.4648 51.4904 60.9461 52.0914 61.2134 52.794C62.1809 55.2141 63.0212 57.683 63.731 60.1907C64.1223 61.417 64.5006 62.6433 65.0355 63.8174C65.1529 64.0652 65.2703 64.3261 65.4007 64.5609C66.1834 66.0612 66.7052 66.2829 68.3357 65.9698C69.9663 65.6567 71.336 65.161 72.9013 64.9523C73.0489 64.9403 73.1973 64.9403 73.3449 64.9523C75.0276 64.8349 75.6798 65.6959 75.1581 67.3135C74.7855 68.3204 74.203 69.2365 73.4492 70.0008C71.7397 71.7997 69.9278 73.4984 68.0227 75.0885C67.0835 75.9365 66.1703 76.8105 65.3094 77.6976C64.7524 78.2297 64.3837 78.9286 64.259 79.6888C64.1343 80.4489 64.2603 81.229 64.618 81.9112C64.9914 82.6534 65.3012 83.4258 65.5442 84.2203C65.6687 84.5667 65.6761 84.9444 65.5654 85.2955C65.4546 85.6466 65.2318 85.9517 64.9311 86.164C64.208 86.719 63.6109 87.4211 63.1792 88.2239C62.7474 89.0267 62.4909 89.9119 62.4266 90.8212L62.27 92.0344C62.248 92.3112 62.1652 92.5798 62.0277 92.821C61.8902 93.0623 61.7013 93.2703 61.4743 93.4303C60.4123 94.172 59.6419 95.2606 59.2959 96.509C59.0934 97.1844 58.8494 97.8466 58.5654 98.4919C57.9725 99.9997 56.935 101.291 55.5906 102.195C54.2462 103.1 52.6586 103.573 51.0386 103.553C50.5259 103.527 50.0121 103.527 49.4994 103.553C48.9108 103.599 48.3207 103.488 47.789 103.231C47.2574 102.975 46.8033 102.582 46.473 102.092C44.9496 100.053 43.7404 97.7976 42.8858 95.4001C42.4409 94.3685 42.2168 93.2553 42.2281 92.1319C42.2393 91.0085 42.4856 89.8999 42.951 88.8774C43.5684 87.5816 44.0072 86.208 44.2555 84.7943C44.4441 84.1379 44.3833 83.4349 44.0847 82.8208C43.786 82.2066 43.2707 81.7246 42.6379 81.4677C41.5058 80.9848 40.554 80.1581 39.9173 79.1047C39.2806 78.0512 38.9911 76.8243 39.0898 75.5973C39.1008 74.4223 39.0135 73.2485 38.8289 72.0881C38.7487 71.7562 38.6485 71.4295 38.5289 71.1097C38.4176 70.7396 38.1842 70.4182 37.8668 70.1978C37.5493 69.9775 37.1665 69.8713 36.7809 69.8965C35.0887 69.9003 33.3984 70.0093 31.7196 70.2226C30.5586 70.4009 29.3802 70.436 28.2106 70.327C27.8886 70.2891 27.5847 70.1576 27.3367 69.9487C26.4105 69.179 25.5104 68.4093 24.5712 67.6527C23.6078 66.9252 22.8691 65.9407 22.4399 64.8124C22.0107 63.684 21.9085 62.4574 22.1449 61.2735C22.8006 56.6388 25.0133 52.365 28.4194 49.1544C28.7254 48.8542 29.0886 48.6187 29.4875 48.4618C29.8864 48.305 30.3128 48.2299 30.7413 48.2412H32.5284L32.5023 48.3456Z" fill="black"/>
<path d="M75.3324 87.5847C75.3306 89.7011 75.0204 91.8052 74.4121 93.8264C74.2114 94.4733 73.8802 95.069 73.4403 95.5742C73.0005 96.0795 72.4619 96.4829 71.8601 96.7579C71.2583 97.0329 70.6069 97.1733 69.9488 97.1698C69.2907 97.1663 68.6407 97.019 68.0417 96.7375C67.8772 96.6993 67.724 96.6209 67.595 96.5087C67.466 96.3966 67.365 96.2541 67.3005 96.0933C67.2361 95.9324 67.2101 95.758 67.2246 95.5846C67.2392 95.4111 67.294 95.2439 67.3844 95.0969C67.6936 94.2422 68.1246 93.4398 68.6632 92.7162C69.0204 92.2618 69.2604 91.7215 69.3607 91.1456C69.461 90.5697 69.4184 89.977 69.2369 89.4227C69.0702 88.7493 68.9819 88.0577 68.974 87.3627C68.9607 87.1515 68.9972 86.9402 69.0805 86.7468C69.1638 86.5534 69.2913 86.3838 69.4521 86.2525C70.5536 85.4135 71.5528 84.4401 72.4281 83.3537C72.6313 83.0453 72.8344 82.7616 73.0257 82.4532C73.2169 82.1448 73.5157 81.7624 74.0057 81.8365C74.4958 81.9105 74.6392 82.3299 74.7468 82.7369C75.1535 84.3181 75.3505 85.9489 75.3324 87.5847Z" fill="black"/>
<path d="M136.611 97.1557C133.7 97.1557 131.078 96.6373 128.745 95.6004C126.432 94.5436 124.597 92.9882 123.241 90.9343C121.905 88.8805 121.237 86.348 121.237 83.337C121.237 80.7448 121.716 78.6012 122.673 76.9063C123.63 75.2113 124.936 73.8554 126.591 72.8384C128.246 71.8215 130.111 71.0538 132.185 70.5353C134.278 69.9969 136.442 69.6081 138.675 69.3688C141.367 69.0896 143.551 68.8404 145.226 68.621C146.901 68.3817 148.117 68.0228 148.875 67.5442C149.653 67.0457 150.041 66.278 150.041 65.2411V65.0617C150.041 62.8084 149.373 61.0636 148.037 59.8273C146.701 58.591 144.777 57.9728 142.265 57.9728C139.613 57.9728 137.509 58.5511 135.953 59.7077C134.418 60.8642 133.381 62.2301 132.843 63.8054L122.733 62.3697C123.531 59.578 124.847 57.245 126.681 55.3706C128.516 53.4763 130.759 52.0605 133.411 51.1233C136.063 50.1662 138.994 49.6876 142.205 49.6876C144.418 49.6876 146.622 49.9468 148.815 50.4653C151.008 50.9837 153.012 51.8412 154.827 53.0376C156.642 54.2141 158.097 55.8193 159.194 57.8532C160.311 59.8871 160.869 62.4295 160.869 65.4804V96.2285H150.46V89.9174H150.101C149.443 91.1936 148.516 92.39 147.319 93.5067C146.143 94.6034 144.657 95.4907 142.863 96.1687C141.088 96.8267 139.004 97.1557 136.611 97.1557ZM139.423 89.1995C141.597 89.1995 143.481 88.7708 145.076 87.9134C146.671 87.036 147.898 85.8794 148.755 84.4437C149.633 83.008 150.071 81.4427 150.071 79.7478V74.334C149.732 74.6131 149.154 74.8723 148.336 75.1116C147.539 75.3509 146.642 75.5603 145.645 75.7397C144.647 75.9192 143.66 76.0787 142.683 76.2183C141.706 76.3579 140.859 76.4775 140.141 76.5772C138.526 76.7966 137.08 77.1555 135.804 77.654C134.528 78.1525 133.521 78.8505 132.783 79.7478C132.045 80.6251 131.676 81.7618 131.676 83.1576C131.676 85.1516 132.404 86.6571 133.86 87.6741C135.315 88.691 137.17 89.1995 139.423 89.1995ZM190.816 50.2858V58.6608H163.657V50.2858H190.816ZM170.446 96.2285V45.9488C170.446 42.858 171.084 40.2857 172.361 38.2318C173.657 36.178 175.392 34.6426 177.565 33.6256C179.739 32.6086 182.151 32.1002 184.803 32.1002C186.678 32.1002 188.343 32.2497 189.799 32.5488C191.254 32.8479 192.331 33.1171 193.029 33.3564L190.875 41.7314C190.417 41.5918 189.838 41.4522 189.141 41.3126C188.443 41.1531 187.665 41.0734 186.807 41.0734C184.793 41.0734 183.368 41.5619 182.53 42.539C181.713 43.4961 181.304 44.872 181.304 46.6666V96.2285H170.446ZM195.084 96.2285V50.2858H205.582V57.9429H206.061C206.898 55.2909 208.334 53.247 210.368 51.8113C212.422 50.3556 214.765 49.6278 217.397 49.6278C217.995 49.6278 218.663 49.6577 219.401 49.7175C220.159 49.7574 220.787 49.8272 221.285 49.9269V59.8871C220.827 59.7276 220.099 59.588 219.102 59.4684C218.125 59.3288 217.178 59.259 216.26 59.259C214.286 59.259 212.512 59.6877 210.936 60.5452C209.381 61.3827 208.155 62.5492 207.257 64.0447C206.36 65.5402 205.911 67.2651 205.911 69.2192V96.2285H195.084ZM242.416 97.1258C237.929 97.1258 234.041 96.1388 230.751 94.1647C227.46 92.1906 224.908 89.4288 223.094 85.8794C221.299 82.3301 220.402 78.1824 220.402 73.4366C220.402 68.6908 221.299 64.5332 223.094 60.9639C224.908 57.3946 227.46 54.6229 230.751 52.6488C234.041 50.6747 237.929 49.6876 242.416 49.6876C246.902 49.6876 250.791 50.6747 254.081 52.6488C257.371 54.6229 259.913 57.3946 261.708 60.9639C263.523 64.5332 264.43 68.6908 264.43 73.4366C264.43 78.1824 263.523 82.3301 261.708 85.8794C259.913 89.4288 257.371 92.1906 254.081 94.1647C250.791 96.1388 246.902 97.1258 242.416 97.1258ZM242.476 88.4518C244.908 88.4518 246.942 87.7838 248.577 86.4477C250.212 85.0918 251.429 83.2772 252.226 81.004C253.044 78.7308 253.453 76.1984 253.453 73.4067C253.453 70.5951 253.044 68.0527 252.226 65.7795C251.429 63.4864 250.212 61.6618 248.577 60.3059C246.942 58.9499 244.908 58.272 242.476 58.272C239.983 58.272 237.909 58.9499 236.254 60.3059C234.619 61.6618 233.393 63.4864 232.575 65.7795C231.778 68.0527 231.379 70.5951 231.379 73.4067C231.379 76.1984 231.778 78.7308 232.575 81.004C233.393 83.2772 234.619 85.0918 236.254 86.4477C237.909 87.7838 239.983 88.4518 242.476 88.4518ZM292.35 50.2858V58.6608H265.939V50.2858H292.35ZM272.46 39.2787H283.287V82.4098C283.287 83.8655 283.506 84.9821 283.945 85.7598C284.404 86.5175 285.002 87.036 285.74 87.3152C286.478 87.5943 287.295 87.7339 288.192 87.7339C288.87 87.7339 289.489 87.6841 290.047 87.5843C290.625 87.4846 291.064 87.3949 291.363 87.3152L293.188 95.7799C292.609 95.9793 291.782 96.1986 290.705 96.4379C289.648 96.6772 288.352 96.8168 286.817 96.8566C284.105 96.9364 281.662 96.5276 279.488 95.6303C277.315 94.713 275.59 93.2973 274.314 91.383C273.058 89.4687 272.44 87.0759 272.46 84.2045V39.2787ZM297.194 96.2285V50.2858H307.693V57.9429H308.171C309.009 55.2909 310.444 53.247 312.478 51.8113C314.532 50.3556 316.875 49.6278 319.507 49.6278C320.106 49.6278 320.774 49.6577 321.511 49.7175C322.269 49.7574 322.897 49.8272 323.396 49.9269V59.8871C322.937 59.7276 322.209 59.588 321.212 59.4684C320.235 59.3288 319.288 59.259 318.371 59.259C316.397 59.259 314.622 59.6877 313.047 60.5452C311.491 61.3827 310.265 62.5492 309.368 64.0447C308.47 65.5402 308.022 67.2651 308.022 69.2192V96.2285H297.194ZM338.776 97.1557C335.865 97.1557 333.242 96.6373 330.909 95.6004C328.596 94.5436 326.762 92.9882 325.406 90.9343C324.07 88.8805 323.402 86.348 323.402 83.337C323.402 80.7448 323.88 78.6012 324.837 76.9063C325.795 75.2113 327.101 73.8554 328.756 72.8384C330.411 71.8215 332.275 71.0538 334.349 70.5353C336.443 69.9969 338.606 69.6081 340.84 69.3688C343.532 69.0896 345.715 68.8404 347.39 68.621C349.065 68.3817 350.281 68.0228 351.039 67.5442C351.817 67.0457 352.206 66.278 352.206 65.2411V65.0617C352.206 62.8084 351.538 61.0636 350.202 59.8273C348.866 58.591 346.941 57.9728 344.429 57.9728C341.777 57.9728 339.673 58.5511 338.118 59.7077C336.582 60.8642 335.545 62.2301 335.007 63.8054L324.897 62.3697C325.695 59.578 327.011 57.245 328.845 55.3706C330.68 53.4763 332.923 52.0605 335.575 51.1233C338.227 50.1662 341.159 49.6876 344.369 49.6876C346.582 49.6876 348.786 49.9468 350.979 50.4653C353.173 50.9837 355.177 51.8412 356.991 53.0376C358.806 54.2141 360.262 55.8193 361.358 57.8532C362.475 59.8871 363.033 62.4295 363.033 65.4804V96.2285H352.624V89.9174H352.265C351.607 91.1936 350.68 92.39 349.484 93.5067C348.307 94.6034 346.822 95.4907 345.027 96.1687C343.252 96.8267 341.169 97.1557 338.776 97.1557ZM341.587 89.1995C343.761 89.1995 345.645 88.7708 347.241 87.9134C348.836 87.036 350.062 85.8794 350.92 84.4437C351.797 83.008 352.236 81.4427 352.236 79.7478V74.334C351.897 74.6131 351.318 74.8723 350.501 75.1116C349.703 75.3509 348.806 75.5603 347.809 75.7397C346.812 75.9192 345.825 76.0787 344.848 76.2183C343.871 76.3579 343.023 76.4775 342.305 76.5772C340.69 76.7966 339.244 77.1555 337.968 77.654C336.692 78.1525 335.685 78.8505 334.947 79.7478C334.209 80.6251 333.841 81.7618 333.841 83.1576C333.841 85.1516 334.568 86.6571 336.024 87.6741C337.48 88.691 339.334 89.1995 341.587 89.1995ZM380.537 69.309V96.2285H369.709V50.2858H380.058V58.0925H380.597C381.654 55.5202 383.339 53.4763 385.652 51.9608C387.985 50.4453 390.866 49.6876 394.296 49.6876C397.466 49.6876 400.228 50.3656 402.581 51.7215C404.954 53.0775 406.789 55.0416 408.085 57.6139C409.401 60.1862 410.049 63.3069 410.029 66.9759V96.2285H399.201V68.6509C399.201 65.5801 398.404 63.1773 396.808 61.4425C395.233 59.7077 393.05 58.8403 390.258 58.8403C388.364 58.8403 386.679 59.259 385.203 60.0965C383.747 60.9141 382.601 62.1005 381.763 63.6559C380.946 65.2112 380.537 67.0956 380.537 69.309ZM453.136 62.4295L443.266 63.5063C442.986 62.5093 442.498 61.5721 441.8 60.6947C441.122 59.8173 440.205 59.1095 439.048 58.5711C437.892 58.0327 436.476 57.7635 434.801 57.7635C432.548 57.7635 430.653 58.252 429.118 59.2291C427.602 60.2062 426.855 61.4724 426.875 63.0277C426.855 64.3637 427.343 65.4505 428.34 66.288C429.357 67.1255 431.032 67.8134 433.365 68.3518L441.202 70.0268C445.549 70.964 448.779 72.4496 450.893 74.4835C453.026 76.5174 454.103 79.1795 454.123 82.4696C454.103 85.361 453.256 87.9134 451.581 90.1268C449.926 92.3202 447.622 94.0351 444.671 95.2714C441.72 96.5077 438.33 97.1258 434.502 97.1258C428.879 97.1258 424.352 95.9493 420.922 93.5964C417.493 91.2235 415.449 87.9233 414.791 83.696L425.349 82.679C425.828 84.7528 426.845 86.3181 428.4 87.375C429.955 88.4318 431.979 88.9602 434.472 88.9602C437.044 88.9602 439.108 88.4318 440.663 87.375C442.239 86.3181 443.026 85.012 443.026 83.4567C443.026 82.1406 442.518 81.0539 441.501 80.1964C440.504 79.339 438.948 78.681 436.835 78.2223L428.998 76.5772C424.591 75.66 421.331 74.1146 419.217 71.9411C417.104 69.7477 416.057 66.9759 416.077 63.626C416.057 60.7944 416.825 58.3417 418.38 56.2679C419.955 54.1742 422.139 52.559 424.93 51.4224C427.742 50.2659 430.982 49.6876 434.651 49.6876C440.035 49.6876 444.273 50.8342 447.363 53.1273C450.474 55.4205 452.398 58.5212 453.136 62.4295ZM472.06 97.1557C469.149 97.1557 466.527 96.6373 464.194 95.6004C461.881 94.5436 460.046 92.9882 458.69 90.9343C457.354 88.8805 456.686 86.348 456.686 83.337C456.686 80.7448 457.165 78.6012 458.122 76.9063C459.079 75.2113 460.385 73.8554 462.04 72.8384C463.695 71.8215 465.56 71.0538 467.634 70.5353C469.727 69.9969 471.891 69.6081 474.124 69.3688C476.816 69.0896 479 68.8404 480.675 68.621C482.35 68.3817 483.566 68.0228 484.324 67.5442C485.101 67.0457 485.49 66.278 485.49 65.2411V65.0617C485.49 62.8084 484.822 61.0636 483.486 59.8273C482.15 58.591 480.226 57.9728 477.714 57.9728C475.062 57.9728 472.958 58.5511 471.402 59.7077C469.867 60.8642 468.83 62.2301 468.292 63.8054L458.182 62.3697C458.98 59.578 460.296 57.245 462.13 55.3706C463.965 53.4763 466.208 52.0605 468.86 51.1233C471.512 50.1662 474.443 49.6876 477.654 49.6876C479.867 49.6876 482.071 49.9468 484.264 50.4653C486.457 50.9837 488.461 51.8412 490.276 53.0376C492.091 54.2141 493.546 55.8193 494.643 57.8532C495.76 59.8871 496.318 62.4295 496.318 65.4804V96.2285H485.909V89.9174H485.55C484.892 91.1936 483.965 92.39 482.768 93.5067C481.592 94.6034 480.106 95.4907 478.312 96.1687C476.537 96.8267 474.453 97.1557 472.06 97.1557ZM474.872 89.1995C477.046 89.1995 478.93 88.7708 480.525 87.9134C482.12 87.036 483.347 85.8794 484.204 84.4437C485.082 83.008 485.52 81.4427 485.52 79.7478V74.334C485.181 74.6131 484.603 74.8723 483.785 75.1116C482.988 75.3509 482.09 75.5603 481.093 75.7397C480.096 75.9192 479.109 76.0787 478.132 76.2183C477.155 76.3579 476.308 76.4775 475.59 76.5772C473.975 76.7966 472.529 77.1555 471.253 77.654C469.977 78.1525 468.97 78.8505 468.232 79.7478C467.494 80.6251 467.125 81.7618 467.125 83.1576C467.125 85.1516 467.853 86.6571 469.309 87.6741C470.764 88.691 472.619 89.1995 474.872 89.1995ZM523.034 97.1258C518.448 97.1258 514.51 96.1188 511.219 94.1049C507.949 92.0909 505.427 89.3092 503.652 85.7598C501.897 82.1905 501.02 78.0827 501.02 73.4366C501.02 68.7706 501.917 64.6529 503.712 61.0836C505.506 57.4943 508.039 54.7026 511.309 52.7086C514.599 50.6946 518.488 49.6876 522.974 49.6876C526.703 49.6876 530.003 50.3756 532.875 51.7514C535.766 53.1074 538.069 55.0316 539.784 57.5242C541.499 59.9968 542.476 62.8882 542.715 66.1983H532.366C531.947 63.9849 530.95 62.1404 529.375 60.6648C527.82 59.1693 525.736 58.4215 523.124 58.4215C520.91 58.4215 518.966 59.0197 517.291 60.2161C515.616 61.3926 514.31 63.0876 513.373 65.3009C512.456 67.5143 511.997 70.1664 511.997 73.2572C511.997 76.3878 512.456 79.0798 513.373 81.333C514.29 83.5664 515.576 85.2912 517.231 86.5076C518.906 87.704 520.871 88.3022 523.124 88.3022C524.719 88.3022 526.145 88.0031 527.401 87.4049C528.677 86.7867 529.744 85.8994 530.601 84.7428C531.459 83.5863 532.047 82.1805 532.366 80.5254H542.715C542.456 83.7757 541.499 86.6571 539.844 89.1696C538.189 91.6622 535.936 93.6163 533.084 95.0321C530.233 96.4279 526.883 97.1258 523.034 97.1258ZM570.336 50.2858V58.6608H543.925V50.2858H570.336ZM550.446 39.2787H561.273V82.4098C561.273 83.8655 561.493 84.9821 561.931 85.7598C562.39 86.5175 562.988 87.036 563.726 87.3152C564.464 87.5943 565.281 87.7339 566.179 87.7339C566.857 87.7339 567.475 87.6841 568.033 87.5843C568.611 87.4846 569.05 87.3949 569.349 87.3152L571.174 95.7799C570.595 95.9793 569.768 96.1986 568.691 96.4379C567.634 96.6772 566.338 96.8168 564.803 96.8566C562.091 96.9364 559.648 96.5276 557.475 95.6303C555.301 94.713 553.576 93.2973 552.3 91.383C551.044 89.4687 550.426 87.0759 550.446 84.2045V39.2787Z" fill="black"/>
</svg>
