<svg width="430" height="286" viewBox="0 0 430 286" fill="none" xmlns="http://www.w3.org/2000/svg">
<path d="M39.6348 280.195V274.35L34.572 265.851L36.486 265.727L40.5197 273.116L44.43 265.727L46.344 265.851L41.4047 274.35V280.195H39.6348ZM45.3198 274.659C45.3198 273.685 45.4021 272.841 45.5668 272.128C45.7314 271.401 45.9989 270.811 46.3694 270.358C46.7398 269.891 47.2338 269.541 47.8512 269.308C48.4686 269.075 49.2301 268.958 50.1356 268.958C51.0412 268.958 51.8026 269.075 52.42 269.308C53.0512 269.541 53.552 269.891 53.9224 270.358C54.2929 270.811 54.5604 271.401 54.7251 272.128C54.8897 272.841 54.972 273.685 54.972 274.659C54.972 275.661 54.8828 276.525 54.7045 277.252C54.5261 277.979 54.2448 278.576 53.8607 279.043C53.4765 279.496 52.9757 279.839 52.3583 280.072C51.7546 280.291 51.0137 280.401 50.1356 280.401C49.2712 280.401 48.5303 280.291 47.9129 280.072C47.3092 279.839 46.8153 279.496 46.4311 279.043C46.047 278.576 45.7657 277.979 45.5873 277.252C45.409 276.525 45.3198 275.661 45.3198 274.659ZM47.0691 274.659C47.0691 275.743 47.172 276.607 47.3778 277.252C47.5974 277.897 47.9335 278.364 48.3863 278.652C48.839 278.926 49.4222 279.063 50.1356 279.063C50.8628 279.063 51.4528 278.926 51.9055 278.652C52.3583 278.364 52.6876 277.897 52.8934 277.252C53.0992 276.607 53.2021 275.743 53.2021 274.659C53.2021 273.589 53.1061 272.738 52.914 272.107C52.7356 271.462 52.42 271.003 51.9673 270.728C51.5145 270.44 50.904 270.296 50.1356 270.296C49.381 270.296 48.7773 270.44 48.3245 270.728C47.8718 271.003 47.5493 271.462 47.3573 272.107C47.1652 272.738 47.0691 273.589 47.0691 274.659ZM60.0337 280.401C59.4163 280.401 58.8812 280.291 58.4284 280.072C57.9756 279.852 57.6258 279.523 57.3788 279.084C57.1318 278.631 57.0084 278.069 57.0084 277.396V269.164H58.7371V277.047C58.7371 277.65 58.9018 278.117 59.231 278.446C59.5603 278.775 60.0474 278.94 60.6923 278.94C61.0353 278.94 61.3646 278.906 61.6801 278.837C62.0094 278.755 62.3318 278.645 62.6474 278.508C62.9767 278.371 63.306 278.213 63.6353 278.034V269.164H65.364V277.787C65.364 278.062 65.3983 278.288 65.4669 278.467C65.5355 278.631 65.6247 278.748 65.7345 278.816C65.858 278.885 65.9883 278.919 66.1255 278.919C66.3176 278.919 66.5028 278.878 66.6812 278.796L66.8664 280.051C66.7429 280.12 66.6057 280.182 66.4548 280.236C66.3039 280.291 66.1461 280.333 65.9814 280.36C65.8168 280.387 65.6453 280.401 65.4669 280.401C65.0965 280.401 64.7672 280.305 64.4791 280.113C64.1909 279.907 63.9851 279.612 63.8617 279.228C63.45 279.461 63.0384 279.667 62.6268 279.845C62.2152 280.024 61.7967 280.161 61.3714 280.257C60.9598 280.353 60.5139 280.401 60.0337 280.401ZM69.8279 269.164V270.522C70.2395 270.152 70.6237 269.857 70.9804 269.638C71.3371 269.404 71.7007 269.233 72.0712 269.123C72.4416 269.013 72.8258 268.958 73.2237 268.958C73.5118 268.958 73.7931 268.979 74.0675 269.02C74.3419 269.061 74.5957 269.116 74.8289 269.185L74.5408 270.749C74.2939 270.68 74.0332 270.632 73.7588 270.605C73.4981 270.564 73.2511 270.543 73.0179 270.543C72.5377 270.543 72.0437 270.646 71.5361 270.852C71.0421 271.044 70.5208 271.394 69.972 271.901V280.195H68.2638V269.164H69.8279ZM81.2978 273.239C81.2978 271.51 81.531 270.083 81.9975 268.958C82.4777 267.833 83.1775 266.99 84.0967 266.427C85.0297 265.864 86.1891 265.583 87.5748 265.583C87.959 265.583 88.3363 265.597 88.7068 265.624C89.0772 265.652 89.4339 265.693 89.7769 265.748C90.1337 265.789 90.4767 265.851 90.806 265.933C91.1353 266.002 91.4577 266.084 91.7732 266.18L91.444 267.621C90.8128 267.442 90.1817 267.312 89.5506 267.23C88.9331 267.147 88.3157 267.106 87.6983 267.106C86.683 267.106 85.8324 267.333 85.1463 267.785C84.4603 268.224 83.9458 268.897 83.6028 269.802C83.2598 270.708 83.0883 271.86 83.0883 273.26C83.0883 274.563 83.2529 275.64 83.5822 276.491C83.9115 277.328 84.3986 277.952 85.0434 278.364C85.6883 278.762 86.4772 278.96 87.4102 278.96C88.055 278.96 88.645 278.926 89.1801 278.858C89.7289 278.789 90.2229 278.679 90.6619 278.528V274.268H87.225V272.848H92.2672V279.557C91.636 279.832 90.8814 280.044 90.0033 280.195C89.1389 280.333 88.2128 280.401 87.225 280.401C85.9078 280.401 84.8102 280.14 83.9321 279.619C83.0677 279.098 82.4091 278.309 81.9564 277.252C81.5173 276.182 81.2978 274.844 81.2978 273.239ZM96.3407 264.966V277.149C96.3407 277.63 96.3887 278 96.4847 278.261C96.5945 278.508 96.7385 278.672 96.9169 278.755C97.109 278.837 97.3148 278.878 97.5343 278.878C97.6852 278.878 97.843 278.864 98.0077 278.837C98.186 278.81 98.3713 278.762 98.5633 278.693L98.7486 280.072C98.5153 280.168 98.2546 280.243 97.9665 280.298C97.6784 280.367 97.3834 280.401 97.0816 280.401C96.5739 280.401 96.1349 280.312 95.7644 280.134C95.394 279.955 95.1127 279.64 94.9206 279.187C94.7285 278.734 94.6325 278.103 94.6325 277.293V264.966H96.3407ZM99.3636 274.659C99.3636 273.685 99.4459 272.841 99.6105 272.128C99.7752 271.401 100.043 270.811 100.413 270.358C100.784 269.891 101.278 269.541 101.895 269.308C102.512 269.075 103.274 268.958 104.179 268.958C105.085 268.958 105.846 269.075 106.464 269.308C107.095 269.541 107.596 269.891 107.966 270.358C108.337 270.811 108.604 271.401 108.769 272.128C108.933 272.841 109.016 273.685 109.016 274.659C109.016 275.661 108.927 276.525 108.748 277.252C108.57 277.979 108.289 278.576 107.904 279.043C107.52 279.496 107.019 279.839 106.402 280.072C105.798 280.291 105.057 280.401 104.179 280.401C103.315 280.401 102.574 280.291 101.957 280.072C101.353 279.839 100.859 279.496 100.475 279.043C100.091 278.576 99.8095 277.979 99.6311 277.252C99.4528 276.525 99.3636 275.661 99.3636 274.659ZM101.113 274.659C101.113 275.743 101.216 276.607 101.422 277.252C101.641 277.897 101.977 278.364 102.43 278.652C102.883 278.926 103.466 279.063 104.179 279.063C104.907 279.063 105.497 278.926 105.949 278.652C106.402 278.364 106.731 277.897 106.937 277.252C107.143 276.607 107.246 275.743 107.246 274.659C107.246 273.589 107.15 272.738 106.958 272.107C106.779 271.462 106.464 271.003 106.011 270.728C105.558 270.44 104.948 270.296 104.179 270.296C103.425 270.296 102.821 270.44 102.368 270.728C101.916 271.003 101.593 271.462 101.401 272.107C101.209 272.738 101.113 273.589 101.113 274.659ZM111.093 279.907V264.966H112.801V270.152C113.418 269.74 114.015 269.439 114.592 269.247C115.168 269.054 115.751 268.958 116.341 268.958C117.535 268.958 118.447 269.425 119.078 270.358C119.723 271.291 120.045 272.635 120.045 274.392C120.045 275.805 119.867 276.957 119.51 277.849C119.154 278.727 118.598 279.372 117.843 279.784C117.089 280.195 116.114 280.401 114.921 280.401C114.372 280.401 113.782 280.36 113.151 280.278C112.52 280.195 111.834 280.072 111.093 279.907ZM112.801 278.858C113.24 278.94 113.631 279.009 113.974 279.063C114.317 279.105 114.64 279.125 114.941 279.125C115.71 279.125 116.334 278.974 116.814 278.672C117.308 278.371 117.672 277.883 117.905 277.211C118.152 276.525 118.275 275.62 118.275 274.495C118.275 273.589 118.173 272.841 117.967 272.251C117.775 271.648 117.486 271.195 117.102 270.893C116.732 270.577 116.279 270.42 115.744 270.42C115.428 270.42 115.113 270.454 114.797 270.522C114.495 270.591 114.18 270.701 113.851 270.852C113.535 270.989 113.185 271.188 112.801 271.449V278.858ZM121.206 277.54C121.206 276.882 121.344 276.34 121.618 275.915C121.892 275.489 122.311 275.153 122.873 274.906C123.436 274.645 124.129 274.447 124.952 274.309C125.775 274.158 126.729 274.035 127.813 273.939V272.395C127.813 271.764 127.607 271.284 127.195 270.955C126.784 270.612 126.166 270.44 125.343 270.44C125.069 270.44 124.76 270.454 124.417 270.481C124.074 270.509 123.717 270.557 123.347 270.625C122.976 270.694 122.592 270.79 122.194 270.914L121.886 269.514C122.475 269.336 123.079 269.198 123.697 269.102C124.314 269.006 124.897 268.958 125.446 268.958C126.351 268.958 127.106 269.089 127.71 269.349C128.327 269.596 128.787 269.974 129.089 270.481C129.404 270.989 129.562 271.62 129.562 272.375V277.726C129.562 278.178 129.624 278.487 129.747 278.652C129.884 278.803 130.063 278.878 130.282 278.878C130.365 278.878 130.454 278.871 130.55 278.858C130.646 278.844 130.749 278.816 130.859 278.775L131.044 280.051C130.838 280.161 130.618 280.243 130.385 280.298C130.166 280.367 129.932 280.401 129.685 280.401C129.192 280.401 128.801 280.278 128.512 280.031C128.224 279.77 128.039 279.379 127.957 278.858C127.627 279.118 127.257 279.372 126.845 279.619C126.448 279.852 126.008 280.044 125.528 280.195C125.062 280.333 124.547 280.401 123.985 280.401C123.559 280.401 123.175 280.339 122.832 280.216C122.503 280.092 122.215 279.914 121.968 279.681C121.721 279.434 121.529 279.132 121.392 278.775C121.268 278.419 121.206 278.007 121.206 277.54ZM122.956 277.396C122.956 277.986 123.1 278.432 123.388 278.734C123.69 279.022 124.088 279.166 124.582 279.166C124.966 279.166 125.35 279.105 125.734 278.981C126.118 278.858 126.489 278.693 126.845 278.487C127.216 278.268 127.538 278.021 127.813 277.746V274.968C127.085 275.036 126.42 275.119 125.816 275.215C125.226 275.297 124.712 275.428 124.273 275.606C123.848 275.784 123.518 276.017 123.285 276.306C123.065 276.594 122.956 276.957 122.956 277.396ZM134.045 264.966V277.149C134.045 277.63 134.093 278 134.189 278.261C134.299 278.508 134.443 278.672 134.621 278.755C134.813 278.837 135.019 278.878 135.238 278.878C135.389 278.878 135.547 278.864 135.712 278.837C135.89 278.81 136.075 278.762 136.267 278.693L136.453 280.072C136.219 280.168 135.959 280.243 135.671 280.298C135.382 280.367 135.087 280.401 134.786 280.401C134.278 280.401 133.839 280.312 133.468 280.134C133.098 279.955 132.817 279.64 132.625 279.187C132.433 278.734 132.337 278.103 132.337 277.293V264.966H134.045ZM142.838 273.239C142.838 271.51 143.071 270.083 143.538 268.958C144.018 267.833 144.718 266.99 145.637 266.427C146.57 265.864 147.729 265.583 149.115 265.583C149.499 265.583 149.877 265.597 150.247 265.624C150.618 265.652 150.974 265.693 151.317 265.748C151.674 265.789 152.017 265.851 152.346 265.933C152.676 266.002 152.998 266.084 153.314 266.18L152.984 267.621C152.353 267.442 151.722 267.312 151.091 267.23C150.474 267.147 149.856 267.106 149.239 267.106C148.223 267.106 147.373 267.333 146.687 267.785C146.001 268.224 145.486 268.897 145.143 269.802C144.8 270.708 144.629 271.86 144.629 273.26C144.629 274.563 144.793 275.64 145.123 276.491C145.452 277.328 145.939 277.952 146.584 278.364C147.229 278.762 148.018 278.96 148.951 278.96C149.595 278.96 150.185 278.926 150.72 278.858C151.269 278.789 151.763 278.679 152.202 278.528V274.268H148.765V272.848H153.808V279.557C153.176 279.832 152.422 280.044 151.544 280.195C150.679 280.333 149.753 280.401 148.765 280.401C147.448 280.401 146.351 280.14 145.472 279.619C144.608 279.098 143.95 278.309 143.497 277.252C143.058 276.182 142.838 274.844 142.838 273.239ZM155.574 277.54C155.574 276.882 155.711 276.34 155.986 275.915C156.26 275.489 156.679 275.153 157.241 274.906C157.804 274.645 158.497 274.447 159.32 274.309C160.143 274.158 161.097 274.035 162.18 273.939V272.395C162.18 271.764 161.975 271.284 161.563 270.955C161.151 270.612 160.534 270.44 159.711 270.44C159.436 270.44 159.128 270.454 158.785 270.481C158.442 270.509 158.085 270.557 157.714 270.625C157.344 270.694 156.96 270.79 156.562 270.914L156.253 269.514C156.843 269.336 157.447 269.198 158.064 269.102C158.682 269.006 159.265 268.958 159.814 268.958C160.719 268.958 161.474 269.089 162.078 269.349C162.695 269.596 163.155 269.974 163.456 270.481C163.772 270.989 163.93 271.62 163.93 272.375V277.726C163.93 278.178 163.991 278.487 164.115 278.652C164.252 278.803 164.431 278.878 164.65 278.878C164.732 278.878 164.822 278.871 164.918 278.858C165.014 278.844 165.117 278.816 165.226 278.775L165.412 280.051C165.206 280.161 164.986 280.243 164.753 280.298C164.533 280.367 164.3 280.401 164.053 280.401C163.559 280.401 163.168 280.278 162.88 280.031C162.592 279.77 162.407 279.379 162.324 278.858C161.995 279.118 161.625 279.372 161.213 279.619C160.815 279.852 160.376 280.044 159.896 280.195C159.429 280.333 158.915 280.401 158.352 280.401C157.927 280.401 157.543 280.339 157.2 280.216C156.871 280.092 156.583 279.914 156.336 279.681C156.089 279.434 155.897 279.132 155.759 278.775C155.636 278.419 155.574 278.007 155.574 277.54ZM157.323 277.396C157.323 277.986 157.467 278.432 157.756 278.734C158.057 279.022 158.455 279.166 158.949 279.166C159.333 279.166 159.718 279.105 160.102 278.981C160.486 278.858 160.856 278.693 161.213 278.487C161.584 278.268 161.906 278.021 162.18 277.746V274.968C161.453 275.036 160.788 275.119 160.184 275.215C159.594 275.297 159.08 275.428 158.641 275.606C158.215 275.784 157.886 276.017 157.653 276.306C157.433 276.594 157.323 276.957 157.323 277.396ZM170.209 280.401C169.536 280.401 168.974 280.278 168.521 280.031C168.082 279.77 167.753 279.386 167.533 278.878C167.327 278.357 167.225 277.712 167.225 276.944V270.461H165.331V269.308L167.225 269.164L167.451 266.55H168.953V269.164H172.637V270.461H168.953V276.82C168.953 277.561 169.091 278.096 169.365 278.425C169.653 278.755 170.12 278.919 170.764 278.919C171.094 278.919 171.423 278.892 171.752 278.837C172.082 278.768 172.411 278.686 172.74 278.59L172.987 279.928C172.479 280.092 171.992 280.209 171.526 280.278C171.059 280.36 170.62 280.401 170.209 280.401ZM178.4 280.401C177.646 280.401 176.973 280.298 176.383 280.092C175.793 279.887 175.293 279.564 174.881 279.125C174.483 278.686 174.174 278.124 173.955 277.438C173.749 276.752 173.646 275.928 173.646 274.968C173.646 273.857 173.77 272.917 174.017 272.148C174.277 271.366 174.641 270.742 175.107 270.276C175.574 269.809 176.109 269.473 176.713 269.267C177.33 269.061 178.002 268.958 178.73 268.958C180.129 268.958 181.172 269.336 181.858 270.09C182.544 270.831 182.887 272.039 182.887 273.712C182.887 273.795 182.88 273.911 182.866 274.062C182.866 274.213 182.859 274.357 182.846 274.495C182.557 274.508 182.166 274.536 181.673 274.577C181.192 274.618 180.63 274.659 179.985 274.7C179.34 274.741 178.633 274.776 177.865 274.803C177.097 274.831 176.287 274.851 175.437 274.865C175.423 274.934 175.416 275.002 175.416 275.071C175.416 275.139 175.416 275.215 175.416 275.297C175.416 276.189 175.54 276.909 175.787 277.458C176.047 277.993 176.418 278.384 176.898 278.631C177.392 278.878 177.989 279.002 178.688 279.002C179.127 279.002 179.573 278.981 180.026 278.94C180.479 278.885 180.911 278.816 181.323 278.734C181.748 278.652 182.139 278.569 182.496 278.487L182.722 279.784C182.352 279.907 181.933 280.017 181.467 280.113C181.014 280.209 180.534 280.278 180.026 280.319C179.518 280.374 178.976 280.401 178.4 280.401ZM175.457 273.671C176.116 273.671 176.747 273.664 177.351 273.651C177.968 273.623 178.531 273.596 179.038 273.568C179.56 273.541 179.999 273.514 180.355 273.486C180.712 273.459 180.973 273.438 181.137 273.424C181.124 272.656 181.028 272.039 180.849 271.572C180.671 271.106 180.397 270.769 180.026 270.564C179.656 270.344 179.182 270.234 178.606 270.234C178.249 270.234 177.899 270.289 177.556 270.399C177.213 270.495 176.891 270.673 176.589 270.934C176.301 271.181 176.054 271.531 175.848 271.984C175.656 272.423 175.526 272.985 175.457 273.671ZM186.645 280.195L183.702 269.226L185.41 269.123L187.674 278.405L190.062 269.164H191.873L194.281 278.405L196.544 269.123L198.253 269.226L195.248 280.195H193.354L190.947 271.263L188.58 280.195H186.645ZM198.845 277.54C198.845 276.882 198.983 276.34 199.257 275.915C199.531 275.489 199.95 275.153 200.512 274.906C201.075 274.645 201.768 274.447 202.591 274.309C203.414 274.158 204.368 274.035 205.452 273.939V272.395C205.452 271.764 205.246 271.284 204.834 270.955C204.423 270.612 203.805 270.44 202.982 270.44C202.708 270.44 202.399 270.454 202.056 270.481C201.713 270.509 201.356 270.557 200.986 270.625C200.615 270.694 200.231 270.79 199.833 270.914L199.524 269.514C200.114 269.336 200.718 269.198 201.336 269.102C201.953 269.006 202.536 268.958 203.085 268.958C203.99 268.958 204.745 269.089 205.349 269.349C205.966 269.596 206.426 269.974 206.728 270.481C207.043 270.989 207.201 271.62 207.201 272.375V277.726C207.201 278.178 207.263 278.487 207.386 278.652C207.523 278.803 207.702 278.878 207.921 278.878C208.004 278.878 208.093 278.871 208.189 278.858C208.285 278.844 208.388 278.816 208.498 278.775L208.683 280.051C208.477 280.161 208.257 280.243 208.024 280.298C207.805 280.367 207.571 280.401 207.324 280.401C206.831 280.401 206.439 280.278 206.151 280.031C205.863 279.77 205.678 279.379 205.596 278.858C205.266 279.118 204.896 279.372 204.484 279.619C204.086 279.852 203.647 280.044 203.167 280.195C202.701 280.333 202.186 280.401 201.624 280.401C201.198 280.401 200.814 280.339 200.471 280.216C200.142 280.092 199.854 279.914 199.607 279.681C199.36 279.434 199.168 279.132 199.031 278.775C198.907 278.419 198.845 278.007 198.845 277.54ZM200.595 277.396C200.595 277.986 200.739 278.432 201.027 278.734C201.329 279.022 201.727 279.166 202.22 279.166C202.605 279.166 202.989 279.105 203.373 278.981C203.757 278.858 204.128 278.693 204.484 278.487C204.855 278.268 205.177 278.021 205.452 277.746V274.968C204.724 275.036 204.059 275.119 203.455 275.215C202.865 275.297 202.351 275.428 201.912 275.606C201.486 275.784 201.157 276.017 200.924 276.306C200.704 276.594 200.595 276.957 200.595 277.396ZM211.532 284.476L212.931 280.195H212.602L208.363 269.185L210.215 269.082L213.631 278.631L216.595 269.082L218.365 269.185L213.281 284.579L211.532 284.476ZM229.156 280.401C228.484 280.401 227.922 280.278 227.469 280.031C227.03 279.77 226.701 279.386 226.481 278.878C226.275 278.357 226.172 277.712 226.172 276.944V270.461H224.279V269.308L226.172 269.164L226.399 266.55H227.901V269.164H231.585V270.461H227.901V276.82C227.901 277.561 228.038 278.096 228.313 278.425C228.601 278.755 229.067 278.919 229.712 278.919C230.041 278.919 230.371 278.892 230.7 278.837C231.029 278.768 231.359 278.686 231.688 278.59L231.935 279.928C231.427 280.092 230.94 280.209 230.474 280.278C230.007 280.36 229.568 280.401 229.156 280.401ZM232.594 274.659C232.594 273.685 232.676 272.841 232.841 272.128C233.005 271.401 233.273 270.811 233.643 270.358C234.014 269.891 234.508 269.541 235.125 269.308C235.743 269.075 236.504 268.958 237.41 268.958C238.315 268.958 239.077 269.075 239.694 269.308C240.325 269.541 240.826 269.891 241.196 270.358C241.567 270.811 241.834 271.401 241.999 272.128C242.164 272.841 242.246 273.685 242.246 274.659C242.246 275.661 242.157 276.525 241.979 277.252C241.8 277.979 241.519 278.576 241.135 279.043C240.751 279.496 240.25 279.839 239.632 280.072C239.029 280.291 238.288 280.401 237.41 280.401C236.545 280.401 235.804 280.291 235.187 280.072C234.583 279.839 234.089 279.496 233.705 279.043C233.321 278.576 233.04 277.979 232.861 277.252C232.683 276.525 232.594 275.661 232.594 274.659ZM234.343 274.659C234.343 275.743 234.446 276.607 234.652 277.252C234.871 277.897 235.208 278.364 235.66 278.652C236.113 278.926 236.696 279.063 237.41 279.063C238.137 279.063 238.727 278.926 239.18 278.652C239.632 278.364 239.962 277.897 240.167 277.252C240.373 276.607 240.476 275.743 240.476 274.659C240.476 273.589 240.38 272.738 240.188 272.107C240.01 271.462 239.694 271.003 239.241 270.728C238.789 270.44 238.178 270.296 237.41 270.296C236.655 270.296 236.051 270.44 235.599 270.728C235.146 271.003 234.823 271.462 234.631 272.107C234.439 272.738 234.343 273.589 234.343 274.659ZM248.539 280.195L253.479 265.645H255.475L260.435 280.195H258.48L257.245 276.47H251.626L250.391 280.195H248.539ZM251.997 274.988H256.895L254.446 267.374L251.997 274.988ZM262.17 280.195V271.366H260.441V270.214L262.17 270.07V269.617C262.17 268.492 262.314 267.573 262.602 266.859C262.89 266.146 263.309 265.617 263.858 265.274C264.42 264.931 265.106 264.76 265.916 264.76C266.355 264.76 266.78 264.794 267.192 264.863C267.617 264.931 268.07 265.041 268.55 265.192L268.303 266.468C267.946 266.358 267.603 266.276 267.274 266.221C266.945 266.166 266.615 266.139 266.286 266.139C265.49 266.139 264.887 266.413 264.475 266.962C264.077 267.497 263.878 268.389 263.878 269.638V270.07H267.171V271.366H263.858V280.195H262.17ZM270.246 269.164V270.522C270.658 270.152 271.042 269.857 271.399 269.638C271.755 269.404 272.119 269.233 272.489 269.123C272.86 269.013 273.244 268.958 273.642 268.958C273.93 268.958 274.211 268.979 274.486 269.02C274.76 269.061 275.014 269.116 275.247 269.185L274.959 270.749C274.712 270.68 274.451 270.632 274.177 270.605C273.916 270.564 273.669 270.543 273.436 270.543C272.956 270.543 272.462 270.646 271.954 270.852C271.46 271.044 270.939 271.394 270.39 271.901V280.195H268.682V269.164H270.246ZM277.465 266.942C277.081 266.942 276.806 266.873 276.642 266.736C276.477 266.598 276.395 266.358 276.395 266.015C276.395 265.659 276.47 265.412 276.621 265.274C276.786 265.137 277.067 265.069 277.465 265.069C277.849 265.069 278.117 265.137 278.268 265.274C278.432 265.412 278.515 265.659 278.515 266.015C278.515 266.358 278.432 266.598 278.268 266.736C278.117 266.873 277.849 266.942 277.465 266.942ZM276.601 280.195V269.164H278.309V280.195H276.601ZM280.387 274.844C280.387 273.514 280.586 272.416 280.984 271.552C281.382 270.673 281.965 270.022 282.733 269.596C283.515 269.171 284.455 268.958 285.553 268.958C285.91 268.958 286.28 268.979 286.664 269.02C287.048 269.048 287.426 269.089 287.796 269.144C288.18 269.198 288.523 269.274 288.825 269.37L288.578 270.811C288.276 270.742 287.961 270.687 287.631 270.646C287.302 270.591 286.973 270.55 286.644 270.522C286.314 270.481 285.999 270.461 285.697 270.461C284.942 270.461 284.297 270.625 283.762 270.955C283.241 271.27 282.843 271.75 282.569 272.395C282.294 273.026 282.157 273.843 282.157 274.844C282.157 275.764 282.294 276.525 282.569 277.129C282.843 277.719 283.248 278.165 283.783 278.467C284.318 278.755 284.963 278.899 285.717 278.899C286.033 278.899 286.362 278.885 286.705 278.858C287.048 278.83 287.391 278.789 287.734 278.734C288.091 278.665 288.427 278.597 288.743 278.528L289.01 279.928C288.516 280.065 287.933 280.175 287.261 280.257C286.602 280.353 285.971 280.401 285.368 280.401C283.721 280.401 282.479 279.948 281.643 279.043C280.806 278.137 280.387 276.738 280.387 274.844ZM290.05 277.54C290.05 276.882 290.188 276.34 290.462 275.915C290.736 275.489 291.155 275.153 291.717 274.906C292.28 274.645 292.973 274.447 293.796 274.309C294.619 274.158 295.573 274.035 296.657 273.939V272.395C296.657 271.764 296.451 271.284 296.039 270.955C295.628 270.612 295.01 270.44 294.187 270.44C293.913 270.44 293.604 270.454 293.261 270.481C292.918 270.509 292.561 270.557 292.191 270.625C291.82 270.694 291.436 270.79 291.038 270.914L290.73 269.514C291.32 269.336 291.923 269.198 292.541 269.102C293.158 269.006 293.741 268.958 294.29 268.958C295.196 268.958 295.95 269.089 296.554 269.349C297.171 269.596 297.631 269.974 297.933 270.481C298.248 270.989 298.406 271.62 298.406 272.375V277.726C298.406 278.178 298.468 278.487 298.591 278.652C298.729 278.803 298.907 278.878 299.126 278.878C299.209 278.878 299.298 278.871 299.394 278.858C299.49 278.844 299.593 278.816 299.703 278.775L299.888 280.051C299.682 280.161 299.463 280.243 299.229 280.298C299.01 280.367 298.777 280.401 298.53 280.401C298.036 280.401 297.645 280.278 297.357 280.031C297.068 279.77 296.883 279.379 296.801 278.858C296.472 279.118 296.101 279.372 295.69 279.619C295.292 279.852 294.853 280.044 294.372 280.195C293.906 280.333 293.391 280.401 292.829 280.401C292.404 280.401 292.019 280.339 291.676 280.216C291.347 280.092 291.059 279.914 290.812 279.681C290.565 279.434 290.373 279.132 290.236 278.775C290.112 278.419 290.05 278.007 290.05 277.54ZM291.8 277.396C291.8 277.986 291.944 278.432 292.232 278.734C292.534 279.022 292.932 279.166 293.426 279.166C293.81 279.166 294.194 279.105 294.578 278.981C294.962 278.858 295.333 278.693 295.69 278.487C296.06 278.268 296.382 278.021 296.657 277.746V274.968C295.93 275.036 295.264 275.119 294.66 275.215C294.071 275.297 293.556 275.428 293.117 275.606C292.692 275.784 292.362 276.017 292.129 276.306C291.91 276.594 291.8 276.957 291.8 277.396ZM301.301 280.195V269.164H302.865V270.131C303.318 269.885 303.75 269.672 304.162 269.493C304.587 269.315 305.013 269.185 305.438 269.102C305.877 269.006 306.337 268.958 306.817 268.958C307.489 268.958 308.052 269.075 308.504 269.308C308.957 269.541 309.3 269.885 309.533 270.337C309.767 270.776 309.883 271.325 309.883 271.984V280.195H308.175V272.457C308.175 271.798 308.004 271.298 307.661 270.955C307.331 270.598 306.824 270.42 306.138 270.42C305.767 270.42 305.41 270.461 305.067 270.543C304.724 270.625 304.388 270.735 304.059 270.872C303.73 270.996 303.38 271.154 303.009 271.346V280.195H301.301ZM327.25 267.374H322.825V280.195H321.055V267.374H316.631V265.789H327.25V267.374ZM329.274 269.164V270.522C329.686 270.152 330.07 269.857 330.427 269.638C330.783 269.404 331.147 269.233 331.517 269.123C331.888 269.013 332.272 268.958 332.67 268.958C332.958 268.958 333.239 268.979 333.514 269.02C333.788 269.061 334.042 269.116 334.275 269.185L333.987 270.749C333.74 270.68 333.479 270.632 333.205 270.605C332.944 270.564 332.697 270.543 332.464 270.543C331.984 270.543 331.49 270.646 330.982 270.852C330.488 271.044 329.967 271.394 329.418 271.901V280.195H327.71V269.164H329.274ZM339.205 280.401C338.451 280.401 337.778 280.298 337.188 280.092C336.598 279.887 336.097 279.564 335.686 279.125C335.288 278.686 334.979 278.124 334.76 277.438C334.554 276.752 334.451 275.928 334.451 274.968C334.451 273.857 334.575 272.917 334.821 272.148C335.082 271.366 335.446 270.742 335.912 270.276C336.379 269.809 336.914 269.473 337.518 269.267C338.135 269.061 338.807 268.958 339.534 268.958C340.934 268.958 341.977 269.336 342.663 270.09C343.349 270.831 343.692 272.039 343.692 273.712C343.692 273.795 343.685 273.911 343.671 274.062C343.671 274.213 343.664 274.357 343.65 274.495C343.362 274.508 342.971 274.536 342.477 274.577C341.997 274.618 341.435 274.659 340.79 274.7C340.145 274.741 339.438 274.776 338.67 274.803C337.902 274.831 337.092 274.851 336.242 274.865C336.228 274.934 336.221 275.002 336.221 275.071C336.221 275.139 336.221 275.215 336.221 275.297C336.221 276.189 336.344 276.909 336.591 277.458C336.852 277.993 337.223 278.384 337.703 278.631C338.197 278.878 338.794 279.002 339.493 279.002C339.932 279.002 340.378 278.981 340.831 278.94C341.284 278.885 341.716 278.816 342.128 278.734C342.553 278.652 342.944 278.569 343.301 278.487L343.527 279.784C343.157 279.907 342.738 280.017 342.272 280.113C341.819 280.209 341.339 280.278 340.831 280.319C340.323 280.374 339.781 280.401 339.205 280.401ZM336.262 273.671C336.921 273.671 337.552 273.664 338.156 273.651C338.773 273.623 339.335 273.596 339.843 273.568C340.364 273.541 340.804 273.514 341.16 273.486C341.517 273.459 341.778 273.438 341.942 273.424C341.929 272.656 341.833 272.039 341.654 271.572C341.476 271.106 341.201 270.769 340.831 270.564C340.461 270.344 339.987 270.234 339.411 270.234C339.054 270.234 338.704 270.289 338.361 270.399C338.018 270.495 337.696 270.673 337.394 270.934C337.106 271.181 336.859 271.531 336.653 271.984C336.461 272.423 336.331 272.985 336.262 273.671ZM344.918 277.54C344.918 276.882 345.055 276.34 345.33 275.915C345.604 275.489 346.023 275.153 346.585 274.906C347.148 274.645 347.841 274.447 348.664 274.309C349.487 274.158 350.441 274.035 351.525 273.939V272.395C351.525 271.764 351.319 271.284 350.907 270.955C350.496 270.612 349.878 270.44 349.055 270.44C348.781 270.44 348.472 270.454 348.129 270.481C347.786 270.509 347.429 270.557 347.059 270.625C346.688 270.694 346.304 270.79 345.906 270.914L345.597 269.514C346.187 269.336 346.791 269.198 347.409 269.102C348.026 269.006 348.609 268.958 349.158 268.958C350.063 268.958 350.818 269.089 351.422 269.349C352.039 269.596 352.499 269.974 352.801 270.481C353.116 270.989 353.274 271.62 353.274 272.375V277.726C353.274 278.178 353.336 278.487 353.459 278.652C353.596 278.803 353.775 278.878 353.994 278.878C354.077 278.878 354.166 278.871 354.262 278.858C354.358 278.844 354.461 278.816 354.571 278.775L354.756 280.051C354.55 280.161 354.33 280.243 354.097 280.298C353.878 280.367 353.644 280.401 353.397 280.401C352.904 280.401 352.512 280.278 352.224 280.031C351.936 279.77 351.751 279.379 351.669 278.858C351.339 279.118 350.969 279.372 350.557 279.619C350.159 279.852 349.72 280.044 349.24 280.195C348.774 280.333 348.259 280.401 347.697 280.401C347.271 280.401 346.887 280.339 346.544 280.216C346.215 280.092 345.927 279.914 345.68 279.681C345.433 279.434 345.241 279.132 345.104 278.775C344.98 278.419 344.918 278.007 344.918 277.54ZM346.668 277.396C346.668 277.986 346.812 278.432 347.1 278.734C347.402 279.022 347.8 279.166 348.293 279.166C348.678 279.166 349.062 279.105 349.446 278.981C349.83 278.858 350.201 278.693 350.557 278.487C350.928 278.268 351.25 278.021 351.525 277.746V274.968C350.797 275.036 350.132 275.119 349.528 275.215C348.938 275.297 348.424 275.428 347.985 275.606C347.559 275.784 347.23 276.017 346.997 276.306C346.777 276.594 346.668 276.957 346.668 277.396ZM355.426 279.763L355.673 278.446C355.906 278.542 356.167 278.631 356.455 278.714C356.757 278.782 357.066 278.844 357.381 278.899C357.697 278.954 358.019 278.995 358.349 279.022C358.678 279.05 358.993 279.063 359.295 279.063C360.16 279.063 360.805 278.919 361.23 278.631C361.669 278.329 361.888 277.904 361.888 277.355C361.888 277.067 361.827 276.82 361.703 276.614C361.58 276.395 361.395 276.21 361.148 276.059C360.901 275.894 360.585 275.75 360.201 275.626C359.83 275.489 359.398 275.352 358.904 275.215C358.424 275.091 357.992 274.947 357.608 274.783C357.224 274.604 356.887 274.392 356.599 274.145C356.325 273.884 356.112 273.589 355.961 273.26C355.81 272.917 355.735 272.526 355.735 272.087C355.735 271.099 356.085 270.33 356.785 269.782C357.484 269.233 358.513 268.958 359.872 268.958C360.269 268.958 360.654 268.979 361.024 269.02C361.408 269.061 361.765 269.123 362.094 269.205C362.437 269.274 362.739 269.363 363 269.473L362.753 270.79C362.478 270.708 362.19 270.632 361.888 270.564C361.6 270.495 361.285 270.44 360.942 270.399C360.612 270.358 360.256 270.337 359.872 270.337C359.062 270.337 358.452 270.481 358.04 270.769C357.628 271.058 357.423 271.449 357.423 271.943C357.423 272.244 357.484 272.498 357.608 272.704C357.745 272.896 357.937 273.068 358.184 273.219C358.445 273.356 358.74 273.479 359.069 273.589C359.412 273.699 359.782 273.809 360.18 273.918C360.702 274.055 361.175 274.213 361.6 274.392C362.026 274.556 362.382 274.762 362.671 275.009C362.972 275.256 363.206 275.558 363.37 275.915C363.535 276.271 363.617 276.703 363.617 277.211C363.617 277.65 363.542 278.048 363.391 278.405C363.254 278.748 363.055 279.05 362.794 279.31C362.547 279.557 362.245 279.763 361.888 279.928C361.532 280.079 361.134 280.195 360.695 280.278C360.256 280.36 359.782 280.401 359.275 280.401C358.808 280.401 358.342 280.374 357.875 280.319C357.423 280.278 356.983 280.209 356.558 280.113C356.147 280.017 355.769 279.9 355.426 279.763ZM368.359 280.401C367.741 280.401 367.206 280.291 366.753 280.072C366.301 279.852 365.951 279.523 365.704 279.084C365.457 278.631 365.333 278.069 365.333 277.396V269.164H367.062V277.047C367.062 277.65 367.227 278.117 367.556 278.446C367.885 278.775 368.372 278.94 369.017 278.94C369.36 278.94 369.689 278.906 370.005 278.837C370.334 278.755 370.657 278.645 370.972 278.508C371.302 278.371 371.631 278.213 371.96 278.034V269.164H373.689V277.787C373.689 278.062 373.723 278.288 373.792 278.467C373.86 278.631 373.95 278.748 374.059 278.816C374.183 278.885 374.313 278.919 374.45 278.919C374.642 278.919 374.828 278.878 375.006 278.796L375.191 280.051C375.068 280.12 374.931 280.182 374.78 280.236C374.629 280.291 374.471 280.333 374.306 280.36C374.142 280.387 373.97 280.401 373.792 280.401C373.421 280.401 373.092 280.305 372.804 280.113C372.516 279.907 372.31 279.612 372.187 279.228C371.775 279.461 371.363 279.667 370.952 279.845C370.54 280.024 370.122 280.161 369.696 280.257C369.285 280.353 368.839 280.401 368.359 280.401ZM378.153 269.164V270.522C378.564 270.152 378.949 269.857 379.305 269.638C379.662 269.404 380.026 269.233 380.396 269.123C380.767 269.013 381.151 268.958 381.549 268.958C381.837 268.958 382.118 268.979 382.392 269.02C382.667 269.061 382.921 269.116 383.154 269.185L382.866 270.749C382.619 270.68 382.358 270.632 382.084 270.605C381.823 270.564 381.576 270.543 381.343 270.543C380.863 270.543 380.369 270.646 379.861 270.852C379.367 271.044 378.846 271.394 378.297 271.901V280.195H376.589V269.164H378.153ZM388.084 280.401C387.329 280.401 386.657 280.298 386.067 280.092C385.477 279.887 384.976 279.564 384.564 279.125C384.167 278.686 383.858 278.124 383.638 277.438C383.433 276.752 383.33 275.928 383.33 274.968C383.33 273.857 383.453 272.917 383.7 272.148C383.961 271.366 384.324 270.742 384.791 270.276C385.257 269.809 385.792 269.473 386.396 269.267C387.014 269.061 387.686 268.958 388.413 268.958C389.812 268.958 390.855 269.336 391.541 270.09C392.227 270.831 392.57 272.039 392.57 273.712C392.57 273.795 392.563 273.911 392.55 274.062C392.55 274.213 392.543 274.357 392.529 274.495C392.241 274.508 391.85 274.536 391.356 274.577C390.876 274.618 390.313 274.659 389.668 274.7C389.024 274.741 388.317 274.776 387.549 274.803C386.78 274.831 385.971 274.851 385.12 274.865C385.106 274.934 385.1 275.002 385.1 275.071C385.1 275.139 385.1 275.215 385.1 275.297C385.1 276.189 385.223 276.909 385.47 277.458C385.731 277.993 386.101 278.384 386.581 278.631C387.075 278.878 387.672 279.002 388.372 279.002C388.811 279.002 389.257 278.981 389.71 278.94C390.162 278.885 390.595 278.816 391.006 278.734C391.431 278.652 391.822 278.569 392.179 278.487L392.406 279.784C392.035 279.907 391.617 280.017 391.15 280.113C390.697 280.209 390.217 280.278 389.71 280.319C389.202 280.374 388.66 280.401 388.084 280.401ZM385.141 273.671C385.799 273.671 386.43 273.664 387.034 273.651C387.651 273.623 388.214 273.596 388.722 273.568C389.243 273.541 389.682 273.514 390.039 273.486C390.396 273.459 390.656 273.438 390.821 273.424C390.807 272.656 390.711 272.039 390.533 271.572C390.354 271.106 390.08 270.769 389.71 270.564C389.339 270.344 388.866 270.234 388.289 270.234C387.933 270.234 387.583 270.289 387.24 270.399C386.897 270.495 386.574 270.673 386.273 270.934C385.984 271.181 385.738 271.531 385.532 271.984C385.34 272.423 385.209 272.985 385.141 273.671ZM393.793 279.763L394.04 278.446C394.274 278.542 394.534 278.631 394.823 278.714C395.124 278.782 395.433 278.844 395.749 278.899C396.064 278.954 396.387 278.995 396.716 279.022C397.045 279.05 397.361 279.063 397.663 279.063C398.527 279.063 399.172 278.919 399.597 278.631C400.036 278.329 400.256 277.904 400.256 277.355C400.256 277.067 400.194 276.82 400.071 276.614C399.947 276.395 399.762 276.21 399.515 276.059C399.268 275.894 398.952 275.75 398.568 275.626C398.198 275.489 397.766 275.352 397.272 275.215C396.791 275.091 396.359 274.947 395.975 274.783C395.591 274.604 395.255 274.392 394.967 274.145C394.692 273.884 394.479 273.589 394.329 273.26C394.178 272.917 394.102 272.526 394.102 272.087C394.102 271.099 394.452 270.33 395.152 269.782C395.852 269.233 396.881 268.958 398.239 268.958C398.637 268.958 399.021 268.979 399.391 269.02C399.776 269.061 400.132 269.123 400.462 269.205C400.805 269.274 401.106 269.363 401.367 269.473L401.12 270.79C400.846 270.708 400.558 270.632 400.256 270.564C399.968 270.495 399.652 270.44 399.309 270.399C398.98 270.358 398.623 270.337 398.239 270.337C397.429 270.337 396.819 270.481 396.407 270.769C395.996 271.058 395.79 271.449 395.79 271.943C395.79 272.244 395.852 272.498 395.975 272.704C396.112 272.896 396.304 273.068 396.551 273.219C396.812 273.356 397.107 273.479 397.436 273.589C397.779 273.699 398.15 273.809 398.548 273.918C399.069 274.055 399.542 274.213 399.968 274.392C400.393 274.556 400.75 274.762 401.038 275.009C401.34 275.256 401.573 275.558 401.738 275.915C401.902 276.271 401.985 276.703 401.985 277.211C401.985 277.65 401.909 278.048 401.758 278.405C401.621 278.748 401.422 279.05 401.161 279.31C400.914 279.557 400.612 279.763 400.256 279.928C399.899 280.079 399.501 280.195 399.062 280.278C398.623 280.36 398.15 280.401 397.642 280.401C397.176 280.401 396.709 280.374 396.243 280.319C395.79 280.278 395.351 280.209 394.925 280.113C394.514 280.017 394.136 279.9 393.793 279.763Z" fill="#FFD400"/>
<path d="M285.323 32.3082H261.512C261.327 23.6772 257.734 15.4613 251.501 9.42179C245.268 3.3823 236.892 0 228.169 0C219.447 0 211.071 3.3823 204.838 9.42179C198.605 15.4613 195.011 23.6772 194.827 32.3082H171.076C170.769 32.3068 170.466 32.3691 170.185 32.4909C169.904 32.6128 169.652 32.7915 169.445 33.0156C169.238 33.2398 169.081 33.5043 168.984 33.7921C168.887 34.08 168.852 34.3848 168.881 34.6869L176.137 115.149C176.152 120.487 178.307 125.6 182.127 129.367C185.947 133.134 191.121 135.247 196.514 135.243H259.945C265.31 135.235 270.453 133.124 274.25 129.373C278.046 125.621 280.187 120.533 280.202 115.223L287.458 34.6869C287.486 34.3897 287.453 34.0898 287.359 33.806C287.266 33.5222 287.114 33.2605 286.914 33.0372C286.714 32.814 286.469 32.6341 286.195 32.5086C285.921 32.3832 285.624 32.315 285.323 32.3082ZM206.023 32.3082C206.173 26.5781 208.579 21.1327 212.727 17.1324C216.875 13.1322 222.438 10.8935 228.229 10.8935C234.021 10.8935 239.583 13.1322 243.732 17.1324C247.88 21.1327 250.285 26.5781 250.435 32.3082H206.023Z" fill="#FFD400"/>
<path d="M206.241 55.5852C206.466 55.5852 206.691 55.5852 206.916 55.5852C208.232 55.7689 209.572 55.5104 210.725 54.8502C212.454 53.8939 214.346 53.2683 216.305 53.0054C217.03 52.8927 217.769 52.8927 218.494 53.0054C219.114 53.0598 219.697 53.3221 220.149 53.7495C220.601 54.1769 220.895 54.7445 220.984 55.3602C220.984 55.5552 221.074 55.7352 221.119 55.9302C221.178 56.6309 221.494 57.285 222.006 57.7668C222.518 58.2486 223.191 58.524 223.894 58.54C225.61 58.735 227.344 58.7048 229.053 58.45C231.102 58.1872 233.166 58.0519 235.232 58.045C236.096 58.0105 236.948 58.2483 237.67 58.7246C238.391 59.201 238.944 59.8919 239.252 60.6998C240.364 63.4823 241.33 66.321 242.146 69.2042C242.596 70.6141 243.031 72.0241 243.646 73.374C243.781 73.6589 243.916 73.9589 244.066 74.2289C244.966 75.9538 245.566 76.2088 247.441 75.8488C249.315 75.4888 250.89 74.9189 252.69 74.6789C252.86 74.665 253.03 74.665 253.2 74.6789C255.135 74.5439 255.885 75.5338 255.285 77.3937C254.856 78.5514 254.187 79.6046 253.32 80.4835C251.354 82.5517 249.271 84.5048 247.081 86.3331C246.001 87.308 244.951 88.3129 243.961 89.3329C243.321 89.9447 242.897 90.7483 242.753 91.6222C242.61 92.4962 242.755 93.3932 243.166 94.1775C243.595 95.0308 243.952 95.9189 244.231 96.8323C244.374 97.2307 244.383 97.665 244.255 98.0686C244.128 98.4723 243.872 98.8231 243.526 99.0672C242.695 99.7053 242.008 100.513 241.512 101.436C241.015 102.359 240.72 103.376 240.646 104.422L240.466 105.817C240.441 106.135 240.346 106.444 240.188 106.721C240.03 106.999 239.813 107.238 239.552 107.422C238.331 108.274 237.445 109.526 237.047 110.961C236.814 111.738 236.534 112.499 236.207 113.241C235.525 114.975 234.332 116.46 232.787 117.499C231.241 118.539 229.416 119.083 227.553 119.061C226.964 119.031 226.373 119.031 225.783 119.061C225.107 119.113 224.428 118.986 223.817 118.69C223.206 118.395 222.684 117.944 222.304 117.381C220.552 115.037 219.162 112.443 218.179 109.686C217.668 108.5 217.41 107.22 217.423 105.929C217.436 104.637 217.719 103.363 218.254 102.187C218.964 100.697 219.469 99.1178 219.754 97.4923C219.971 96.7376 219.901 95.9294 219.558 95.2232C219.214 94.5171 218.622 93.9629 217.894 93.6676C216.593 93.1123 215.498 92.1619 214.766 90.9507C214.034 89.7395 213.701 88.3288 213.815 86.918C213.827 85.5671 213.727 84.2175 213.515 82.8833C213.423 82.5017 213.308 82.1261 213.17 81.7584C213.042 81.3329 212.774 80.9633 212.409 80.71C212.044 80.4566 211.604 80.3345 211.16 80.3635C209.215 80.3679 207.271 80.4931 205.341 80.7385C204.006 80.9434 202.651 80.9837 201.306 80.8584C200.936 80.8149 200.587 80.6637 200.302 80.4235C199.237 79.5385 198.202 78.6536 197.122 77.7837C196.014 76.9472 195.165 75.8153 194.672 74.518C194.178 73.2206 194.061 71.8103 194.332 70.4492C195.086 65.1204 197.63 60.2065 201.546 56.5151C201.898 56.17 202.316 55.8992 202.775 55.7189C203.233 55.5385 203.723 55.4522 204.216 55.4652H206.271L206.241 55.5852Z" fill="black"/>
<path d="M255.485 100.702C255.483 103.135 255.127 105.554 254.427 107.878C254.196 108.622 253.816 109.307 253.31 109.888C252.804 110.469 252.185 110.933 251.493 111.249C250.801 111.565 250.052 111.726 249.295 111.722C248.539 111.718 247.791 111.549 247.103 111.225C246.914 111.181 246.737 111.091 246.589 110.962C246.441 110.833 246.325 110.67 246.251 110.485C246.176 110.3 246.147 110.099 246.163 109.9C246.18 109.7 246.243 109.508 246.347 109.339C246.703 108.356 247.198 107.434 247.817 106.602C248.228 106.079 248.504 105.458 248.619 104.796C248.735 104.134 248.686 103.452 248.477 102.815C248.285 102.041 248.184 101.246 248.175 100.447C248.159 100.204 248.201 99.9608 248.297 99.7384C248.393 99.5161 248.539 99.3211 248.724 99.1701C249.991 98.2054 251.14 97.0863 252.146 95.8372C252.38 95.4826 252.613 95.1564 252.833 94.8019C253.053 94.4473 253.397 94.0076 253.96 94.0927C254.523 94.1778 254.688 94.66 254.812 95.1281C255.28 96.946 255.506 98.821 255.485 100.702Z" fill="black"/>
<path d="M17.703 242.824C14.9592 242.824 12.488 242.335 10.2892 241.358C8.10919 240.362 6.38023 238.896 5.10231 236.961C3.84317 235.025 3.21361 232.638 3.21361 229.801C3.21361 227.357 3.66464 225.337 4.56671 223.74C5.46877 222.142 6.69971 220.864 8.25953 219.906C9.81936 218.948 11.5765 218.224 13.531 217.735C15.5042 217.228 17.5433 216.862 19.6481 216.636C22.1852 216.373 24.243 216.138 25.8216 215.931C27.4002 215.706 28.5466 215.367 29.2607 214.916C29.9937 214.447 30.3601 213.723 30.3601 212.746V212.577C30.3601 210.453 29.7306 208.809 28.4714 207.644C27.2123 206.478 25.3988 205.896 23.0309 205.896C20.5314 205.896 18.5487 206.441 17.0829 207.531C15.6358 208.621 14.6586 209.908 14.1511 211.393L4.62308 210.04C5.37481 207.409 6.61515 205.21 8.3441 203.443C10.0731 201.658 12.1873 200.324 14.6867 199.44C17.1862 198.538 19.9488 198.087 22.9745 198.087C25.0605 198.087 27.1371 198.332 29.2044 198.82C31.2716 199.309 33.1603 200.117 34.8705 201.245C36.5806 202.353 37.9525 203.866 38.9861 205.783C40.0385 207.7 40.5647 210.096 40.5647 212.971V241.95H30.7548V236.002H30.4165C29.7963 237.205 28.9225 238.333 27.7949 239.385C26.6861 240.419 25.286 241.255 23.5946 241.894C21.9221 242.514 19.9582 242.824 17.703 242.824ZM20.3528 235.326C22.4013 235.326 24.1772 234.922 25.6807 234.114C27.1841 233.287 28.3399 232.197 29.148 230.844C29.9749 229.49 30.3883 228.015 30.3883 226.418V221.315C30.0688 221.579 29.5238 221.823 28.7533 222.048C28.0016 222.274 27.1559 222.471 26.2163 222.64C25.2766 222.809 24.3464 222.96 23.4255 223.091C22.5046 223.223 21.7059 223.336 21.0294 223.43C19.5072 223.636 18.1447 223.975 16.9419 224.444C15.7392 224.914 14.7901 225.572 14.0948 226.418C13.3994 227.245 13.0518 228.316 13.0518 229.631C13.0518 231.511 13.7377 232.93 15.1096 233.888C16.4815 234.846 18.2292 235.326 20.3528 235.326ZM68.7881 198.651V206.544H43.192V198.651H68.7881ZM49.591 241.95V194.564C49.591 191.651 50.1924 189.226 51.3952 187.291C52.6167 185.355 54.2517 183.908 56.3001 182.949C58.3486 181.991 60.6225 181.512 63.122 181.512C64.8886 181.512 66.4578 181.653 67.8297 181.935C69.2016 182.217 70.2164 182.47 70.8741 182.696L68.8445 190.589C68.4122 190.457 67.8673 190.326 67.2095 190.194C66.5517 190.044 65.8188 189.969 65.0107 189.969C63.1126 189.969 61.7689 190.429 60.9796 191.35C60.2091 192.252 59.8238 193.549 59.8238 195.24V241.95H49.591ZM72.8108 241.95V198.651H82.7053V205.868H83.1563C83.9456 203.368 85.2987 201.442 87.2156 200.089C89.1513 198.717 91.3595 198.031 93.8401 198.031C94.4039 198.031 95.0335 198.059 95.7288 198.115C96.443 198.153 97.035 198.219 97.5048 198.313V207.7C97.0725 207.55 96.3866 207.418 95.447 207.305C94.5261 207.174 93.6334 207.108 92.7689 207.108C90.9084 207.108 89.2359 207.512 87.7512 208.32C86.2854 209.109 85.1296 210.209 84.2839 211.618C83.4382 213.028 83.0154 214.653 83.0154 216.495V241.95H72.8108ZM117.419 242.796C113.191 242.796 109.526 241.866 106.425 240.005C103.325 238.145 100.919 235.542 99.2089 232.197C97.5175 228.851 96.6718 224.943 96.6718 220.47C96.6718 215.997 97.5175 212.079 99.2089 208.715C100.919 205.351 103.325 202.739 106.425 200.878C109.526 199.018 113.191 198.087 117.419 198.087C121.648 198.087 125.312 199.018 128.413 200.878C131.514 202.739 133.91 205.351 135.602 208.715C137.312 212.079 138.167 215.997 138.167 220.47C138.167 224.943 137.312 228.851 135.602 232.197C133.91 235.542 131.514 238.145 128.413 240.005C125.312 241.866 121.648 242.796 117.419 242.796ZM117.476 234.621C119.768 234.621 121.685 233.991 123.226 232.732C124.767 231.454 125.914 229.744 126.665 227.602C127.436 225.459 127.821 223.073 127.821 220.442C127.821 217.792 127.436 215.396 126.665 213.253C125.914 211.092 124.767 209.372 123.226 208.095C121.685 206.817 119.768 206.178 117.476 206.178C115.127 206.178 113.172 206.817 111.612 208.095C110.071 209.372 108.915 211.092 108.145 213.253C107.393 215.396 107.017 217.792 107.017 220.442C107.017 223.073 107.393 225.459 108.145 227.602C108.915 229.744 110.071 231.454 111.612 232.732C113.172 233.991 115.127 234.621 117.476 234.621ZM164.48 198.651V206.544H139.589V198.651H164.48ZM145.734 188.277H155.939V228.927C155.939 230.299 156.146 231.351 156.559 232.084C156.991 232.798 157.555 233.287 158.25 233.55C158.946 233.813 159.716 233.944 160.562 233.944C161.201 233.944 161.784 233.897 162.31 233.803C162.855 233.709 163.268 233.625 163.55 233.55L165.27 241.527C164.725 241.715 163.945 241.922 162.93 242.148C161.934 242.373 160.712 242.505 159.265 242.542C156.709 242.617 154.407 242.232 152.359 241.386C150.31 240.522 148.685 239.188 147.482 237.383C146.298 235.579 145.715 233.324 145.734 230.618V188.277ZM169.046 241.95V198.651H178.94V205.868H179.391C180.18 203.368 181.534 201.442 183.45 200.089C185.386 198.717 187.594 198.031 190.075 198.031C190.639 198.031 191.268 198.059 191.964 198.115C192.678 198.153 193.27 198.219 193.74 198.313V207.7C193.307 207.55 192.621 207.418 191.682 207.305C190.761 207.174 189.868 207.108 189.004 207.108C187.143 207.108 185.471 207.512 183.986 208.32C182.52 209.109 181.364 210.209 180.519 211.618C179.673 213.028 179.25 214.653 179.25 216.495V241.95H169.046ZM208.235 242.824C205.491 242.824 203.02 242.335 200.821 241.358C198.641 240.362 196.912 238.896 195.634 236.961C194.375 235.025 193.745 232.638 193.745 229.801C193.745 227.357 194.196 225.337 195.098 223.74C196 222.142 197.231 220.864 198.791 219.906C200.351 218.948 202.108 218.224 204.063 217.735C206.036 217.228 208.075 216.862 210.18 216.636C212.717 216.373 214.775 216.138 216.353 215.931C217.932 215.706 219.078 215.367 219.792 214.916C220.525 214.447 220.892 213.723 220.892 212.746V212.577C220.892 210.453 220.262 208.809 219.003 207.644C217.744 206.478 215.93 205.896 213.563 205.896C211.063 205.896 209.08 206.441 207.615 207.531C206.167 208.621 205.19 209.908 204.683 211.393L195.155 210.04C195.906 207.409 197.147 205.21 198.876 203.443C200.605 201.658 202.719 200.324 205.218 199.44C207.718 198.538 210.48 198.087 213.506 198.087C215.592 198.087 217.669 198.332 219.736 198.82C221.803 199.309 223.692 200.117 225.402 201.245C227.112 202.353 228.484 203.866 229.518 205.783C230.57 207.7 231.096 210.096 231.096 212.971V241.95H221.286V236.002H220.948C220.328 237.205 219.454 238.333 218.327 239.385C217.218 240.419 215.818 241.255 214.126 241.894C212.454 242.514 210.49 242.824 208.235 242.824ZM210.885 235.326C212.933 235.326 214.709 234.922 216.212 234.114C217.716 233.287 218.872 232.197 219.68 230.844C220.507 229.49 220.92 228.015 220.92 226.418V221.315C220.601 221.579 220.056 221.823 219.285 222.048C218.533 222.274 217.688 222.471 216.748 222.64C215.808 222.809 214.878 222.96 213.957 223.091C213.036 223.223 212.238 223.336 211.561 223.43C210.039 223.636 208.676 223.975 207.474 224.444C206.271 224.914 205.322 225.572 204.626 226.418C203.931 227.245 203.583 228.316 203.583 229.631C203.583 231.511 204.269 232.93 205.641 233.888C207.013 234.846 208.761 235.326 210.885 235.326ZM247.593 216.58V241.95H237.388V198.651H247.142V206.009H247.649C248.645 203.584 250.233 201.658 252.413 200.23C254.612 198.801 257.328 198.087 260.56 198.087C263.548 198.087 266.151 198.726 268.369 200.004C270.605 201.282 272.334 203.133 273.555 205.558C274.796 207.982 275.407 210.923 275.388 214.381V241.95H265.183V215.959C265.183 213.065 264.431 210.801 262.928 209.166C261.443 207.531 259.386 206.713 256.755 206.713C254.969 206.713 253.381 207.108 251.99 207.897C250.619 208.668 249.538 209.786 248.749 211.252C247.978 212.718 247.593 214.494 247.593 216.58ZM316.015 210.096L306.712 211.111C306.449 210.171 305.988 209.288 305.331 208.461C304.692 207.634 303.827 206.967 302.737 206.46C301.647 205.952 300.313 205.698 298.734 205.698C296.611 205.698 294.825 206.159 293.378 207.08C291.95 208.001 291.245 209.194 291.264 210.66C291.245 211.919 291.706 212.943 292.645 213.732C293.604 214.522 295.183 215.17 297.381 215.678L304.767 217.256C308.864 218.139 311.908 219.54 313.9 221.456C315.911 223.373 316.926 225.882 316.945 228.983C316.926 231.708 316.127 234.114 314.549 236.2C312.989 238.267 310.818 239.883 308.037 241.048C305.256 242.213 302.061 242.796 298.452 242.796C293.153 242.796 288.887 241.687 285.654 239.47C282.422 237.233 280.496 234.123 279.876 230.139L289.826 229.18C290.278 231.135 291.236 232.61 292.702 233.606C294.168 234.602 296.075 235.1 298.424 235.1C300.849 235.1 302.794 234.602 304.26 233.606C305.744 232.61 306.487 231.379 306.487 229.913C306.487 228.673 306.007 227.649 305.049 226.841C304.109 226.033 302.643 225.412 300.651 224.98L293.266 223.43C289.112 222.565 286.04 221.109 284.048 219.06C282.056 216.993 281.069 214.381 281.088 211.224C281.069 208.555 281.792 206.243 283.258 204.289C284.743 202.316 286.801 200.793 289.432 199.722C292.082 198.632 295.136 198.087 298.593 198.087C303.668 198.087 307.661 199.168 310.574 201.329C313.506 203.49 315.319 206.413 316.015 210.096ZM333.85 242.824C331.106 242.824 328.635 242.335 326.436 241.358C324.256 240.362 322.527 238.896 321.249 236.961C319.99 235.025 319.361 232.638 319.361 229.801C319.361 227.357 319.812 225.337 320.714 223.74C321.616 222.142 322.847 220.864 324.407 219.906C325.966 218.948 327.724 218.224 329.678 217.735C331.651 217.228 333.69 216.862 335.795 216.636C338.332 216.373 340.39 216.138 341.969 215.931C343.547 215.706 344.694 215.367 345.408 214.916C346.141 214.447 346.507 213.723 346.507 212.746V212.577C346.507 210.453 345.878 208.809 344.618 207.644C343.359 206.478 341.546 205.896 339.178 205.896C336.678 205.896 334.696 206.441 333.23 207.531C331.783 208.621 330.806 209.908 330.298 211.393L320.77 210.04C321.522 207.409 322.762 205.21 324.491 203.443C326.22 201.658 328.334 200.324 330.834 199.44C333.333 198.538 336.096 198.087 339.122 198.087C341.208 198.087 343.284 198.332 345.351 198.82C347.419 199.309 349.307 200.117 351.018 201.245C352.728 202.353 354.1 203.866 355.133 205.783C356.186 207.7 356.712 210.096 356.712 212.971V241.95H346.902V236.002H346.564C345.943 237.205 345.07 238.333 343.942 239.385C342.833 240.419 341.433 241.255 339.742 241.894C338.069 242.514 336.105 242.824 333.85 242.824ZM336.5 235.326C338.548 235.326 340.324 234.922 341.828 234.114C343.331 233.287 344.487 232.197 345.295 230.844C346.122 229.49 346.535 228.015 346.535 226.418V221.315C346.216 221.579 345.671 221.823 344.9 222.048C344.149 222.274 343.303 222.471 342.363 222.64C341.424 222.809 340.493 222.96 339.573 223.091C338.652 223.223 337.853 223.336 337.176 223.43C335.654 223.636 334.292 223.975 333.089 224.444C331.886 224.914 330.937 225.572 330.242 226.418C329.546 227.245 329.199 228.316 329.199 229.631C329.199 231.511 329.885 232.93 331.257 233.888C332.629 234.846 334.376 235.326 336.5 235.326ZM381.891 242.796C377.568 242.796 373.857 241.847 370.756 239.949C367.674 238.051 365.296 235.429 363.624 232.084C361.97 228.72 361.143 224.849 361.143 220.47C361.143 216.072 361.989 212.191 363.68 208.827C365.372 205.445 367.758 202.814 370.84 200.934C373.941 199.036 377.606 198.087 381.834 198.087C385.349 198.087 388.459 198.736 391.165 200.032C393.89 201.31 396.061 203.124 397.677 205.473C399.293 207.803 400.214 210.528 400.439 213.648H390.686C390.291 211.562 389.352 209.824 387.867 208.433C386.401 207.023 384.437 206.319 381.975 206.319C379.889 206.319 378.057 206.882 376.478 208.01C374.9 209.119 373.669 210.716 372.785 212.802C371.921 214.888 371.489 217.388 371.489 220.301C371.489 223.251 371.921 225.788 372.785 227.912C373.65 230.017 374.862 231.642 376.422 232.789C378.001 233.916 379.852 234.48 381.975 234.48C383.479 234.48 384.822 234.198 386.006 233.634C387.209 233.052 388.215 232.215 389.023 231.125C389.831 230.035 390.385 228.711 390.686 227.151H400.439C400.195 230.214 399.293 232.93 397.733 235.297C396.173 237.647 394.05 239.488 391.362 240.823C388.675 242.138 385.518 242.796 381.891 242.796ZM426.471 198.651V206.544H401.58V198.651H426.471ZM407.725 188.277H417.93V228.927C417.93 230.299 418.136 231.351 418.55 232.084C418.982 232.798 419.546 233.287 420.241 233.55C420.936 233.813 421.707 233.944 422.553 233.944C423.192 233.944 423.774 233.897 424.3 233.803C424.845 233.709 425.259 233.625 425.541 233.55L427.26 241.527C426.715 241.715 425.935 241.922 424.921 242.148C423.925 242.373 422.703 242.505 421.256 242.542C418.7 242.617 416.398 242.232 414.35 241.386C412.301 240.522 410.676 239.188 409.473 237.383C408.289 235.579 407.706 233.324 407.725 230.618V188.277Z" fill="#FFD400"/>
</svg>
