<svg width="575" height="118" viewBox="0 0 575 118" fill="none" xmlns="http://www.w3.org/2000/svg">
<path d="M101.284 28.1H80.5741C80.4136 20.5932 77.2878 13.4474 71.8668 8.19459C66.4458 2.94175 59.1611 0 51.5745 0C43.9878 0 36.7031 2.94175 31.2821 8.19459C25.8611 13.4474 22.7353 20.5932 22.5748 28.1H1.91732C1.65062 28.0988 1.38662 28.153 1.14235 28.2589C0.898084 28.3649 0.67897 28.5204 0.499138 28.7153C0.319306 28.9102 0.182749 29.1403 0.0982718 29.3907C0.0137951 29.641 -0.0167256 29.9062 0.00867776 30.1689L6.31888 100.151C6.33264 104.793 8.20637 109.24 11.529 112.516C14.8516 115.793 19.3517 117.631 24.042 117.627H79.2108C83.8771 117.621 88.3508 115.785 91.6528 112.522C94.9548 109.258 96.8163 104.834 96.8301 100.215L103.14 30.1689C103.165 29.9104 103.136 29.6496 103.055 29.4027C102.974 29.1559 102.842 28.9283 102.667 28.7341C102.493 28.54 102.28 28.3834 102.042 28.2744C101.804 28.1653 101.546 28.1059 101.284 28.1ZM32.3128 28.1C32.4433 23.1163 34.5355 18.3801 38.1432 14.9009C41.751 11.4217 46.5891 9.47457 51.6264 9.47457C56.6637 9.47457 61.5018 11.4217 65.1096 14.9009C68.7174 18.3801 70.8095 23.1163 70.9401 28.1H32.3128Z" fill="#FFD400"/>
<path d="M32.5022 48.3456C32.6979 48.3456 32.8936 48.3456 33.0893 48.3456C34.234 48.5054 35.3994 48.2806 36.4026 47.7064C37.9063 46.8746 39.552 46.3304 41.2552 46.1018C41.8862 46.0038 42.5286 46.0038 43.1597 46.1018C43.6986 46.1492 44.2057 46.3772 44.5988 46.749C44.9918 47.1208 45.2478 47.6144 45.3251 48.1499C45.3251 48.3195 45.4033 48.476 45.4425 48.6456C45.4938 49.2551 45.7686 49.824 46.2141 50.243C46.6596 50.6621 47.2443 50.9016 47.8557 50.9155C49.3485 51.0852 50.8571 51.0588 52.343 50.8372C54.1255 50.6087 55.9204 50.491 57.7174 50.485C58.4686 50.455 59.2102 50.6618 59.8375 51.0761C60.4648 51.4904 60.946 52.0914 61.2133 52.794C62.1808 55.2141 63.0211 57.683 63.7309 60.1907C64.1223 61.417 64.5006 62.6433 65.0354 63.8174C65.1528 64.0652 65.2702 64.3261 65.4007 64.5609C66.1833 66.0612 66.7051 66.2829 68.3357 65.9698C69.9663 65.6567 71.3359 65.161 72.9013 64.9523C73.0489 64.9403 73.1972 64.9403 73.3448 64.9523C75.0275 64.8349 75.6798 65.6959 75.158 67.3135C74.7855 68.3204 74.203 69.2365 73.4492 70.0008C71.7396 71.7997 69.9278 73.4984 68.0226 75.0885C67.0834 75.9365 66.1703 76.8105 65.3093 77.6976C64.7524 78.2297 64.3837 78.9286 64.2589 79.6888C64.1342 80.4489 64.2602 81.229 64.618 81.9112C64.9913 82.6534 65.3012 83.4258 65.5441 84.2203C65.6686 84.5667 65.676 84.9444 65.5653 85.2955C65.4546 85.6466 65.2318 85.9517 64.931 86.164C64.208 86.719 63.6109 87.4211 63.1791 88.2239C62.7474 89.0267 62.4909 89.9119 62.4265 90.8212L62.27 92.0344C62.2479 92.3112 62.1652 92.5798 62.0277 92.821C61.8901 93.0623 61.7012 93.2703 61.4742 93.4303C60.4122 94.172 59.6419 95.2606 59.2958 96.509C59.0933 97.1844 58.8494 97.8466 58.5653 98.4919C57.9725 99.9997 56.9349 101.291 55.5905 102.195C54.2461 103.1 52.6585 103.573 51.0386 103.553C50.5258 103.527 50.0121 103.527 49.4993 103.553C48.9108 103.599 48.3206 103.488 47.789 103.231C47.2574 102.975 46.8033 102.582 46.473 102.092C44.9495 100.053 43.7403 97.7976 42.8857 95.4001C42.4408 94.3685 42.2168 93.2553 42.228 92.1319C42.2392 91.0085 42.4855 89.8999 42.951 88.8774C43.5683 87.5816 44.0072 86.208 44.2554 84.7943C44.4441 84.1379 44.3832 83.4349 44.0846 82.8208C43.7859 82.2066 43.2706 81.7246 42.6379 81.4677C41.5057 80.9848 40.554 80.1581 39.9173 79.1047C39.2805 78.0512 38.9911 76.8243 39.0898 75.5973C39.1007 74.4223 39.0135 73.2485 38.8289 72.0881C38.7487 71.7562 38.6485 71.4295 38.5288 71.1097C38.4176 70.7396 38.1842 70.4182 37.8667 70.1978C37.5492 69.9775 37.1665 69.8713 36.7809 69.8965C35.0886 69.9003 33.3983 70.0093 31.7196 70.2226C30.5586 70.4009 29.3801 70.436 28.2106 70.327C27.8885 70.2891 27.5846 70.1576 27.3366 69.9487C26.4104 69.179 25.5104 68.4093 24.5711 67.6527C23.6077 66.9252 22.869 65.9407 22.4399 64.8124C22.0107 63.684 21.9084 62.4574 22.1449 61.2735C22.8006 56.6388 25.0132 52.365 28.4193 49.1544C28.7253 48.8542 29.0886 48.6187 29.4875 48.4618C29.8864 48.305 30.3127 48.2299 30.7412 48.2412H32.5283L32.5022 48.3456Z" fill="black"/>
<path d="M75.3324 87.5847C75.3306 89.7011 75.0204 91.8052 74.4121 93.8264C74.2114 94.4733 73.8802 95.069 73.4403 95.5742C73.0005 96.0795 72.4619 96.4829 71.8601 96.7579C71.2583 97.0329 70.6069 97.1733 69.9488 97.1698C69.2907 97.1663 68.6407 97.019 68.0417 96.7375C67.8772 96.6993 67.724 96.6209 67.595 96.5087C67.466 96.3966 67.365 96.2541 67.3005 96.0933C67.2361 95.9324 67.2101 95.758 67.2246 95.5846C67.2392 95.4111 67.294 95.2439 67.3844 95.0969C67.6936 94.2422 68.1246 93.4398 68.6632 92.7162C69.0204 92.2618 69.2604 91.7215 69.3607 91.1456C69.461 90.5697 69.4184 89.977 69.2369 89.4227C69.0702 88.7493 68.9819 88.0577 68.974 87.3627C68.9607 87.1515 68.9972 86.9402 69.0805 86.7468C69.1638 86.5534 69.2913 86.3838 69.4521 86.2525C70.5536 85.4135 71.5528 84.4401 72.4281 83.3537C72.6313 83.0453 72.8344 82.7616 73.0257 82.4532C73.2169 82.1448 73.5157 81.7624 74.0057 81.8365C74.4958 81.9105 74.6392 82.3299 74.7468 82.7369C75.1535 84.3181 75.3505 85.9489 75.3324 87.5847Z" fill="black"/>
<path d="M136.611 83.1557C133.7 83.1557 131.078 82.6373 128.745 81.6004C126.432 80.5436 124.597 78.9882 123.241 76.9343C121.905 74.8805 121.237 72.348 121.237 69.337C121.237 66.7448 121.716 64.6012 122.673 62.9063C123.63 61.2113 124.936 59.8554 126.591 58.8384C128.246 57.8215 130.111 57.0538 132.185 56.5353C134.278 55.9969 136.442 55.6081 138.675 55.3688C141.367 55.0896 143.551 54.8404 145.226 54.621C146.901 54.3817 148.117 54.0228 148.875 53.5442C149.653 53.0457 150.041 52.278 150.041 51.2411V51.0617C150.041 48.8084 149.373 47.0636 148.037 45.8273C146.701 44.591 144.777 43.9728 142.265 43.9728C139.613 43.9728 137.509 44.5511 135.953 45.7077C134.418 46.8642 133.381 48.2301 132.843 49.8054L122.733 48.3697C123.531 45.578 124.847 43.245 126.681 41.3706C128.516 39.4763 130.759 38.0605 133.411 37.1233C136.063 36.1662 138.994 35.6876 142.205 35.6876C144.418 35.6876 146.622 35.9468 148.815 36.4653C151.008 36.9837 153.012 37.8412 154.827 39.0376C156.642 40.2141 158.097 41.8193 159.194 43.8532C160.311 45.8871 160.869 48.4295 160.869 51.4804V82.2285H150.46V75.9174H150.101C149.443 77.1936 148.516 78.39 147.319 79.5067C146.143 80.6034 144.657 81.4907 142.863 82.1687C141.088 82.8267 139.004 83.1557 136.611 83.1557ZM139.423 75.1995C141.597 75.1995 143.481 74.7708 145.076 73.9134C146.671 73.036 147.898 71.8794 148.755 70.4437C149.633 69.008 150.071 67.4427 150.071 65.7478V60.334C149.732 60.6131 149.154 60.8723 148.336 61.1116C147.539 61.3509 146.642 61.5603 145.645 61.7397C144.647 61.9192 143.66 62.0787 142.683 62.2183C141.706 62.3579 140.859 62.4775 140.141 62.5772C138.526 62.7966 137.08 63.1555 135.804 63.654C134.528 64.1525 133.521 64.8505 132.783 65.7478C132.045 66.6251 131.676 67.7618 131.676 69.1576C131.676 71.1516 132.404 72.6571 133.86 73.6741C135.315 74.691 137.17 75.1995 139.423 75.1995ZM190.816 36.2858V44.6608H163.657V36.2858H190.816ZM170.446 82.2285V31.9488C170.446 28.858 171.084 26.2857 172.361 24.2318C173.657 22.178 175.392 20.6426 177.565 19.6256C179.739 18.6086 182.151 18.1002 184.803 18.1002C186.678 18.1002 188.343 18.2497 189.799 18.5488C191.254 18.8479 192.331 19.1171 193.029 19.3564L190.875 27.7314C190.417 27.5918 189.838 27.4522 189.141 27.3126C188.443 27.1531 187.665 27.0734 186.807 27.0734C184.793 27.0734 183.368 27.5619 182.53 28.539C181.713 29.4961 181.304 30.872 181.304 32.6666V82.2285H170.446ZM195.084 82.2285V36.2858H205.582V43.9429H206.061C206.898 41.2909 208.334 39.247 210.368 37.8113C212.422 36.3556 214.765 35.6278 217.397 35.6278C217.995 35.6278 218.663 35.6577 219.401 35.7175C220.159 35.7574 220.787 35.8272 221.285 35.9269V45.8871C220.827 45.7276 220.099 45.588 219.102 45.4684C218.125 45.3288 217.178 45.259 216.26 45.259C214.286 45.259 212.512 45.6877 210.936 46.5452C209.381 47.3827 208.155 48.5492 207.257 50.0447C206.36 51.5402 205.911 53.2651 205.911 55.2192V82.2285H195.084ZM242.416 83.1258C237.929 83.1258 234.041 82.1388 230.751 80.1647C227.46 78.1906 224.908 75.4288 223.094 71.8794C221.299 68.3301 220.402 64.1824 220.402 59.4366C220.402 54.6908 221.299 50.5332 223.094 46.9639C224.908 43.3946 227.46 40.6229 230.751 38.6488C234.041 36.6747 237.929 35.6876 242.416 35.6876C246.902 35.6876 250.791 36.6747 254.081 38.6488C257.371 40.6229 259.913 43.3946 261.708 46.9639C263.523 50.5332 264.43 54.6908 264.43 59.4366C264.43 64.1824 263.523 68.3301 261.708 71.8794C259.913 75.4288 257.371 78.1906 254.081 80.1647C250.791 82.1388 246.902 83.1258 242.416 83.1258ZM242.476 74.4518C244.908 74.4518 246.942 73.7838 248.577 72.4477C250.212 71.0918 251.429 69.2772 252.226 67.004C253.044 64.7308 253.453 62.1984 253.453 59.4067C253.453 56.5951 253.044 54.0527 252.226 51.7795C251.429 49.4864 250.212 47.6618 248.577 46.3059C246.942 44.9499 244.908 44.272 242.476 44.272C239.983 44.272 237.909 44.9499 236.254 46.3059C234.619 47.6618 233.393 49.4864 232.575 51.7795C231.778 54.0527 231.379 56.5951 231.379 59.4067C231.379 62.1984 231.778 64.7308 232.575 67.004C233.393 69.2772 234.619 71.0918 236.254 72.4477C237.909 73.7838 239.983 74.4518 242.476 74.4518ZM292.35 36.2858V44.6608H265.939V36.2858H292.35ZM272.46 25.2787H283.287V68.4098C283.287 69.8655 283.506 70.9821 283.945 71.7598C284.404 72.5175 285.002 73.036 285.74 73.3152C286.478 73.5943 287.295 73.7339 288.192 73.7339C288.87 73.7339 289.489 73.6841 290.047 73.5843C290.625 73.4846 291.064 73.3949 291.363 73.3152L293.188 81.7799C292.609 81.9793 291.782 82.1986 290.705 82.4379C289.648 82.6772 288.352 82.8168 286.817 82.8566C284.105 82.9364 281.662 82.5276 279.488 81.6303C277.315 80.713 275.59 79.2973 274.314 77.383C273.058 75.4687 272.44 73.0759 272.46 70.2045V25.2787ZM297.194 82.2285V36.2858H307.693V43.9429H308.171C309.009 41.2909 310.444 39.247 312.478 37.8113C314.532 36.3556 316.875 35.6278 319.507 35.6278C320.106 35.6278 320.774 35.6577 321.511 35.7175C322.269 35.7574 322.897 35.8272 323.396 35.9269V45.8871C322.937 45.7276 322.209 45.588 321.212 45.4684C320.235 45.3288 319.288 45.259 318.371 45.259C316.397 45.259 314.622 45.6877 313.047 46.5452C311.491 47.3827 310.265 48.5492 309.368 50.0447C308.47 51.5402 308.022 53.2651 308.022 55.2192V82.2285H297.194ZM338.776 83.1557C335.865 83.1557 333.242 82.6373 330.909 81.6004C328.596 80.5436 326.762 78.9882 325.406 76.9343C324.07 74.8805 323.402 72.348 323.402 69.337C323.402 66.7448 323.88 64.6012 324.837 62.9063C325.795 61.2113 327.101 59.8554 328.756 58.8384C330.411 57.8215 332.275 57.0538 334.349 56.5353C336.443 55.9969 338.606 55.6081 340.84 55.3688C343.532 55.0896 345.715 54.8404 347.39 54.621C349.065 54.3817 350.281 54.0228 351.039 53.5442C351.817 53.0457 352.206 52.278 352.206 51.2411V51.0617C352.206 48.8084 351.538 47.0636 350.202 45.8273C348.866 44.591 346.941 43.9728 344.429 43.9728C341.777 43.9728 339.673 44.5511 338.118 45.7077C336.582 46.8642 335.545 48.2301 335.007 49.8054L324.897 48.3697C325.695 45.578 327.011 43.245 328.845 41.3706C330.68 39.4763 332.923 38.0605 335.575 37.1233C338.227 36.1662 341.159 35.6876 344.369 35.6876C346.582 35.6876 348.786 35.9468 350.979 36.4653C353.173 36.9837 355.177 37.8412 356.991 39.0376C358.806 40.2141 360.262 41.8193 361.358 43.8532C362.475 45.8871 363.033 48.4295 363.033 51.4804V82.2285H352.624V75.9174H352.265C351.607 77.1936 350.68 78.39 349.484 79.5067C348.307 80.6034 346.822 81.4907 345.027 82.1687C343.252 82.8267 341.169 83.1557 338.776 83.1557ZM341.587 75.1995C343.761 75.1995 345.645 74.7708 347.241 73.9134C348.836 73.036 350.062 71.8794 350.92 70.4437C351.797 69.008 352.236 67.4427 352.236 65.7478V60.334C351.897 60.6131 351.318 60.8723 350.501 61.1116C349.703 61.3509 348.806 61.5603 347.809 61.7397C346.812 61.9192 345.825 62.0787 344.848 62.2183C343.871 62.3579 343.023 62.4775 342.305 62.5772C340.69 62.7966 339.244 63.1555 337.968 63.654C336.692 64.1525 335.685 64.8505 334.947 65.7478C334.209 66.6251 333.841 67.7618 333.841 69.1576C333.841 71.1516 334.568 72.6571 336.024 73.6741C337.48 74.691 339.334 75.1995 341.587 75.1995ZM380.537 55.309V82.2285H369.709V36.2858H380.058V44.0925H380.597C381.654 41.5202 383.339 39.4763 385.652 37.9608C387.985 36.4453 390.866 35.6876 394.296 35.6876C397.466 35.6876 400.228 36.3656 402.581 37.7215C404.954 39.0775 406.789 41.0416 408.085 43.6139C409.401 46.1862 410.049 49.3069 410.029 52.9759V82.2285H399.201V54.6509C399.201 51.5801 398.404 49.1773 396.808 47.4425C395.233 45.7077 393.05 44.8403 390.258 44.8403C388.364 44.8403 386.679 45.259 385.203 46.0965C383.747 46.9141 382.601 48.1005 381.763 49.6559C380.946 51.2112 380.537 53.0956 380.537 55.309ZM453.136 48.4295L443.266 49.5063C442.986 48.5093 442.498 47.5721 441.8 46.6947C441.122 45.8173 440.205 45.1095 439.048 44.5711C437.892 44.0327 436.476 43.7635 434.801 43.7635C432.548 43.7635 430.653 44.252 429.118 45.2291C427.602 46.2062 426.855 47.4724 426.875 49.0277C426.855 50.3637 427.343 51.4505 428.34 52.288C429.357 53.1255 431.032 53.8134 433.365 54.3518L441.202 56.0268C445.549 56.964 448.779 58.4496 450.893 60.4835C453.026 62.5174 454.103 65.1795 454.123 68.4696C454.103 71.361 453.256 73.9134 451.581 76.1268C449.926 78.3202 447.622 80.0351 444.671 81.2714C441.72 82.5077 438.33 83.1258 434.502 83.1258C428.879 83.1258 424.352 81.9493 420.922 79.5964C417.493 77.2235 415.449 73.9233 414.791 69.696L425.349 68.679C425.828 70.7528 426.845 72.3181 428.4 73.375C429.955 74.4318 431.979 74.9602 434.472 74.9602C437.044 74.9602 439.108 74.4318 440.663 73.375C442.239 72.3181 443.026 71.012 443.026 69.4567C443.026 68.1406 442.518 67.0539 441.501 66.1964C440.504 65.339 438.948 64.681 436.835 64.2223L428.998 62.5772C424.591 61.66 421.331 60.1146 419.217 57.9411C417.104 55.7477 416.057 52.9759 416.077 49.626C416.057 46.7944 416.825 44.3417 418.38 42.2679C419.955 40.1742 422.139 38.559 424.93 37.4224C427.742 36.2659 430.982 35.6876 434.651 35.6876C440.035 35.6876 444.273 36.8342 447.363 39.1273C450.474 41.4205 452.398 44.5212 453.136 48.4295ZM472.06 83.1557C469.149 83.1557 466.527 82.6373 464.194 81.6004C461.881 80.5436 460.046 78.9882 458.69 76.9343C457.354 74.8805 456.686 72.348 456.686 69.337C456.686 66.7448 457.165 64.6012 458.122 62.9063C459.079 61.2113 460.385 59.8554 462.04 58.8384C463.695 57.8215 465.56 57.0538 467.634 56.5353C469.727 55.9969 471.891 55.6081 474.124 55.3688C476.816 55.0896 479 54.8404 480.675 54.621C482.35 54.3817 483.566 54.0228 484.324 53.5442C485.101 53.0457 485.49 52.278 485.49 51.2411V51.0617C485.49 48.8084 484.822 47.0636 483.486 45.8273C482.15 44.591 480.226 43.9728 477.714 43.9728C475.062 43.9728 472.958 44.5511 471.402 45.7077C469.867 46.8642 468.83 48.2301 468.292 49.8054L458.182 48.3697C458.98 45.578 460.296 43.245 462.13 41.3706C463.965 39.4763 466.208 38.0605 468.86 37.1233C471.512 36.1662 474.443 35.6876 477.654 35.6876C479.867 35.6876 482.071 35.9468 484.264 36.4653C486.457 36.9837 488.461 37.8412 490.276 39.0376C492.091 40.2141 493.546 41.8193 494.643 43.8532C495.76 45.8871 496.318 48.4295 496.318 51.4804V82.2285H485.909V75.9174H485.55C484.892 77.1936 483.965 78.39 482.768 79.5067C481.592 80.6034 480.106 81.4907 478.312 82.1687C476.537 82.8267 474.453 83.1557 472.06 83.1557ZM474.872 75.1995C477.046 75.1995 478.93 74.7708 480.525 73.9134C482.12 73.036 483.347 71.8794 484.204 70.4437C485.082 69.008 485.52 67.4427 485.52 65.7478V60.334C485.181 60.6131 484.603 60.8723 483.785 61.1116C482.988 61.3509 482.09 61.5603 481.093 61.7397C480.096 61.9192 479.109 62.0787 478.132 62.2183C477.155 62.3579 476.308 62.4775 475.59 62.5772C473.975 62.7966 472.529 63.1555 471.253 63.654C469.977 64.1525 468.97 64.8505 468.232 65.7478C467.494 66.6251 467.125 67.7618 467.125 69.1576C467.125 71.1516 467.853 72.6571 469.309 73.6741C470.764 74.691 472.619 75.1995 474.872 75.1995ZM523.034 83.1258C518.448 83.1258 514.51 82.1188 511.219 80.1049C507.949 78.0909 505.427 75.3092 503.652 71.7598C501.897 68.1905 501.02 64.0827 501.02 59.4366C501.02 54.7706 501.917 50.6529 503.712 47.0836C505.506 43.4943 508.039 40.7026 511.309 38.7086C514.599 36.6946 518.488 35.6876 522.974 35.6876C526.703 35.6876 530.003 36.3756 532.875 37.7514C535.766 39.1074 538.069 41.0316 539.784 43.5242C541.499 45.9968 542.476 48.8882 542.715 52.1983H532.366C531.947 49.9849 530.95 48.1404 529.375 46.6648C527.82 45.1693 525.736 44.4215 523.124 44.4215C520.91 44.4215 518.966 45.0197 517.291 46.2161C515.616 47.3926 514.31 49.0876 513.373 51.3009C512.456 53.5143 511.997 56.1664 511.997 59.2572C511.997 62.3878 512.456 65.0798 513.373 67.333C514.29 69.5664 515.576 71.2912 517.231 72.5076C518.906 73.704 520.871 74.3022 523.124 74.3022C524.719 74.3022 526.145 74.0031 527.401 73.4049C528.677 72.7867 529.744 71.8994 530.601 70.7428C531.459 69.5863 532.047 68.1805 532.366 66.5254H542.715C542.456 69.7757 541.499 72.6571 539.844 75.1696C538.189 77.6622 535.936 79.6163 533.084 81.0321C530.233 82.4279 526.883 83.1258 523.034 83.1258ZM570.336 36.2858V44.6608H543.925V36.2858H570.336ZM550.446 25.2787H561.273V68.4098C561.273 69.8655 561.493 70.9821 561.931 71.7598C562.39 72.5175 562.988 73.036 563.726 73.3152C564.464 73.5943 565.281 73.7339 566.179 73.7339C566.857 73.7339 567.475 73.6841 568.033 73.5843C568.611 73.4846 569.05 73.3949 569.349 73.3152L571.174 81.7799C570.595 81.9793 569.768 82.1986 568.691 82.4379C567.634 82.6772 566.338 82.8168 564.803 82.8566C562.091 82.9364 559.648 82.5276 557.475 81.6303C555.301 80.713 553.576 79.2973 552.3 77.383C551.044 75.4687 550.426 73.0759 550.446 70.2045V25.2787Z" fill="black"/>
<path d="M206.186 109V103.155L201.123 94.6554L203.037 94.5319L207.071 101.92L210.982 94.5319L212.896 94.6554L207.956 103.155V109H206.186ZM211.871 103.464C211.871 102.49 211.954 101.646 212.118 100.932C212.283 100.205 212.55 99.6153 212.921 99.1625C213.291 98.6961 213.785 98.3462 214.403 98.1129C215.02 97.8797 215.782 97.7631 216.687 97.7631C217.593 97.7631 218.354 97.8797 218.972 98.1129C219.603 98.3462 220.103 98.6961 220.474 99.1625C220.844 99.6153 221.112 100.205 221.277 100.932C221.441 101.646 221.524 102.49 221.524 103.464C221.524 104.465 221.434 105.33 221.256 106.057C221.078 106.784 220.796 107.381 220.412 107.847C220.028 108.3 219.527 108.643 218.91 108.877C218.306 109.096 217.565 109.206 216.687 109.206C215.823 109.206 215.082 109.096 214.464 108.877C213.861 108.643 213.367 108.3 212.983 107.847C212.598 107.381 212.317 106.784 212.139 106.057C211.96 105.33 211.871 104.465 211.871 103.464ZM213.621 103.464C213.621 104.548 213.724 105.412 213.929 106.057C214.149 106.702 214.485 107.168 214.938 107.456C215.391 107.731 215.974 107.868 216.687 107.868C217.414 107.868 218.004 107.731 218.457 107.456C218.91 107.168 219.239 106.702 219.445 106.057C219.651 105.412 219.754 104.548 219.754 103.464C219.754 102.394 219.658 101.543 219.465 100.912C219.287 100.267 218.972 99.8074 218.519 99.533C218.066 99.2449 217.455 99.1008 216.687 99.1008C215.933 99.1008 215.329 99.2449 214.876 99.533C214.423 99.8074 214.101 100.267 213.909 100.912C213.717 101.543 213.621 102.394 213.621 103.464ZM226.585 109.206C225.968 109.206 225.433 109.096 224.98 108.877C224.527 108.657 224.177 108.328 223.93 107.889C223.683 107.436 223.56 106.873 223.56 106.201V97.9689H225.289V105.851C225.289 106.455 225.453 106.921 225.783 107.251C226.112 107.58 226.599 107.745 227.244 107.745C227.587 107.745 227.916 107.71 228.232 107.642C228.561 107.559 228.883 107.45 229.199 107.312C229.528 107.175 229.857 107.017 230.187 106.839V97.9689H231.916V106.592C231.916 106.866 231.95 107.093 232.018 107.271C232.087 107.436 232.176 107.553 232.286 107.621C232.409 107.69 232.54 107.724 232.677 107.724C232.869 107.724 233.054 107.683 233.233 107.601L233.418 108.856C233.294 108.925 233.157 108.986 233.006 109.041C232.855 109.096 232.698 109.137 232.533 109.165C232.368 109.192 232.197 109.206 232.018 109.206C231.648 109.206 231.319 109.11 231.031 108.918C230.742 108.712 230.537 108.417 230.413 108.033C230.002 108.266 229.59 108.472 229.178 108.65C228.767 108.828 228.348 108.966 227.923 109.062C227.511 109.158 227.065 109.206 226.585 109.206ZM236.379 97.9689V99.3272C236.791 98.9567 237.175 98.6618 237.532 98.4422C237.889 98.209 238.252 98.0375 238.623 97.9277C238.993 97.818 239.377 97.7631 239.775 97.7631C240.063 97.7631 240.345 97.7837 240.619 97.8248C240.893 97.866 241.147 97.9209 241.38 97.9895L241.092 99.5536C240.845 99.485 240.585 99.4369 240.31 99.4095C240.05 99.3683 239.803 99.3478 239.569 99.3478C239.089 99.3478 238.595 99.4507 238.088 99.6565C237.594 99.8486 237.072 100.198 236.523 100.706V109H234.815V97.9689H236.379ZM247.849 102.044C247.849 100.315 248.083 98.8881 248.549 97.7631C249.029 96.638 249.729 95.7942 250.648 95.2317C251.581 94.6691 252.741 94.3879 254.126 94.3879C254.511 94.3879 254.888 94.4016 255.258 94.429C255.629 94.4565 255.985 94.4976 256.328 94.5525C256.685 94.5937 257.028 94.6554 257.357 94.7377C257.687 94.8063 258.009 94.8887 258.325 94.9847L257.995 96.4253C257.364 96.247 256.733 96.1166 256.102 96.0343C255.485 95.952 254.867 95.9108 254.25 95.9108C253.235 95.9108 252.384 96.1372 251.698 96.59C251.012 97.029 250.497 97.7013 250.154 98.6069C249.811 99.5124 249.64 100.665 249.64 102.064C249.64 103.368 249.804 104.445 250.134 105.296C250.463 106.132 250.95 106.757 251.595 107.168C252.24 107.566 253.029 107.765 253.962 107.765C254.607 107.765 255.197 107.731 255.732 107.662C256.28 107.594 256.774 107.484 257.213 107.333V103.073H253.776V101.653H258.819V108.362C258.188 108.636 257.433 108.849 256.555 109C255.69 109.137 254.764 109.206 253.776 109.206C252.459 109.206 251.362 108.945 250.484 108.424C249.619 107.902 248.961 107.113 248.508 106.057C248.069 104.987 247.849 103.649 247.849 102.044ZM262.892 93.7705V105.954C262.892 106.434 262.94 106.805 263.036 107.065C263.146 107.312 263.29 107.477 263.468 107.559C263.661 107.642 263.866 107.683 264.086 107.683C264.237 107.683 264.395 107.669 264.559 107.642C264.738 107.614 264.923 107.566 265.115 107.498L265.3 108.877C265.067 108.973 264.806 109.048 264.518 109.103C264.23 109.172 263.935 109.206 263.633 109.206C263.125 109.206 262.686 109.117 262.316 108.938C261.945 108.76 261.664 108.444 261.472 107.992C261.28 107.539 261.184 106.908 261.184 106.098V93.7705H262.892ZM265.915 103.464C265.915 102.49 265.997 101.646 266.162 100.932C266.327 100.205 266.594 99.6153 266.965 99.1625C267.335 98.6961 267.829 98.3462 268.446 98.1129C269.064 97.8797 269.825 97.7631 270.731 97.7631C271.636 97.7631 272.398 97.8797 273.015 98.1129C273.646 98.3462 274.147 98.6961 274.518 99.1625C274.888 99.6153 275.156 100.205 275.32 100.932C275.485 101.646 275.567 102.49 275.567 103.464C275.567 104.465 275.478 105.33 275.3 106.057C275.121 106.784 274.84 107.381 274.456 107.847C274.072 108.3 273.571 108.643 272.954 108.877C272.35 109.096 271.609 109.206 270.731 109.206C269.867 109.206 269.126 109.096 268.508 108.877C267.905 108.643 267.411 108.3 267.026 107.847C266.642 107.381 266.361 106.784 266.183 106.057C266.004 105.33 265.915 104.465 265.915 103.464ZM267.664 103.464C267.664 104.548 267.767 105.412 267.973 106.057C268.193 106.702 268.529 107.168 268.982 107.456C269.434 107.731 270.017 107.868 270.731 107.868C271.458 107.868 272.048 107.731 272.501 107.456C272.954 107.168 273.283 106.702 273.489 106.057C273.694 105.412 273.797 104.548 273.797 103.464C273.797 102.394 273.701 101.543 273.509 100.912C273.331 100.267 273.015 99.8074 272.563 99.533C272.11 99.2449 271.499 99.1008 270.731 99.1008C269.976 99.1008 269.373 99.2449 268.92 99.533C268.467 99.8074 268.145 100.267 267.953 100.912C267.76 101.543 267.664 102.394 267.664 103.464ZM277.644 108.712V93.7705H279.353V98.9567C279.97 98.5451 280.567 98.2433 281.143 98.0512C281.719 97.8591 282.302 97.7631 282.892 97.7631C284.086 97.7631 284.998 98.2296 285.63 99.1625C286.274 100.096 286.597 101.44 286.597 103.196C286.597 104.61 286.418 105.762 286.062 106.654C285.705 107.532 285.149 108.177 284.395 108.588C283.64 109 282.666 109.206 281.472 109.206C280.923 109.206 280.334 109.165 279.702 109.082C279.071 109 278.385 108.877 277.644 108.712ZM279.353 107.662C279.792 107.745 280.183 107.813 280.526 107.868C280.869 107.909 281.191 107.93 281.493 107.93C282.261 107.93 282.885 107.779 283.366 107.477C283.86 107.175 284.223 106.688 284.456 106.016C284.703 105.33 284.827 104.424 284.827 103.299C284.827 102.394 284.724 101.646 284.518 101.056C284.326 100.452 284.038 99.9995 283.654 99.6976C283.283 99.3821 282.831 99.2243 282.296 99.2243C281.98 99.2243 281.664 99.2586 281.349 99.3272C281.047 99.3958 280.731 99.5056 280.402 99.6565C280.087 99.7937 279.737 99.9926 279.353 100.253V107.662ZM287.758 106.345C287.758 105.687 287.895 105.145 288.169 104.719C288.444 104.294 288.862 103.958 289.425 103.711C289.987 103.45 290.68 103.251 291.504 103.114C292.327 102.963 293.28 102.84 294.364 102.744V101.2C294.364 100.569 294.158 100.089 293.747 99.7594C293.335 99.4164 292.718 99.2449 291.895 99.2449C291.62 99.2449 291.311 99.2586 290.968 99.286C290.625 99.3135 290.269 99.3615 289.898 99.4301C289.528 99.4987 289.144 99.5947 288.746 99.7182L288.437 98.3187C289.027 98.1404 289.631 98.0032 290.248 97.9071C290.866 97.8111 291.449 97.7631 291.997 97.7631C292.903 97.7631 293.658 97.8934 294.261 98.1541C294.879 98.4011 295.338 98.7784 295.64 99.286C295.956 99.7937 296.114 100.425 296.114 101.179V106.53C296.114 106.983 296.175 107.292 296.299 107.456C296.436 107.607 296.614 107.683 296.834 107.683C296.916 107.683 297.005 107.676 297.101 107.662C297.197 107.649 297.3 107.621 297.41 107.58L297.595 108.856C297.39 108.966 297.17 109.048 296.937 109.103C296.717 109.172 296.484 109.206 296.237 109.206C295.743 109.206 295.352 109.082 295.064 108.835C294.776 108.575 294.591 108.184 294.508 107.662C294.179 107.923 293.809 108.177 293.397 108.424C292.999 108.657 292.56 108.849 292.08 109C291.613 109.137 291.099 109.206 290.536 109.206C290.111 109.206 289.727 109.144 289.384 109.021C289.054 108.897 288.766 108.719 288.519 108.485C288.272 108.239 288.08 107.937 287.943 107.58C287.82 107.223 287.758 106.812 287.758 106.345ZM289.507 106.201C289.507 106.791 289.651 107.237 289.939 107.539C290.241 107.827 290.639 107.971 291.133 107.971C291.517 107.971 291.901 107.909 292.286 107.786C292.67 107.662 293.04 107.498 293.397 107.292C293.767 107.072 294.09 106.825 294.364 106.551V103.773C293.637 103.841 292.972 103.923 292.368 104.02C291.778 104.102 291.263 104.232 290.824 104.411C290.399 104.589 290.07 104.822 289.836 105.11C289.617 105.398 289.507 105.762 289.507 106.201ZM300.596 93.7705V105.954C300.596 106.434 300.644 106.805 300.74 107.065C300.85 107.312 300.994 107.477 301.172 107.559C301.365 107.642 301.57 107.683 301.79 107.683C301.941 107.683 302.099 107.669 302.263 107.642C302.442 107.614 302.627 107.566 302.819 107.498L303.004 108.877C302.771 108.973 302.51 109.048 302.222 109.103C301.934 109.172 301.639 109.206 301.337 109.206C300.829 109.206 300.39 109.117 300.02 108.938C299.65 108.76 299.368 108.444 299.176 107.992C298.984 107.539 298.888 106.908 298.888 106.098V93.7705H300.596ZM309.39 102.044C309.39 100.315 309.623 98.8881 310.089 97.7631C310.57 96.638 311.269 95.7942 312.189 95.2317C313.122 94.6691 314.281 94.3879 315.667 94.3879C316.051 94.3879 316.428 94.4016 316.799 94.429C317.169 94.4565 317.526 94.4976 317.869 94.5525C318.226 94.5937 318.569 94.6554 318.898 94.7377C319.227 94.8063 319.55 94.8887 319.865 94.9847L319.536 96.4253C318.905 96.247 318.274 96.1166 317.642 96.0343C317.025 95.952 316.408 95.9108 315.79 95.9108C314.775 95.9108 313.924 96.1372 313.238 96.59C312.552 97.029 312.038 97.7013 311.695 98.6069C311.352 99.5124 311.18 100.665 311.18 102.064C311.18 103.368 311.345 104.445 311.674 105.296C312.003 106.132 312.49 106.757 313.135 107.168C313.78 107.566 314.569 107.765 315.502 107.765C316.147 107.765 316.737 107.731 317.272 107.662C317.821 107.594 318.315 107.484 318.754 107.333V103.073H315.317V101.653H320.359V108.362C319.728 108.636 318.973 108.849 318.095 109C317.231 109.137 316.305 109.206 315.317 109.206C314 109.206 312.902 108.945 312.024 108.424C311.16 107.902 310.501 107.113 310.048 106.057C309.609 104.987 309.39 103.649 309.39 102.044ZM322.126 106.345C322.126 105.687 322.263 105.145 322.537 104.719C322.812 104.294 323.23 103.958 323.793 103.711C324.355 103.45 325.048 103.251 325.871 103.114C326.694 102.963 327.648 102.84 328.732 102.744V101.2C328.732 100.569 328.526 100.089 328.115 99.7594C327.703 99.4164 327.085 99.2449 326.262 99.2449C325.988 99.2449 325.679 99.2586 325.336 99.286C324.993 99.3135 324.636 99.3615 324.266 99.4301C323.896 99.4987 323.511 99.5947 323.113 99.7182L322.805 98.3187C323.395 98.1404 323.998 98.0032 324.616 97.9071C325.233 97.8111 325.816 97.7631 326.365 97.7631C327.271 97.7631 328.025 97.8934 328.629 98.1541C329.246 98.4011 329.706 98.7784 330.008 99.286C330.323 99.7937 330.481 100.425 330.481 101.179V106.53C330.481 106.983 330.543 107.292 330.666 107.456C330.804 107.607 330.982 107.683 331.202 107.683C331.284 107.683 331.373 107.676 331.469 107.662C331.565 107.649 331.668 107.621 331.778 107.58L331.963 108.856C331.757 108.966 331.538 109.048 331.304 109.103C331.085 109.172 330.852 109.206 330.605 109.206C330.111 109.206 329.72 109.082 329.432 108.835C329.144 108.575 328.958 108.184 328.876 107.662C328.547 107.923 328.176 108.177 327.765 108.424C327.367 108.657 326.928 108.849 326.448 109C325.981 109.137 325.467 109.206 324.904 109.206C324.479 109.206 324.094 109.144 323.751 109.021C323.422 108.897 323.134 108.719 322.887 108.485C322.64 108.239 322.448 107.937 322.311 107.58C322.187 107.223 322.126 106.812 322.126 106.345ZM323.875 106.201C323.875 106.791 324.019 107.237 324.307 107.539C324.609 107.827 325.007 107.971 325.501 107.971C325.885 107.971 326.269 107.909 326.653 107.786C327.037 107.662 327.408 107.498 327.765 107.292C328.135 107.072 328.458 106.825 328.732 106.551V103.773C328.005 103.841 327.339 103.923 326.736 104.02C326.146 104.102 325.631 104.232 325.192 104.411C324.767 104.589 324.437 104.822 324.204 105.11C323.985 105.398 323.875 105.762 323.875 106.201ZM336.76 109.206C336.088 109.206 335.525 109.082 335.073 108.835C334.634 108.575 334.304 108.191 334.085 107.683C333.879 107.161 333.776 106.517 333.776 105.748V99.2654H331.883V98.1129L333.776 97.9689L334.002 95.3552H335.505V97.9689H339.189V99.2654H335.505V105.625C335.505 106.366 335.642 106.901 335.916 107.23C336.205 107.559 336.671 107.724 337.316 107.724C337.645 107.724 337.974 107.697 338.304 107.642C338.633 107.573 338.962 107.491 339.292 107.395L339.539 108.732C339.031 108.897 338.544 109.014 338.077 109.082C337.611 109.165 337.172 109.206 336.76 109.206ZM344.952 109.206C344.197 109.206 343.525 109.103 342.935 108.897C342.345 108.691 341.844 108.369 341.432 107.93C341.035 107.491 340.726 106.928 340.506 106.242C340.301 105.556 340.198 104.733 340.198 103.773C340.198 102.661 340.321 101.721 340.568 100.953C340.829 100.171 341.192 99.5467 341.659 99.0802C342.125 98.6137 342.66 98.2776 343.264 98.0718C343.882 97.866 344.554 97.7631 345.281 97.7631C346.681 97.7631 347.723 98.1404 348.409 98.895C349.095 99.6359 349.438 100.843 349.438 102.517C349.438 102.599 349.431 102.716 349.418 102.867C349.418 103.018 349.411 103.162 349.397 103.299C349.109 103.313 348.718 103.34 348.224 103.382C347.744 103.423 347.181 103.464 346.536 103.505C345.892 103.546 345.185 103.58 344.417 103.608C343.648 103.635 342.839 103.656 341.988 103.67C341.974 103.738 341.968 103.807 341.968 103.875C341.968 103.944 341.968 104.02 341.968 104.102C341.968 104.994 342.091 105.714 342.338 106.263C342.599 106.798 342.969 107.189 343.449 107.436C343.943 107.683 344.54 107.806 345.24 107.806C345.679 107.806 346.125 107.786 346.578 107.745C347.03 107.69 347.463 107.621 347.874 107.539C348.299 107.456 348.691 107.374 349.047 107.292L349.274 108.588C348.903 108.712 348.485 108.822 348.018 108.918C347.565 109.014 347.085 109.082 346.578 109.123C346.07 109.178 345.528 109.206 344.952 109.206ZM342.009 102.476C342.667 102.476 343.298 102.469 343.902 102.455C344.52 102.428 345.082 102.401 345.59 102.373C346.111 102.346 346.55 102.318 346.907 102.291C347.264 102.263 347.524 102.243 347.689 102.229C347.675 101.461 347.579 100.843 347.401 100.377C347.222 99.9103 346.948 99.5742 346.578 99.3683C346.207 99.1488 345.734 99.0391 345.158 99.0391C344.801 99.0391 344.451 99.0939 344.108 99.2037C343.765 99.2997 343.443 99.4781 343.141 99.7388C342.853 99.9858 342.606 100.336 342.4 100.788C342.208 101.227 342.077 101.79 342.009 102.476ZM353.197 109L350.254 98.0306L351.962 97.9277L354.226 107.21L356.613 97.9689H358.424L360.832 107.21L363.096 97.9277L364.804 98.0306L361.799 109H359.906L357.498 100.068L355.131 109H353.197ZM365.397 106.345C365.397 105.687 365.534 105.145 365.808 104.719C366.083 104.294 366.501 103.958 367.064 103.711C367.626 103.45 368.319 103.251 369.142 103.114C369.966 102.963 370.919 102.84 372.003 102.744V101.2C372.003 100.569 371.797 100.089 371.386 99.7594C370.974 99.4164 370.357 99.2449 369.533 99.2449C369.259 99.2449 368.95 99.2586 368.607 99.286C368.264 99.3135 367.908 99.3615 367.537 99.4301C367.167 99.4987 366.783 99.5947 366.385 99.7182L366.076 98.3187C366.666 98.1404 367.27 98.0032 367.887 97.9071C368.504 97.8111 369.088 97.7631 369.636 97.7631C370.542 97.7631 371.297 97.8934 371.9 98.1541C372.518 98.4011 372.977 98.7784 373.279 99.286C373.595 99.7937 373.752 100.425 373.752 101.179V106.53C373.752 106.983 373.814 107.292 373.938 107.456C374.075 107.607 374.253 107.683 374.473 107.683C374.555 107.683 374.644 107.676 374.74 107.662C374.836 107.649 374.939 107.621 375.049 107.58L375.234 108.856C375.028 108.966 374.809 109.048 374.576 109.103C374.356 109.172 374.123 109.206 373.876 109.206C373.382 109.206 372.991 109.082 372.703 108.835C372.415 108.575 372.23 108.184 372.147 107.662C371.818 107.923 371.447 108.177 371.036 108.424C370.638 108.657 370.199 108.849 369.719 109C369.252 109.137 368.738 109.206 368.175 109.206C367.75 109.206 367.366 109.144 367.023 109.021C366.693 108.897 366.405 108.719 366.158 108.485C365.911 108.239 365.719 107.937 365.582 107.58C365.459 107.223 365.397 106.812 365.397 106.345ZM367.146 106.201C367.146 106.791 367.29 107.237 367.578 107.539C367.88 107.827 368.278 107.971 368.772 107.971C369.156 107.971 369.54 107.909 369.925 107.786C370.309 107.662 370.679 107.498 371.036 107.292C371.406 107.072 371.729 106.825 372.003 106.551V103.773C371.276 103.841 370.611 103.923 370.007 104.02C369.417 104.102 368.902 104.232 368.463 104.411C368.038 104.589 367.709 104.822 367.475 105.11C367.256 105.398 367.146 105.762 367.146 106.201ZM378.084 113.281L379.483 109H379.154L374.914 97.9895L376.766 97.8866L380.183 107.436L383.146 97.8866L384.916 97.9895L379.833 113.384L378.084 113.281ZM395.708 109.206C395.036 109.206 394.473 109.082 394.02 108.835C393.581 108.575 393.252 108.191 393.032 107.683C392.827 107.161 392.724 106.517 392.724 105.748V99.2654H390.83V98.1129L392.724 97.9689L392.95 95.3552H394.453V97.9689H398.136V99.2654H394.453V105.625C394.453 106.366 394.59 106.901 394.864 107.23C395.152 107.559 395.619 107.724 396.264 107.724C396.593 107.724 396.922 107.697 397.251 107.642C397.581 107.573 397.91 107.491 398.239 107.395L398.486 108.732C397.979 108.897 397.492 109.014 397.025 109.082C396.559 109.165 396.12 109.206 395.708 109.206ZM399.145 103.464C399.145 102.49 399.228 101.646 399.392 100.932C399.557 100.205 399.825 99.6153 400.195 99.1625C400.565 98.6961 401.059 98.3462 401.677 98.1129C402.294 97.8797 403.056 97.7631 403.961 97.7631C404.867 97.7631 405.628 97.8797 406.246 98.1129C406.877 98.3462 407.378 98.6961 407.748 99.1625C408.118 99.6153 408.386 100.205 408.551 100.932C408.715 101.646 408.798 102.49 408.798 103.464C408.798 104.465 408.708 105.33 408.53 106.057C408.352 106.784 408.07 107.381 407.686 107.847C407.302 108.3 406.801 108.643 406.184 108.877C405.58 109.096 404.839 109.206 403.961 109.206C403.097 109.206 402.356 109.096 401.739 108.877C401.135 108.643 400.641 108.3 400.257 107.847C399.873 107.381 399.591 106.784 399.413 106.057C399.235 105.33 399.145 104.465 399.145 103.464ZM400.895 103.464C400.895 104.548 400.998 105.412 401.203 106.057C401.423 106.702 401.759 107.168 402.212 107.456C402.665 107.731 403.248 107.868 403.961 107.868C404.688 107.868 405.278 107.731 405.731 107.456C406.184 107.168 406.513 106.702 406.719 106.057C406.925 105.412 407.028 104.548 407.028 103.464C407.028 102.394 406.932 101.543 406.74 100.912C406.561 100.267 406.246 99.8074 405.793 99.533C405.34 99.2449 404.73 99.1008 403.961 99.1008C403.207 99.1008 402.603 99.2449 402.15 99.533C401.697 99.8074 401.375 100.267 401.183 100.912C400.991 101.543 400.895 102.394 400.895 103.464ZM415.091 109L420.03 94.4496H422.026L426.986 109H425.031L423.796 105.275H418.178L416.943 109H415.091ZM418.548 103.793H423.446L420.997 96.1784L418.548 103.793ZM428.721 109V100.171H426.993V99.0185L428.721 98.8744V98.4216C428.721 97.2966 428.865 96.3773 429.154 95.6639C429.442 94.9504 429.86 94.4222 430.409 94.0792C430.972 93.7362 431.658 93.5647 432.467 93.5647C432.906 93.5647 433.331 93.599 433.743 93.6676C434.168 93.7362 434.621 93.8459 435.101 93.9968L434.854 95.2728C434.498 95.1631 434.155 95.0808 433.825 95.0259C433.496 94.971 433.167 94.9436 432.838 94.9436C432.042 94.9436 431.438 95.218 431.026 95.7668C430.629 96.3019 430.43 97.1937 430.43 98.4422V98.8744H433.722V100.171H430.409V109H428.721ZM436.798 97.9689V99.3272C437.209 98.9567 437.593 98.6618 437.95 98.4422C438.307 98.209 438.67 98.0375 439.041 97.9277C439.411 97.818 439.796 97.7631 440.193 97.7631C440.482 97.7631 440.763 97.7837 441.037 97.8248C441.312 97.866 441.565 97.9209 441.799 97.9895L441.511 99.5536C441.264 99.485 441.003 99.4369 440.729 99.4095C440.468 99.3683 440.221 99.3478 439.988 99.3478C439.507 99.3478 439.013 99.4507 438.506 99.6565C438.012 99.8486 437.491 100.198 436.942 100.706V109H435.234V97.9689H436.798ZM444.017 95.7462C443.632 95.7462 443.358 95.6776 443.193 95.5404C443.029 95.4032 442.946 95.1631 442.946 94.8201C442.946 94.4633 443.022 94.2164 443.173 94.0792C443.337 93.942 443.619 93.8734 444.017 93.8734C444.401 93.8734 444.668 93.942 444.819 94.0792C444.984 94.2164 445.066 94.4633 445.066 94.8201C445.066 95.1631 444.984 95.4032 444.819 95.5404C444.668 95.6776 444.401 95.7462 444.017 95.7462ZM443.152 109V97.9689H444.86V109H443.152ZM446.939 103.649C446.939 102.318 447.138 101.221 447.535 100.356C447.933 99.4781 448.516 98.8264 449.285 98.4011C450.067 97.9757 451.007 97.7631 452.104 97.7631C452.461 97.7631 452.832 97.7837 453.216 97.8248C453.6 97.8523 453.977 97.8934 454.348 97.9483C454.732 98.0032 455.075 98.0786 455.377 98.1747L455.13 99.6153C454.828 99.5467 454.512 99.4918 454.183 99.4507C453.854 99.3958 453.524 99.3546 453.195 99.3272C452.866 99.286 452.55 99.2654 452.248 99.2654C451.494 99.2654 450.849 99.4301 450.314 99.7594C449.792 100.075 449.395 100.555 449.12 101.2C448.846 101.831 448.709 102.648 448.709 103.649C448.709 104.568 448.846 105.33 449.12 105.934C449.395 106.523 449.799 106.969 450.334 107.271C450.87 107.559 451.514 107.703 452.269 107.703C452.585 107.703 452.914 107.69 453.257 107.662C453.6 107.635 453.943 107.594 454.286 107.539C454.643 107.47 454.979 107.402 455.294 107.333L455.562 108.732C455.068 108.87 454.485 108.979 453.813 109.062C453.154 109.158 452.523 109.206 451.919 109.206C450.273 109.206 449.031 108.753 448.194 107.847C447.357 106.942 446.939 105.542 446.939 103.649ZM456.602 106.345C456.602 105.687 456.739 105.145 457.014 104.719C457.288 104.294 457.706 103.958 458.269 103.711C458.832 103.45 459.524 103.251 460.348 103.114C461.171 102.963 462.124 102.84 463.208 102.744V101.2C463.208 100.569 463.003 100.089 462.591 99.7594C462.179 99.4164 461.562 99.2449 460.739 99.2449C460.464 99.2449 460.156 99.2586 459.813 99.286C459.47 99.3135 459.113 99.3615 458.742 99.4301C458.372 99.4987 457.988 99.5947 457.59 99.7182L457.281 98.3187C457.871 98.1404 458.475 98.0032 459.092 97.9071C459.71 97.8111 460.293 97.7631 460.842 97.7631C461.747 97.7631 462.502 97.8934 463.105 98.1541C463.723 98.4011 464.182 98.7784 464.484 99.286C464.8 99.7937 464.958 100.425 464.958 101.179V106.53C464.958 106.983 465.019 107.292 465.143 107.456C465.28 107.607 465.458 107.683 465.678 107.683C465.76 107.683 465.849 107.676 465.946 107.662C466.042 107.649 466.144 107.621 466.254 107.58L466.439 108.856C466.234 108.966 466.014 109.048 465.781 109.103C465.561 109.172 465.328 109.206 465.081 109.206C464.587 109.206 464.196 109.082 463.908 108.835C463.62 108.575 463.435 108.184 463.352 107.662C463.023 107.923 462.653 108.177 462.241 108.424C461.843 108.657 461.404 108.849 460.924 109C460.457 109.137 459.943 109.206 459.38 109.206C458.955 109.206 458.571 109.144 458.228 109.021C457.899 108.897 457.61 108.719 457.363 108.485C457.116 108.239 456.924 107.937 456.787 107.58C456.664 107.223 456.602 106.812 456.602 106.345ZM458.351 106.201C458.351 106.791 458.495 107.237 458.784 107.539C459.085 107.827 459.483 107.971 459.977 107.971C460.361 107.971 460.746 107.909 461.13 107.786C461.514 107.662 461.884 107.498 462.241 107.292C462.611 107.072 462.934 106.825 463.208 106.551V103.773C462.481 103.841 461.816 103.923 461.212 104.02C460.622 104.102 460.108 104.232 459.668 104.411C459.243 104.589 458.914 104.822 458.681 105.11C458.461 105.398 458.351 105.762 458.351 106.201ZM467.853 109V97.9689H469.417V98.9362C469.87 98.6892 470.302 98.4765 470.713 98.2982C471.139 98.1198 471.564 97.9895 471.989 97.9071C472.428 97.8111 472.888 97.7631 473.368 97.7631C474.041 97.7631 474.603 97.8797 475.056 98.1129C475.509 98.3462 475.852 98.6892 476.085 99.142C476.318 99.581 476.435 100.13 476.435 100.788V109H474.727V101.262C474.727 100.603 474.555 100.102 474.212 99.7594C473.883 99.4026 473.375 99.2243 472.689 99.2243C472.319 99.2243 471.962 99.2654 471.619 99.3478C471.276 99.4301 470.94 99.5399 470.611 99.6771C470.281 99.8005 469.931 99.9583 469.561 100.15V109H467.853ZM493.802 96.1784H489.377V109H487.607V96.1784H483.182V94.5937H493.802V96.1784ZM495.826 97.9689V99.3272C496.237 98.9567 496.622 98.6618 496.978 98.4422C497.335 98.209 497.699 98.0375 498.069 97.9277C498.439 97.818 498.824 97.7631 499.222 97.7631C499.51 97.7631 499.791 97.7837 500.065 97.8248C500.34 97.866 500.594 97.9209 500.827 97.9895L500.539 99.5536C500.292 99.485 500.031 99.4369 499.757 99.4095C499.496 99.3683 499.249 99.3478 499.016 99.3478C498.535 99.3478 498.042 99.4507 497.534 99.6565C497.04 99.8486 496.519 100.198 495.97 100.706V109H494.262V97.9689H495.826ZM505.757 109.206C505.002 109.206 504.33 109.103 503.74 108.897C503.15 108.691 502.649 108.369 502.237 107.93C501.839 107.491 501.531 106.928 501.311 106.242C501.105 105.556 501.003 104.733 501.003 103.773C501.003 102.661 501.126 101.721 501.373 100.953C501.634 100.171 501.997 99.5467 502.464 99.0802C502.93 98.6137 503.465 98.2776 504.069 98.0718C504.686 97.866 505.359 97.7631 506.086 97.7631C507.485 97.7631 508.528 98.1404 509.214 98.895C509.9 99.6359 510.243 100.843 510.243 102.517C510.243 102.599 510.236 102.716 510.223 102.867C510.223 103.018 510.216 103.162 510.202 103.299C509.914 103.313 509.523 103.34 509.029 103.382C508.549 103.423 507.986 103.464 507.341 103.505C506.696 103.546 505.99 103.58 505.222 103.608C504.453 103.635 503.644 103.656 502.793 103.67C502.779 103.738 502.772 103.807 502.772 103.875C502.772 103.944 502.772 104.02 502.772 104.102C502.772 104.994 502.896 105.714 503.143 106.263C503.404 106.798 503.774 107.189 504.254 107.436C504.748 107.683 505.345 107.806 506.045 107.806C506.484 107.806 506.93 107.786 507.382 107.745C507.835 107.69 508.267 107.621 508.679 107.539C509.104 107.456 509.495 107.374 509.852 107.292L510.079 108.588C509.708 108.712 509.29 108.822 508.823 108.918C508.37 109.014 507.89 109.082 507.382 109.123C506.875 109.178 506.333 109.206 505.757 109.206ZM502.814 102.476C503.472 102.476 504.103 102.469 504.707 102.455C505.324 102.428 505.887 102.401 506.395 102.373C506.916 102.346 507.355 102.318 507.712 102.291C508.069 102.263 508.329 102.243 508.494 102.229C508.48 101.461 508.384 100.843 508.206 100.377C508.027 99.9103 507.753 99.5742 507.382 99.3683C507.012 99.1488 506.539 99.0391 505.962 99.0391C505.606 99.0391 505.256 99.0939 504.913 99.2037C504.57 99.2997 504.247 99.4781 503.946 99.7388C503.657 99.9858 503.41 100.336 503.205 100.788C503.013 101.227 502.882 101.79 502.814 102.476ZM511.47 106.345C511.47 105.687 511.607 105.145 511.881 104.719C512.156 104.294 512.574 103.958 513.137 103.711C513.699 103.45 514.392 103.251 515.215 103.114C516.039 102.963 516.992 102.84 518.076 102.744V101.2C518.076 100.569 517.87 100.089 517.459 99.7594C517.047 99.4164 516.43 99.2449 515.606 99.2449C515.332 99.2449 515.023 99.2586 514.68 99.286C514.337 99.3135 513.981 99.3615 513.61 99.4301C513.24 99.4987 512.856 99.5947 512.458 99.7182L512.149 98.3187C512.739 98.1404 513.343 98.0032 513.96 97.9071C514.577 97.8111 515.161 97.7631 515.709 97.7631C516.615 97.7631 517.37 97.8934 517.973 98.1541C518.591 98.4011 519.05 98.7784 519.352 99.286C519.668 99.7937 519.825 100.425 519.825 101.179V106.53C519.825 106.983 519.887 107.292 520.011 107.456C520.148 107.607 520.326 107.683 520.546 107.683C520.628 107.683 520.717 107.676 520.813 107.662C520.909 107.649 521.012 107.621 521.122 107.58L521.307 108.856C521.101 108.966 520.882 109.048 520.649 109.103C520.429 109.172 520.196 109.206 519.949 109.206C519.455 109.206 519.064 109.082 518.776 108.835C518.488 108.575 518.303 108.184 518.22 107.662C517.891 107.923 517.52 108.177 517.109 108.424C516.711 108.657 516.272 108.849 515.792 109C515.325 109.137 514.811 109.206 514.248 109.206C513.823 109.206 513.439 109.144 513.096 109.021C512.766 108.897 512.478 108.719 512.231 108.485C511.984 108.239 511.792 107.937 511.655 107.58C511.532 107.223 511.47 106.812 511.47 106.345ZM513.219 106.201C513.219 106.791 513.363 107.237 513.651 107.539C513.953 107.827 514.351 107.971 514.845 107.971C515.229 107.971 515.613 107.909 515.997 107.786C516.382 107.662 516.752 107.498 517.109 107.292C517.479 107.072 517.802 106.825 518.076 106.551V103.773C517.349 103.841 516.684 103.923 516.08 104.02C515.49 104.102 514.975 104.232 514.536 104.411C514.111 104.589 513.782 104.822 513.548 105.11C513.329 105.398 513.219 105.762 513.219 106.201ZM521.978 108.568L522.225 107.251C522.458 107.347 522.719 107.436 523.007 107.518C523.309 107.587 523.617 107.649 523.933 107.703C524.248 107.758 524.571 107.799 524.9 107.827C525.229 107.854 525.545 107.868 525.847 107.868C526.711 107.868 527.356 107.724 527.781 107.436C528.22 107.134 528.44 106.709 528.44 106.16C528.44 105.872 528.378 105.625 528.255 105.419C528.131 105.199 527.946 105.014 527.699 104.863C527.452 104.699 527.137 104.555 526.752 104.431C526.382 104.294 525.95 104.157 525.456 104.02C524.976 103.896 524.543 103.752 524.159 103.587C523.775 103.409 523.439 103.196 523.151 102.949C522.876 102.689 522.664 102.394 522.513 102.064C522.362 101.721 522.286 101.33 522.286 100.891C522.286 99.9034 522.636 99.1351 523.336 98.5863C524.036 98.0375 525.065 97.7631 526.423 97.7631C526.821 97.7631 527.205 97.7837 527.576 97.8248C527.96 97.866 528.316 97.9277 528.646 98.01C528.989 98.0786 529.291 98.1678 529.551 98.2776L529.304 99.5947C529.03 99.5124 528.742 99.4369 528.44 99.3683C528.152 99.2997 527.836 99.2449 527.493 99.2037C527.164 99.1625 526.807 99.142 526.423 99.142C525.614 99.142 525.003 99.286 524.591 99.5742C524.18 99.8623 523.974 100.253 523.974 100.747C523.974 101.049 524.036 101.303 524.159 101.509C524.296 101.701 524.489 101.872 524.735 102.023C524.996 102.16 525.291 102.284 525.62 102.394C525.963 102.503 526.334 102.613 526.732 102.723C527.253 102.86 527.727 103.018 528.152 103.196C528.577 103.361 528.934 103.567 529.222 103.814C529.524 104.061 529.757 104.363 529.922 104.719C530.086 105.076 530.169 105.508 530.169 106.016C530.169 106.455 530.093 106.853 529.942 107.21C529.805 107.553 529.606 107.854 529.346 108.115C529.099 108.362 528.797 108.568 528.44 108.732C528.083 108.883 527.685 109 527.246 109.082C526.807 109.165 526.334 109.206 525.826 109.206C525.36 109.206 524.893 109.178 524.427 109.123C523.974 109.082 523.535 109.014 523.11 108.918C522.698 108.822 522.321 108.705 521.978 108.568ZM534.91 109.206C534.293 109.206 533.758 109.096 533.305 108.877C532.852 108.657 532.502 108.328 532.255 107.889C532.008 107.436 531.885 106.873 531.885 106.201V97.9689H533.614V105.851C533.614 106.455 533.778 106.921 534.107 107.251C534.437 107.58 534.924 107.745 535.569 107.745C535.912 107.745 536.241 107.71 536.557 107.642C536.886 107.559 537.208 107.45 537.524 107.312C537.853 107.175 538.182 107.017 538.512 106.839V97.9689H540.24V106.592C540.24 106.866 540.275 107.093 540.343 107.271C540.412 107.436 540.501 107.553 540.611 107.621C540.734 107.69 540.865 107.724 541.002 107.724C541.194 107.724 541.379 107.683 541.558 107.601L541.743 108.856C541.619 108.925 541.482 108.986 541.331 109.041C541.18 109.096 541.023 109.137 540.858 109.165C540.693 109.192 540.522 109.206 540.343 109.206C539.973 109.206 539.644 109.11 539.355 108.918C539.067 108.712 538.862 108.417 538.738 108.033C538.326 108.266 537.915 108.472 537.503 108.65C537.092 108.828 536.673 108.966 536.248 109.062C535.836 109.158 535.39 109.206 534.91 109.206ZM544.704 97.9689V99.3272C545.116 98.9567 545.5 98.6618 545.857 98.4422C546.214 98.209 546.577 98.0375 546.948 97.9277C547.318 97.818 547.702 97.7631 548.1 97.7631C548.388 97.7631 548.669 97.7837 548.944 97.8248C549.218 97.866 549.472 97.9209 549.705 97.9895L549.417 99.5536C549.17 99.485 548.91 99.4369 548.635 99.4095C548.374 99.3683 548.128 99.3478 547.894 99.3478C547.414 99.3478 546.92 99.4507 546.412 99.6565C545.919 99.8486 545.397 100.198 544.848 100.706V109H543.14V97.9689H544.704ZM554.635 109.206C553.881 109.206 553.208 109.103 552.618 108.897C552.028 108.691 551.528 108.369 551.116 107.93C550.718 107.491 550.409 106.928 550.19 106.242C549.984 105.556 549.881 104.733 549.881 103.773C549.881 102.661 550.005 101.721 550.252 100.953C550.512 100.171 550.876 99.5467 551.342 99.0802C551.809 98.6137 552.344 98.2776 552.948 98.0718C553.565 97.866 554.237 97.7631 554.964 97.7631C556.364 97.7631 557.407 98.1404 558.093 98.895C558.779 99.6359 559.122 100.843 559.122 102.517C559.122 102.599 559.115 102.716 559.101 102.867C559.101 103.018 559.094 103.162 559.081 103.299C558.792 103.313 558.401 103.34 557.907 103.382C557.427 103.423 556.865 103.464 556.22 103.505C555.575 103.546 554.868 103.58 554.1 103.608C553.332 103.635 552.522 103.656 551.672 103.67C551.658 103.738 551.651 103.807 551.651 103.875C551.651 103.944 551.651 104.02 551.651 104.102C551.651 104.994 551.775 105.714 552.021 106.263C552.282 106.798 552.653 107.189 553.133 107.436C553.627 107.683 554.224 107.806 554.923 107.806C555.362 107.806 555.808 107.786 556.261 107.745C556.714 107.69 557.146 107.621 557.558 107.539C557.983 107.456 558.374 107.374 558.731 107.292L558.957 108.588C558.587 108.712 558.168 108.822 557.702 108.918C557.249 109.014 556.769 109.082 556.261 109.123C555.753 109.178 555.211 109.206 554.635 109.206ZM551.692 102.476C552.351 102.476 552.982 102.469 553.586 102.455C554.203 102.428 554.766 102.401 555.273 102.373C555.795 102.346 556.234 102.318 556.59 102.291C556.947 102.263 557.208 102.243 557.372 102.229C557.359 101.461 557.263 100.843 557.084 100.377C556.906 99.9103 556.632 99.5742 556.261 99.3683C555.891 99.1488 555.417 99.0391 554.841 99.0391C554.484 99.0391 554.134 99.0939 553.791 99.2037C553.448 99.2997 553.126 99.4781 552.824 99.7388C552.536 99.9858 552.289 100.336 552.083 100.788C551.891 101.227 551.761 101.79 551.692 102.476ZM560.345 108.568L560.592 107.251C560.825 107.347 561.086 107.436 561.374 107.518C561.676 107.587 561.985 107.649 562.3 107.703C562.616 107.758 562.938 107.799 563.267 107.827C563.597 107.854 563.912 107.868 564.214 107.868C565.078 107.868 565.723 107.724 566.149 107.436C566.588 107.134 566.807 106.709 566.807 106.16C566.807 105.872 566.746 105.625 566.622 105.419C566.499 105.199 566.313 105.014 566.066 104.863C565.819 104.699 565.504 104.555 565.12 104.431C564.749 104.294 564.317 104.157 563.823 104.02C563.343 103.896 562.911 103.752 562.527 103.587C562.142 103.409 561.806 103.196 561.518 102.949C561.244 102.689 561.031 102.394 560.88 102.064C560.729 101.721 560.654 101.33 560.654 100.891C560.654 99.9034 561.004 99.1351 561.703 98.5863C562.403 98.0375 563.432 97.7631 564.79 97.7631C565.188 97.7631 565.572 97.7837 565.943 97.8248C566.327 97.866 566.684 97.9277 567.013 98.01C567.356 98.0786 567.658 98.1678 567.919 98.2776L567.672 99.5947C567.397 99.5124 567.109 99.4369 566.807 99.3683C566.519 99.2997 566.204 99.2449 565.861 99.2037C565.531 99.1625 565.175 99.142 564.79 99.142C563.981 99.142 563.37 99.286 562.959 99.5742C562.547 99.8623 562.341 100.253 562.341 100.747C562.341 101.049 562.403 101.303 562.527 101.509C562.664 101.701 562.856 101.872 563.103 102.023C563.363 102.16 563.658 102.284 563.988 102.394C564.331 102.503 564.701 102.613 565.099 102.723C565.62 102.86 566.094 103.018 566.519 103.196C566.944 103.361 567.301 103.567 567.589 103.814C567.891 104.061 568.124 104.363 568.289 104.719C568.454 105.076 568.536 105.508 568.536 106.016C568.536 106.455 568.461 106.853 568.31 107.21C568.172 107.553 567.973 107.854 567.713 108.115C567.466 108.362 567.164 108.568 566.807 108.732C566.451 108.883 566.053 109 565.614 109.082C565.175 109.165 564.701 109.206 564.194 109.206C563.727 109.206 563.261 109.178 562.794 109.123C562.341 109.082 561.902 109.014 561.477 108.918C561.065 108.822 560.688 108.705 560.345 108.568Z" fill="black"/>
</svg>
