<svg xmlns="http://www.w3.org/2000/svg" viewBox="0 0 435.82 98.27"><defs><style>.cls-1{font-size:64.52px;font-family:Georama-Medium, Georama;font-weight:500;}.cls-2{fill:#ffd400;}</style></defs><g id="Layer_2" data-name="Layer 2"><g id="Layer_1-2" data-name="Layer 1"><text class="cls-1" transform="translate(92.26 76.98)">afrotransact</text><path d="M78,22.33H62.05a22.34,22.34,0,0,0-44.67,0H1.47A1.47,1.47,0,0,0,0,23.94L4.86,78.4A13.64,13.64,0,0,0,18.51,92H61A13.59,13.59,0,0,0,74.57,78.45l4.86-54.51A1.47,1.47,0,0,0,78,22.33Zm-53.12,0a14.88,14.88,0,0,1,29.75,0Z"/><path class="cls-2" d="M25.23,38.27c.15,0,.3,0,.45,0a4,4,0,0,0,2.54-.49,10.6,10.6,0,0,1,3.72-1.23,4.76,4.76,0,0,1,1.46,0,1.84,1.84,0,0,1,1.66,1.57c0,.13.06.25.09.38A1.9,1.9,0,0,0,37,40.24a13.21,13.21,0,0,0,3.44-.06,33.27,33.27,0,0,1,4.12-.27,2.75,2.75,0,0,1,2.68,1.77,57.35,57.35,0,0,1,1.93,5.67c.3.94.59,1.88,1,2.78.09.19.18.39.28.57.6,1.15,1,1.32,2.25,1.08S55,51.16,56.2,51a2.09,2.09,0,0,1,.34,0c1.29-.09,1.79.57,1.39,1.81a5.8,5.8,0,0,1-1.31,2.06,49.46,49.46,0,0,1-4.16,3.9c-.72.65-1.42,1.32-2.08,2A2.72,2.72,0,0,0,49.85,64a11.28,11.28,0,0,1,.71,1.77,1.29,1.29,0,0,1-.47,1.49,4.94,4.94,0,0,0-1.92,3.57l-.12.93a1.45,1.45,0,0,1-.61,1.07,4.27,4.27,0,0,0-1.67,2.36,13.13,13.13,0,0,1-.56,1.52,6.12,6.12,0,0,1-5.77,3.88,11.62,11.62,0,0,0-1.18,0,2.56,2.56,0,0,1-2.32-1.12,19.52,19.52,0,0,1-2.75-5.13,6.17,6.17,0,0,1,.05-5,12.17,12.17,0,0,0,1-3.13A2.12,2.12,0,0,0,33,63.66a4.5,4.5,0,0,1-2.72-4.5,16.16,16.16,0,0,0-.2-2.69,6.49,6.49,0,0,0-.23-.75,1.31,1.31,0,0,0-1.34-.93,31.34,31.34,0,0,0-3.88.25,11,11,0,0,1-2.69.08,1.27,1.27,0,0,1-.67-.29c-.71-.59-1.4-1.18-2.12-1.76a4.92,4.92,0,0,1-1.86-4.89,15.81,15.81,0,0,1,4.81-9.29,2.45,2.45,0,0,1,1.78-.7h1.37Z"/><path class="cls-2" d="M58.1,68.18a17.11,17.11,0,0,1-.77,5.06A3.9,3.9,0,0,1,52,75.6a.88.88,0,0,1-.55-1.33,7.44,7.44,0,0,1,1.07-1.93A2.81,2.81,0,0,0,53,69.67,7.08,7.08,0,0,1,52.78,68a1.06,1.06,0,0,1,.4-.9,14.22,14.22,0,0,0,2.49-2.35c.17-.25.34-.48.5-.73s.41-.56.82-.5.53.4.62.73A14.66,14.66,0,0,1,58.1,68.18Z"/></g></g></svg>