<svg xmlns="http://www.w3.org/2000/svg" viewBox="0 0 79.44 92.04"><defs><style>.cls-1{fill:#ffd400;}</style></defs><g id="Layer_2" data-name="Layer 2"><g id="Layer_1-2" data-name="Layer 1"><path d="M39.71,0A22.36,22.36,0,0,0,17.38,22.33h7.46a14.88,14.88,0,0,1,29.75,0h7.46A22.36,22.36,0,0,0,39.71,0Z"/><path d="M78,22.33a1.47,1.47,0,0,1,1.47,1.61L74.57,78.45A13.59,13.59,0,0,1,61,92H18.5A13.64,13.64,0,0,1,4.86,78.4L0,23.94a1.47,1.47,0,0,1,1.47-1.61Z"/><path class="cls-1" d="M25.23,38.27a3.23,3.23,0,0,1,.44,0,4,4,0,0,0,2.55-.49,10.35,10.35,0,0,1,3.71-1.23,4.53,4.53,0,0,1,1.47,0,1.87,1.87,0,0,1,1.66,1.58c0,.13.06.25.09.38A1.88,1.88,0,0,0,37,40.23a13.13,13.13,0,0,0,3.43,0,33.4,33.4,0,0,1,4.12-.27,2.73,2.73,0,0,1,2.68,1.77,54.86,54.86,0,0,1,1.93,5.67c.3.94.6,1.87,1,2.78.09.19.17.38.27.57.61,1.15,1,1.31,2.25,1.08S55,51.16,56.2,51l.34,0c1.28-.08,1.79.58,1.39,1.82a6,6,0,0,1-1.31,2.06,51.05,51.05,0,0,1-4.16,3.9c-.72.65-1.42,1.31-2.08,2A2.72,2.72,0,0,0,49.84,64a11.32,11.32,0,0,1,.72,1.77,1.29,1.29,0,0,1-.48,1.49,5,5,0,0,0-1.92,3.57c0,.31-.07.62-.11.93a1.48,1.48,0,0,1-.61,1.07,4.25,4.25,0,0,0-1.68,2.36,14.57,14.57,0,0,1-.55,1.52,6.13,6.13,0,0,1-5.77,3.88c-.39,0-.79,0-1.18,0a2.56,2.56,0,0,1-2.33-1.11,19.71,19.71,0,0,1-2.74-5.14,6.11,6.11,0,0,1,.05-5,12.15,12.15,0,0,0,1-3.13A2.11,2.11,0,0,0,33,63.66a4.53,4.53,0,0,1-2.72-4.5,14.28,14.28,0,0,0-.2-2.69,5.92,5.92,0,0,0-.22-.75,1.33,1.33,0,0,0-1.35-.94,31.31,31.31,0,0,0-3.87.26,11.61,11.61,0,0,1-2.7.08,1.39,1.39,0,0,1-.67-.29c-.7-.59-1.4-1.19-2.11-1.76a4.9,4.9,0,0,1-1.86-4.89,15.72,15.72,0,0,1,4.81-9.29,2.43,2.43,0,0,1,1.78-.7h1.37Z"/><path class="cls-1" d="M58.09,68.18a17.15,17.15,0,0,1-.76,5.06A3.9,3.9,0,0,1,52,75.59a.87.87,0,0,1-.55-1.33,7.19,7.19,0,0,1,1.06-1.92A2.81,2.81,0,0,0,53,69.67,7.1,7.1,0,0,1,52.77,68a1.09,1.09,0,0,1,.4-.9,14,14,0,0,0,2.5-2.36l.5-.72c.19-.31.41-.56.82-.5s.52.4.62.73A14.65,14.65,0,0,1,58.09,68.18Z"/></g></g></svg>