<svg width="128" height="128" viewBox="-11.78 -10.81 141.17 141.17" fill="none" xmlns="http://www.w3.org/2000/svg">
<path d="M101.284 28.1H80.5741C80.4136 20.5932 77.2878 13.4474 71.8668 8.19459C66.4458 2.94175 59.1611 0 51.5745 0C43.9878 0 36.7031 2.94175 31.2821 8.19459C25.8611 13.4474 22.7353 20.5932 22.5748 28.1H1.91732C1.65062 28.0988 1.38662 28.153 1.14235 28.2589C0.898084 28.3649 0.67897 28.5204 0.499138 28.7153C0.319306 28.9102 0.182749 29.1403 0.0982718 29.3907C0.0137951 29.641 -0.0167256 29.9062 0.00867776 30.1689L6.31888 100.151C6.33264 104.793 8.20637 109.24 11.529 112.516C14.8516 115.793 19.3517 117.631 24.042 117.627H79.2108C83.8771 117.621 88.3508 115.785 91.6528 112.522C94.9548 109.258 96.8163 104.834 96.8301 100.215L103.14 30.1689C103.165 29.9104 103.136 29.6496 103.055 29.4027C102.974 29.1559 102.842 28.9283 102.667 28.7341C102.493 28.54 102.28 28.3834 102.042 28.2744C101.804 28.1653 101.546 28.1059 101.284 28.1ZM32.3128 28.1C32.4433 23.1163 34.5355 18.3801 38.1432 14.9009C41.751 11.4217 46.5891 9.47457 51.6264 9.47457C56.6637 9.47457 61.5018 11.4217 65.1096 14.9009C68.7174 18.3801 70.8095 23.1163 70.9401 28.1H32.3128Z" fill="#FFD400"/>
<path d="M32.5022 48.3456C32.6979 48.3456 32.8936 48.3456 33.0893 48.3456C34.234 48.5054 35.3994 48.2806 36.4026 47.7064C37.9063 46.8746 39.552 46.3304 41.2552 46.1018C41.8862 46.0038 42.5286 46.0038 43.1597 46.1018C43.6986 46.1492 44.2057 46.3772 44.5988 46.749C44.9918 47.1208 45.2478 47.6144 45.3251 48.1499C45.3251 48.3195 45.4033 48.476 45.4425 48.6456C45.4938 49.2551 45.7686 49.824 46.2141 50.243C46.6596 50.6621 47.2443 50.9016 47.8557 50.9155C49.3485 51.0852 50.8571 51.0588 52.343 50.8372C54.1255 50.6087 55.9204 50.491 57.7174 50.485C58.4686 50.455 59.2102 50.6618 59.8375 51.0761C60.4648 51.4904 60.946 52.0914 61.2133 52.794C62.1808 55.2141 63.0211 57.683 63.7309 60.1907C64.1223 61.417 64.5006 62.6433 65.0354 63.8174C65.1528 64.0652 65.2702 64.3261 65.4007 64.5609C66.1833 66.0612 66.7051 66.2829 68.3357 65.9698C69.9663 65.6567 71.3359 65.161 72.9013 64.9523C73.0489 64.9403 73.1972 64.9403 73.3448 64.9523C75.0275 64.8349 75.6798 65.6959 75.158 67.3135C74.7855 68.3204 74.203 69.2365 73.4492 70.0008C71.7396 71.7997 69.9278 73.4984 68.0226 75.0885C67.0834 75.9365 66.1703 76.8105 65.3093 77.6976C64.7524 78.2297 64.3837 78.9286 64.2589 79.6888C64.1342 80.4489 64.2602 81.229 64.618 81.9112C64.9913 82.6534 65.3012 83.4258 65.5441 84.2203C65.6686 84.5667 65.676 84.9444 65.5653 85.2955C65.4546 85.6466 65.2318 85.9517 64.931 86.164C64.208 86.719 63.6109 87.4211 63.1791 88.2239C62.7474 89.0267 62.4909 89.9119 62.4265 90.8212L62.27 92.0344C62.2479 92.3112 62.1652 92.5798 62.0277 92.821C61.8901 93.0623 61.7012 93.2703 61.4742 93.4303C60.4122 94.172 59.6419 95.2606 59.2958 96.509C59.0933 97.1844 58.8494 97.8466 58.5653 98.4919C57.9725 99.9997 56.9349 101.291 55.5905 102.195C54.2461 103.1 52.6585 103.573 51.0386 103.553C50.5258 103.527 50.0121 103.527 49.4993 103.553C48.9108 103.599 48.3206 103.488 47.789 103.231C47.2574 102.975 46.8033 102.582 46.473 102.092C44.9495 100.053 43.7403 97.7976 42.8857 95.4001C42.4408 94.3685 42.2168 93.2553 42.228 92.1319C42.2392 91.0085 42.4855 89.8999 42.951 88.8774C43.5683 87.5816 44.0072 86.208 44.2554 84.7943C44.4441 84.1379 44.3832 83.4349 44.0846 82.8208C43.7859 82.2066 43.2706 81.7246 42.6379 81.4677C41.5057 80.9848 40.554 80.1581 39.9173 79.1047C39.2805 78.0512 38.9911 76.8243 39.0898 75.5973C39.1007 74.4223 39.0135 73.2485 38.8289 72.0881C38.7487 71.7562 38.6485 71.4295 38.5288 71.1097C38.4176 70.7396 38.1842 70.4182 37.8667 70.1978C37.5492 69.9775 37.1665 69.8713 36.7809 69.8965C35.0886 69.9003 33.3983 70.0093 31.7196 70.2226C30.5586 70.4009 29.3801 70.436 28.2106 70.327C27.8885 70.2891 27.5846 70.1576 27.3366 69.9487C26.4104 69.179 25.5104 68.4093 24.5711 67.6527C23.6077 66.9252 22.869 65.9407 22.4399 64.8124C22.0107 63.684 21.9084 62.4574 22.1449 61.2735C22.8006 56.6388 25.0132 52.365 28.4193 49.1544C28.7253 48.8542 29.0886 48.6187 29.4875 48.4618C29.8864 48.305 30.3127 48.2299 30.7412 48.2412H32.5283L32.5022 48.3456Z" fill="black"/>
<path d="M75.3324 87.5847C75.3306 89.7011 75.0204 91.8052 74.4121 93.8264C74.2114 94.4733 73.8802 95.069 73.4403 95.5742C73.0005 96.0795 72.4619 96.4829 71.8601 96.7579C71.2583 97.0329 70.6069 97.1733 69.9488 97.1698C69.2907 97.1663 68.6407 97.019 68.0417 96.7375C67.8772 96.6993 67.724 96.6209 67.595 96.5087C67.466 96.3966 67.365 96.2541 67.3005 96.0933C67.2361 95.9324 67.2101 95.758 67.2246 95.5846C67.2392 95.4111 67.294 95.2439 67.3844 95.0969C67.6936 94.2422 68.1246 93.4398 68.6632 92.7162C69.0204 92.2618 69.2604 91.7215 69.3607 91.1456C69.461 90.5697 69.4184 89.977 69.2369 89.4227C69.0702 88.7493 68.9819 88.0577 68.974 87.3627C68.9607 87.1515 68.9972 86.9402 69.0805 86.7468C69.1638 86.5534 69.2913 86.3838 69.4521 86.2525C70.5536 85.4135 71.5528 84.4401 72.4281 83.3537C72.6313 83.0453 72.8344 82.7616 73.0257 82.4532C73.2169 82.1448 73.5157 81.7624 74.0057 81.8365C74.4958 81.9105 74.6392 82.3299 74.7468 82.7369C75.1535 84.3181 75.3505 85.9489 75.3324 87.5847Z" fill="black"/>
</svg>
