<svg width="476" height="101" viewBox="0 0 476 101" fill="none" xmlns="http://www.w3.org/2000/svg">
<path d="M84.0395 23.3159H66.856C66.7228 17.0871 64.1292 11.1579 59.6311 6.79942C55.1331 2.4409 49.0886 0 42.7937 0C36.4987 0 30.4543 2.4409 25.9562 6.79942C21.4581 11.1579 18.8645 17.0871 18.7313 23.3159H1.59089C1.36959 23.3149 1.15054 23.3598 0.947861 23.4477C0.745181 23.5357 0.563372 23.6646 0.414157 23.8264C0.264942 23.9881 0.151635 24.179 0.0815406 24.3868C0.0114464 24.5945 -0.013878 24.8145 0.00720033 25.0325L5.24306 83.0999C5.25447 86.9516 6.80919 90.6414 9.56611 93.36C12.323 96.0785 16.057 97.6036 19.9487 97.6008H65.7248C69.5967 97.5952 73.3086 96.0719 76.0484 93.3643C78.7883 90.6567 80.3329 86.9852 80.3443 83.1532L85.5801 25.0325C85.6009 24.818 85.5768 24.6016 85.5093 24.3968C85.4418 24.1919 85.3323 24.0031 85.1878 23.842C85.0432 23.6809 84.8666 23.551 84.669 23.4605C84.4715 23.37 84.2572 23.3207 84.0395 23.3159ZM26.8114 23.3159C26.9197 19.1806 28.6556 15.2508 31.6492 12.3639C34.6427 9.47708 38.6571 7.86148 42.8368 7.86148C47.0164 7.86148 51.0308 9.47708 54.0244 12.3639C57.0179 15.2508 58.7538 19.1806 58.8622 23.3159H26.8114Z" fill="black"/>
<path d="M26.9686 40.1141C27.131 40.1141 27.2933 40.1141 27.4557 40.1141C28.4055 40.2467 29.3725 40.0602 30.2049 39.5837C31.4526 38.8936 32.8181 38.4421 34.2313 38.2524C34.7549 38.1711 35.2879 38.1711 35.8115 38.2524C36.2587 38.2917 36.6795 38.4809 37.0056 38.7894C37.3318 39.0978 37.5441 39.5075 37.6083 39.9518C37.6083 40.0925 37.6732 40.2224 37.7057 40.3631C37.7483 40.8688 37.9763 41.3409 38.346 41.6886C38.7156 42.0362 39.2007 42.235 39.7081 42.2465C40.9467 42.3873 42.1984 42.3655 43.4314 42.1816C44.9104 41.9919 46.3997 41.8943 47.8908 41.8893C48.514 41.8644 49.1294 42.036 49.6499 42.3798C50.1704 42.7236 50.5697 43.2222 50.7915 43.8052C51.5942 45.8132 52.2915 47.8618 52.8805 49.9426C53.2052 50.9601 53.5191 51.9776 53.9628 52.9518C54.0602 53.1574 54.1577 53.3739 54.2659 53.5688C54.9153 54.8136 55.3483 54.9976 56.7012 54.7378C58.0542 54.478 59.1907 54.0667 60.4895 53.8935C60.612 53.8835 60.735 53.8835 60.8575 53.8935C62.2538 53.7961 62.795 54.5105 62.362 55.8527C62.0529 56.6881 61.5696 57.4482 60.9441 58.0825C59.5256 59.5751 58.0223 60.9846 56.4415 62.304C55.6622 63.0076 54.9045 63.7328 54.1901 64.4688C53.728 64.9104 53.4221 65.4903 53.3186 66.121C53.2151 66.7517 53.3197 67.399 53.6165 67.9651C53.9263 68.5809 54.1833 69.2218 54.385 69.881C54.4882 70.1685 54.4944 70.4819 54.4025 70.7732C54.3106 71.0645 54.1258 71.3176 53.8762 71.4938C53.2763 71.9543 52.7808 72.5368 52.4226 73.203C52.0644 73.8691 51.8515 74.6036 51.7981 75.3581L51.6682 76.3648C51.6499 76.5944 51.5813 76.8173 51.4672 77.0174C51.3531 77.2176 51.1963 77.3902 51.008 77.523C50.1268 78.1384 49.4876 79.0417 49.2004 80.0775C49.0324 80.6379 48.83 81.1874 48.5943 81.7228C48.1024 82.9739 47.2415 84.0457 46.126 84.7958C45.0105 85.546 43.6932 85.939 42.349 85.9226C41.9236 85.901 41.4973 85.901 41.0718 85.9226C40.5835 85.9605 40.0938 85.8683 39.6527 85.6554C39.2116 85.4424 38.8348 85.1163 38.5608 84.7103C37.2967 83.0185 36.2933 81.1467 35.5842 79.1574C35.2151 78.3015 35.0292 77.3777 35.0385 76.4456C35.0478 75.5135 35.2522 74.5937 35.6384 73.7453C36.1506 72.6701 36.5148 71.5303 36.7207 70.3573C36.8773 69.8126 36.8268 69.2294 36.579 68.7197C36.3312 68.2101 35.9036 67.8102 35.3786 67.5971C34.4392 67.1963 33.6495 66.5104 33.1212 65.6364C32.5929 64.7623 32.3527 63.7442 32.4346 62.7261C32.4437 61.7512 32.3713 60.7772 32.2181 59.8144C32.1515 59.539 32.0684 59.2679 31.9691 59.0026C31.8768 58.6955 31.6831 58.4288 31.4197 58.2459C31.1563 58.0631 30.8387 57.975 30.5188 57.9959C29.1147 57.9991 27.7121 58.0895 26.3192 58.2665C25.3559 58.4144 24.378 58.4435 23.4076 58.3531C23.1404 58.3217 22.8882 58.2126 22.6824 58.0392C21.914 57.4006 21.1671 56.7619 20.3878 56.1341C19.5884 55.5305 18.9755 54.7136 18.6194 53.7774C18.2633 52.8411 18.1784 51.8234 18.3746 50.841C18.9187 46.9954 20.7546 43.4492 23.5808 40.7852C23.8347 40.5362 24.1361 40.3408 24.4671 40.2106C24.7981 40.0804 25.1519 40.0182 25.5074 40.0275H26.9903L26.9686 40.1141Z" fill="#FFD400"/>
<path d="M62.5068 72.6733C62.5053 74.4294 62.2478 76.1753 61.7432 77.8523C61.5766 78.3891 61.3018 78.8833 60.9368 79.3026C60.5718 79.7218 60.125 80.0566 59.6257 80.2847C59.1263 80.5129 58.5858 80.6294 58.0398 80.6265C57.4937 80.6236 56.9544 80.5013 56.4574 80.2678C56.3208 80.2361 56.1937 80.171 56.0867 80.078C55.9796 79.9849 55.8958 79.8667 55.8424 79.7333C55.7889 79.5998 55.7673 79.455 55.7794 79.3111C55.7915 79.1673 55.837 79.0285 55.9119 78.9065C56.1685 78.1973 56.5262 77.5315 56.973 76.9311C57.2694 76.5541 57.4685 76.1058 57.5517 75.628C57.635 75.1501 57.5997 74.6583 57.4491 74.1983C57.3107 73.6396 57.2375 73.0658 57.2309 72.4891C57.2199 72.3139 57.2502 72.1385 57.3193 71.9781C57.3884 71.8176 57.4942 71.6769 57.6276 71.5679C58.5415 70.8717 59.3707 70.0641 60.0969 69.1626C60.2655 68.9068 60.4341 68.6714 60.5928 68.4155C60.7514 68.1596 60.9994 67.8423 61.406 67.9037C61.8126 67.9651 61.9316 68.3131 62.0208 68.6509C62.3584 69.9628 62.5218 71.316 62.5068 72.6733Z" fill="#FFD400"/>
<path d="M112.523 84.7235C110.107 84.7235 107.932 84.2933 105.996 83.4329C104.077 82.556 102.554 81.2655 101.429 79.5613C100.321 77.8571 99.7665 75.7558 99.7665 73.2575C99.7665 71.1066 100.164 69.3279 100.958 67.9216C101.752 66.5152 102.836 65.3901 104.209 64.5463C105.582 63.7025 107.129 63.0655 108.85 62.6353C110.587 62.1886 112.382 61.8659 114.236 61.6674C116.469 61.4357 118.281 61.2289 119.671 61.0469C121.061 60.8484 122.07 60.5506 122.699 60.1535C123.344 59.7398 123.666 59.1028 123.666 58.2425V58.0936C123.666 56.2239 123.112 54.7762 122.004 53.7504C120.895 52.7246 119.298 52.2116 117.214 52.2116C115.013 52.2116 113.268 52.6915 111.977 53.6511C110.703 54.6107 109.843 55.7441 109.396 57.0512L101.007 55.8599C101.669 53.5436 102.761 51.6077 104.283 50.0525C105.806 48.4806 107.667 47.3059 109.868 46.5283C112.068 45.7341 114.5 45.337 117.164 45.337C119.001 45.337 120.829 45.5521 122.649 45.9823C124.469 46.4125 126.132 47.1239 127.637 48.1166C129.143 49.0928 130.351 50.4247 131.261 52.1124C132.187 53.8 132.651 55.9096 132.651 58.441V83.9541H124.014V78.7175H123.716C123.17 79.7764 122.401 80.7691 121.408 81.6956C120.432 82.6056 119.199 83.3419 117.71 83.9045C116.238 84.4505 114.509 84.7235 112.523 84.7235ZM114.856 78.1218C116.659 78.1218 118.223 77.7661 119.547 77.0546C120.87 76.3266 121.888 75.367 122.599 74.1757C123.327 72.9845 123.691 71.6856 123.691 70.2793V65.7872C123.41 66.0188 122.93 66.2339 122.252 66.4325C121.59 66.631 120.845 66.8047 120.018 66.9536C119.191 67.1026 118.372 67.2349 117.561 67.3507C116.75 67.4666 116.047 67.5658 115.452 67.6486C114.111 67.8306 112.912 68.1284 111.853 68.542C110.794 68.9556 109.959 69.5347 109.346 70.2793C108.734 71.0073 108.428 71.9504 108.428 73.1086C108.428 74.7631 109.032 76.0123 110.24 76.8561C111.448 77.6999 112.986 78.1218 114.856 78.1218ZM157.499 45.8334V52.7825H134.964V45.8334H157.499ZM140.597 83.9541V42.2347C140.597 39.6702 141.127 37.5358 142.186 35.8316C143.261 34.1275 144.701 32.8535 146.504 32.0096C148.308 31.1658 150.31 30.7439 152.51 30.7439C154.065 30.7439 155.447 30.868 156.655 31.1162C157.863 31.3644 158.756 31.5877 159.335 31.7863L157.548 38.7354C157.168 38.6196 156.688 38.5037 156.109 38.3879C155.53 38.2556 154.884 38.1894 154.173 38.1894C152.502 38.1894 151.319 38.5947 150.624 39.4055C149.946 40.1996 149.606 41.3413 149.606 42.8304V83.9541H140.597ZM161.04 83.9541V45.8334H169.751V52.1868H170.148C170.843 49.9863 172.035 48.2904 173.722 47.0991C175.426 45.8913 177.371 45.2874 179.555 45.2874C180.051 45.2874 180.605 45.3122 181.217 45.3618C181.846 45.3949 182.367 45.4528 182.781 45.5356V53.8C182.4 53.6676 181.796 53.5518 180.969 53.4526C180.158 53.3367 179.373 53.2788 178.611 53.2788C176.973 53.2788 175.501 53.6346 174.194 54.346C172.903 55.0409 171.886 56.0088 171.141 57.2497C170.397 58.4906 170.024 59.9218 170.024 61.5433V83.9541H161.04ZM200.314 84.6986C196.591 84.6986 193.365 83.8796 190.635 82.2416C187.905 80.6036 185.787 78.3121 184.281 75.367C182.792 72.4219 182.047 68.9805 182.047 65.0426C182.047 61.1048 182.792 57.6551 184.281 54.6935C185.787 51.7318 187.905 49.432 190.635 47.794C193.365 46.156 196.591 45.337 200.314 45.337C204.036 45.337 207.263 46.156 209.993 47.794C212.723 49.432 214.832 51.7318 216.321 54.6935C217.827 57.6551 218.58 61.1048 218.58 65.0426C218.58 68.9805 217.827 72.4219 216.321 75.367C214.832 78.3121 212.723 80.6036 209.993 82.2416C207.263 83.8796 204.036 84.6986 200.314 84.6986ZM200.363 77.5014C202.382 77.5014 204.069 76.9471 205.426 75.8386C206.783 74.7135 207.792 73.2078 208.454 71.3216C209.132 69.4355 209.472 67.3342 209.472 65.0178C209.472 62.6849 209.132 60.5754 208.454 58.6892C207.792 56.7865 206.783 55.2726 205.426 54.1475C204.069 53.0224 202.382 52.4598 200.363 52.4598C198.295 52.4598 196.574 53.0224 195.201 54.1475C193.844 55.2726 192.827 56.7865 192.148 58.6892C191.487 60.5754 191.156 62.6849 191.156 65.0178C191.156 67.3342 191.487 69.4355 192.148 71.3216C192.827 73.2078 193.844 74.7135 195.201 75.8386C196.574 76.9471 198.295 77.5014 200.363 77.5014ZM241.746 45.8334V52.7825H219.832V45.8334H241.746ZM225.242 36.7003H234.226V72.4881C234.226 73.6959 234.408 74.6225 234.772 75.2677C235.153 75.8965 235.649 76.3266 236.262 76.5583C236.874 76.7899 237.552 76.9057 238.297 76.9057C238.859 76.9057 239.372 76.8644 239.835 76.7816C240.315 76.6989 240.679 76.6245 240.927 76.5583L242.441 83.5818C241.961 83.7473 241.275 83.9293 240.381 84.1278C239.504 84.3264 238.429 84.4422 237.155 84.4753C234.905 84.5415 232.878 84.2023 231.075 83.4577C229.271 82.6966 227.84 81.5219 226.781 79.9336C225.739 78.3452 225.226 76.3597 225.242 73.9772V36.7003ZM245.766 83.9541V45.8334H254.477V52.1868H254.874C255.569 49.9863 256.76 48.2904 258.448 47.0991C260.152 45.8913 262.096 45.2874 264.28 45.2874C264.776 45.2874 265.331 45.3122 265.943 45.3618C266.572 45.3949 267.093 45.4528 267.506 45.5356V53.8C267.126 53.6676 266.522 53.5518 265.695 53.4526C264.884 53.3367 264.098 53.2788 263.337 53.2788C261.699 53.2788 260.226 53.6346 258.919 54.346C257.629 55.0409 256.611 56.0088 255.867 57.2497C255.122 58.4906 254.75 59.9218 254.75 61.5433V83.9541H245.766ZM280.268 84.7235C277.852 84.7235 275.677 84.2933 273.741 83.4329C271.821 82.556 270.299 81.2655 269.174 79.5613C268.066 77.8571 267.511 75.7558 267.511 73.2575C267.511 71.1066 267.908 69.3279 268.703 67.9216C269.497 66.5152 270.581 65.3901 271.954 64.5463C273.327 63.7025 274.874 63.0655 276.595 62.6353C278.332 62.1886 280.127 61.8659 281.98 61.6674C284.214 61.4357 286.026 61.2289 287.416 61.0469C288.805 60.8484 289.815 60.5506 290.443 60.1535C291.089 59.7398 291.411 59.1028 291.411 58.2425V58.0936C291.411 56.2239 290.857 54.7762 289.748 53.7504C288.64 52.7246 287.043 52.2116 284.959 52.2116C282.758 52.2116 281.012 52.6915 279.722 53.6511C278.448 54.6107 277.588 55.7441 277.141 57.0512L268.752 55.8599C269.414 53.5436 270.506 51.6077 272.028 50.0525C273.55 48.4806 275.412 47.3059 277.612 46.5283C279.813 45.7341 282.245 45.337 284.909 45.337C286.745 45.337 288.574 45.5521 290.394 45.9823C292.214 46.4125 293.877 47.1239 295.382 48.1166C296.888 49.0928 298.096 50.4247 299.006 52.1124C299.932 53.8 300.395 55.9096 300.395 58.441V83.9541H291.759V78.7175H291.461C290.915 79.7764 290.146 80.7691 289.153 81.6956C288.177 82.6056 286.944 83.3419 285.455 83.9045C283.982 84.4505 282.253 84.7235 280.268 84.7235ZM282.601 78.1218C284.404 78.1218 285.968 77.7661 287.291 77.0546C288.615 76.3266 289.633 75.367 290.344 74.1757C291.072 72.9845 291.436 71.6856 291.436 70.2793V65.7872C291.155 66.0188 290.675 66.2339 289.997 66.4325C289.335 66.631 288.59 66.8047 287.763 66.9536C286.936 67.1026 286.117 67.2349 285.306 67.3507C284.495 67.4666 283.792 67.5658 283.196 67.6486C281.856 67.8306 280.657 68.1284 279.598 68.542C278.539 68.9556 277.703 69.5347 277.091 70.2793C276.479 71.0073 276.173 71.9504 276.173 73.1086C276.173 74.7631 276.777 76.0123 277.985 76.8561C279.192 77.6999 280.731 78.1218 282.601 78.1218ZM314.919 61.6177V83.9541H305.935V45.8334H314.522V52.3109H314.969C315.846 50.1766 317.244 48.4806 319.163 47.2232C321.099 45.9657 323.49 45.337 326.335 45.337C328.966 45.337 331.258 45.8996 333.21 47.0246C335.179 48.1497 336.701 49.7795 337.777 51.9138C338.869 54.0482 339.406 56.6376 339.39 59.6819V83.9541H330.406V61.0717C330.406 58.5237 329.744 56.53 328.42 55.0906C327.113 53.6511 325.301 52.9314 322.985 52.9314C321.413 52.9314 320.015 53.2788 318.791 53.9737C317.583 54.6521 316.632 55.6366 315.937 56.9271C315.258 58.2176 314.919 59.7812 314.919 61.6177ZM375.158 55.9096L366.968 56.803C366.736 55.9757 366.331 55.1981 365.752 54.4701C365.189 53.7421 364.428 53.1547 363.468 52.708C362.509 52.2613 361.334 52.0379 359.944 52.0379C358.075 52.0379 356.503 52.4433 355.229 53.254C353.971 54.0647 353.351 55.1154 353.367 56.4059C353.351 57.5145 353.756 58.4162 354.583 59.1111C355.427 59.806 356.817 60.3768 358.753 60.8236L365.255 62.2134C368.862 62.991 371.543 64.2236 373.296 65.9113C375.067 67.5989 375.96 69.8077 375.977 72.5377C375.96 74.9368 375.257 77.0546 373.867 78.8912C372.494 80.7112 370.583 82.1341 368.134 83.1599C365.685 84.1857 362.873 84.6986 359.696 84.6986C355.03 84.6986 351.274 83.7225 348.429 81.7701C345.583 79.8012 343.887 77.0629 343.341 73.5553L352.102 72.7115C352.499 74.4322 353.343 75.731 354.633 76.6079C355.924 77.4848 357.603 77.9233 359.671 77.9233C361.806 77.9233 363.518 77.4848 364.809 76.6079C366.116 75.731 366.769 74.6473 366.769 73.3567C366.769 72.2647 366.347 71.363 365.503 70.6516C364.676 69.9401 363.386 69.3941 361.632 69.0136L355.129 67.6486C351.473 66.8875 348.768 65.6052 347.014 63.8017C345.26 61.9817 344.391 59.6819 344.408 56.9023C344.391 54.5528 345.028 52.5177 346.319 50.797C347.626 49.0597 349.438 47.7196 351.754 46.7765C354.087 45.8168 356.776 45.337 359.82 45.337C364.287 45.337 367.803 46.2884 370.368 48.1911C372.949 50.0938 374.546 52.6666 375.158 55.9096ZM390.86 84.7235C388.445 84.7235 386.269 84.2933 384.333 83.4329C382.414 82.556 380.892 81.2655 379.767 79.5613C378.658 77.8571 378.104 75.7558 378.104 73.2575C378.104 71.1066 378.501 69.3279 379.295 67.9216C380.089 66.5152 381.173 65.3901 382.546 64.5463C383.919 63.7025 385.466 63.0655 387.187 62.6353C388.924 62.1886 390.72 61.8659 392.573 61.6674C394.806 61.4357 396.618 61.2289 398.008 61.0469C399.398 60.8484 400.407 60.5506 401.036 60.1535C401.681 59.7398 402.004 59.1028 402.004 58.2425V58.0936C402.004 56.2239 401.449 54.7762 400.341 53.7504C399.232 52.7246 397.636 52.2116 395.551 52.2116C393.35 52.2116 391.605 52.6915 390.314 53.6511C389.04 54.6107 388.18 55.7441 387.733 57.0512L379.345 55.8599C380.006 53.5436 381.098 51.6077 382.621 50.0525C384.143 48.4806 386.004 47.3059 388.205 46.5283C390.405 45.7341 392.837 45.337 395.501 45.337C397.338 45.337 399.166 45.5521 400.986 45.9823C402.806 46.4125 404.469 47.1239 405.975 48.1166C407.48 49.0928 408.688 50.4247 409.598 52.1124C410.525 53.8 410.988 55.9096 410.988 58.441V83.9541H402.351V78.7175H402.053C401.507 79.7764 400.738 80.7691 399.745 81.6956C398.769 82.6056 397.536 83.3419 396.047 83.9045C394.575 84.4505 392.846 84.7235 390.86 84.7235ZM393.193 78.1218C394.997 78.1218 396.56 77.7661 397.884 77.0546C399.207 76.3266 400.225 75.367 400.936 74.1757C401.664 72.9845 402.028 71.6856 402.028 70.2793V65.7872C401.747 66.0188 401.267 66.2339 400.589 66.4325C399.927 66.631 399.183 66.8047 398.355 66.9536C397.528 67.1026 396.709 67.2349 395.898 67.3507C395.088 67.4666 394.384 67.5658 393.789 67.6486C392.449 67.8306 391.249 68.1284 390.19 68.542C389.131 68.9556 388.296 69.5347 387.684 70.2793C387.071 71.0073 386.765 71.9504 386.765 73.1086C386.765 74.7631 387.369 76.0123 388.577 76.8561C389.785 77.6999 391.324 78.1218 393.193 78.1218ZM433.155 84.6986C429.35 84.6986 426.082 83.8631 423.352 82.192C420.639 80.5209 418.546 78.2128 417.073 75.2677C415.617 72.3061 414.889 68.8977 414.889 65.0426C414.889 61.171 415.634 57.7544 417.123 54.7927C418.612 51.8146 420.713 49.4982 423.427 47.8436C426.157 46.1726 429.383 45.337 433.106 45.337C436.2 45.337 438.938 45.9078 441.321 47.0495C443.72 48.1746 445.631 49.7712 447.054 51.8394C448.476 53.891 449.287 56.2901 449.486 59.0366H440.899C440.551 57.2001 439.724 55.6696 438.417 54.4453C437.126 53.2044 435.397 52.5839 433.23 52.5839C431.393 52.5839 429.78 53.0803 428.39 54.073C427 55.0492 425.917 56.4556 425.139 58.2921C424.378 60.1286 423.997 62.3292 423.997 64.8937C423.997 67.4914 424.378 69.725 425.139 71.5946C425.9 73.4477 426.967 74.8789 428.341 75.8882C429.73 76.8809 431.36 77.3773 433.23 77.3773C434.553 77.3773 435.736 77.1291 436.779 76.6327C437.838 76.1198 438.723 75.3836 439.434 74.4239C440.146 73.4643 440.634 72.2978 440.899 70.9246H449.486C449.271 73.6215 448.476 76.0123 447.103 78.097C445.73 80.1652 443.86 81.7866 441.494 82.9614C439.128 84.1196 436.349 84.6986 433.155 84.6986ZM472.404 45.8334V52.7825H450.49V45.8334H472.404ZM455.9 36.7003H464.884V72.4881C464.884 73.6959 465.066 74.6225 465.43 75.2677C465.811 75.8965 466.307 76.3266 466.919 76.5583C467.531 76.7899 468.21 76.9057 468.954 76.9057C469.517 76.9057 470.03 76.8644 470.493 76.7816C470.973 76.6989 471.337 76.6245 471.585 76.5583L473.099 83.5818C472.619 83.7473 471.933 83.9293 471.039 84.1278C470.162 84.3264 469.087 84.4422 467.813 84.4753C465.563 84.5415 463.536 84.2023 461.732 83.4577C459.929 82.6966 458.498 81.5219 457.439 79.9336C456.396 78.3452 455.883 76.3597 455.9 73.9772V36.7003Z" fill="black"/>
</svg>
