<svg width="530" height="120" viewBox="0 0 530 120" fill="none" xmlns="http://www.w3.org/2000/svg">
<path d="M102.524 28.4443H81.5612C81.3988 20.8455 78.2346 13.6122 72.7472 8.29498C67.2598 2.97779 59.8859 0 52.2063 0C44.5267 0 37.1528 2.97779 31.6654 8.29498C26.1779 13.6122 23.0138 20.8455 22.8514 28.4443H1.94081C1.67084 28.4431 1.40361 28.4979 1.15635 28.6051C0.909086 28.7124 0.687287 28.8698 0.505252 29.0671C0.323217 29.2644 0.184987 29.4973 0.0994757 29.7507C0.0139641 30.0042 -0.0169305 30.2725 0.00878407 30.5385L6.39629 101.378C6.41021 106.077 8.3069 110.578 11.6702 113.895C15.0335 117.211 19.5888 119.072 24.3365 119.068H80.1812C84.9047 119.062 89.4331 117.203 92.7756 113.9C96.118 110.597 98.0024 106.118 98.0163 101.443L104.404 30.5385C104.429 30.2768 104.4 30.0128 104.317 29.7629C104.235 29.513 104.101 29.2826 103.925 29.0861C103.749 28.8896 103.533 28.7312 103.292 28.6207C103.051 28.5103 102.79 28.4502 102.524 28.4443ZM32.7086 28.4443C32.8408 23.3995 34.9585 18.6053 38.6105 15.0834C42.2625 11.5616 47.1599 9.59064 52.2589 9.59064C57.3579 9.59064 62.2552 11.5616 65.9072 15.0834C69.5592 18.6053 71.6769 23.3995 71.8091 28.4443H32.7086Z" fill="#FFD400"/>
<path d="M32.9004 48.9374C33.0984 48.9374 33.2965 48.9374 33.4946 48.9374C34.6533 49.0992 35.833 48.8716 36.8485 48.2904C38.3707 47.4484 40.0365 46.8976 41.7605 46.6662C42.3993 46.567 43.0496 46.567 43.6883 46.6662C44.2339 46.7141 44.7472 46.945 45.1451 47.3213C45.5429 47.6976 45.802 48.1973 45.8803 48.7394C45.8803 48.911 45.9595 49.0695 45.9991 49.2412C46.0511 49.8581 46.3293 50.434 46.7802 50.8582C47.2312 51.2823 47.823 51.5248 48.4419 51.5389C49.953 51.7106 51.48 51.684 52.9842 51.4596C54.7885 51.2283 56.6054 51.1092 58.4244 51.1031C59.1848 51.0727 59.9355 51.282 60.5704 51.7014C61.2054 52.1208 61.6926 52.7291 61.9632 53.4404C62.9425 55.8901 63.7931 58.3893 64.5116 60.9277C64.9078 62.169 65.2907 63.4103 65.8321 64.5988C65.9509 64.8497 66.0698 65.1138 66.2018 65.3514C66.9941 66.87 67.5222 67.0945 69.1728 66.7776C70.8233 66.4607 72.2098 65.9589 73.7943 65.7476C73.9437 65.7354 74.0939 65.7354 74.2433 65.7476C75.9466 65.6288 76.6068 66.5003 76.0787 68.1377C75.7016 69.1569 75.1119 70.0842 74.3489 70.858C72.6184 72.6789 70.7844 74.3984 68.8559 76.008C67.9052 76.8663 66.9809 77.7511 66.1094 78.649C65.5456 79.1877 65.1724 79.8951 65.0461 80.6646C64.9199 81.4341 65.0474 82.2237 65.4095 82.9143C65.7874 83.6655 66.1011 84.4474 66.347 85.2516C66.473 85.6023 66.4806 85.9847 66.3685 86.34C66.2564 86.6954 66.0308 87.0043 65.7264 87.2192C64.9945 87.781 64.3901 88.4916 63.953 89.3043C63.516 90.1169 63.2564 91.013 63.1912 91.9334L63.0327 93.1615C63.0104 93.4417 62.9267 93.7136 62.7875 93.9577C62.6483 94.2019 62.457 94.4125 62.2273 94.5745C61.1522 95.3252 60.3725 96.4272 60.0222 97.6909C59.8172 98.3745 59.5703 99.0448 59.2827 99.698C58.6826 101.224 57.6324 102.532 56.2715 103.447C54.9106 104.362 53.3036 104.842 51.6638 104.822C51.1447 104.795 50.6247 104.795 50.1057 104.822C49.5099 104.868 48.9125 104.755 48.3744 104.496C47.8362 104.236 47.3766 103.838 47.0422 103.343C45.5001 101.279 44.2761 98.9953 43.411 96.5684C42.9607 95.5242 42.7339 94.3973 42.7453 93.2602C42.7566 92.123 43.0059 91.0008 43.4771 89.9658C44.102 88.6541 44.5462 87.2637 44.7975 85.8326C44.9885 85.1682 44.9269 84.4567 44.6246 83.8349C44.3223 83.2132 43.8007 82.7254 43.1602 82.4653C42.0141 81.9765 41.0507 81.1397 40.4062 80.0734C39.7617 79.007 39.4687 77.765 39.5686 76.523C39.5797 75.3337 39.4914 74.1455 39.3045 72.9708C39.2233 72.6349 39.1219 72.3041 39.0008 71.9804C38.8882 71.6058 38.6519 71.2804 38.3305 71.0574C38.0092 70.8344 37.6217 70.7268 37.2314 70.7524C35.5184 70.7563 33.8074 70.8665 32.1081 71.0825C30.9329 71.263 29.74 71.2984 28.5561 71.1881C28.2301 71.1498 27.9225 71.0167 27.6714 70.8052C26.7339 70.0261 25.8228 69.247 24.8721 68.4811C23.8969 67.7447 23.1491 66.7482 22.7147 65.6059C22.2803 64.4637 22.1768 63.2221 22.4161 62.0237C23.0798 57.3323 25.3196 53.0061 28.7674 49.7562C29.0772 49.4523 29.4449 49.2139 29.8487 49.0551C30.2524 48.8963 30.684 48.8204 31.1178 48.8318H32.9268L32.9004 48.9374Z" fill="black"/>
<path d="M76.2553 88.6582C76.2534 90.8005 75.9394 92.9304 75.3237 94.9763C75.1205 95.6311 74.7852 96.2341 74.34 96.7456C73.8948 97.257 73.3496 97.6654 72.7405 97.9438C72.1313 98.2222 71.4719 98.3642 70.8057 98.3607C70.1395 98.3571 69.4816 98.208 68.8753 97.9231C68.7087 97.8845 68.5536 97.805 68.423 97.6915C68.2925 97.578 68.1902 97.4338 68.125 97.271C68.0598 97.1082 68.0334 96.9315 68.0482 96.756C68.063 96.5805 68.1184 96.4112 68.2099 96.2624C68.5229 95.3972 68.9592 94.5849 69.5044 93.8525C69.866 93.3926 70.1088 92.8457 70.2104 92.2627C70.3119 91.6798 70.2688 91.0798 70.0851 90.5187C69.9163 89.837 69.8269 89.137 69.8189 88.4334C69.8055 88.2197 69.8425 88.0057 69.9268 87.81C70.0111 87.6143 70.1401 87.4426 70.3029 87.3096C71.4179 86.4603 72.4294 85.4751 73.3154 84.3753C73.521 84.0632 73.7267 83.776 73.9203 83.4638C74.1138 83.1517 74.4163 82.7646 74.9123 82.8395C75.4084 82.9144 75.5536 83.339 75.6624 83.751C76.0742 85.3515 76.2736 87.0023 76.2553 88.6582Z" fill="#FFD400"/>
<path d="M138.89 94.688H129.062L146.956 43.8604H158.323L176.242 94.688H166.414L152.838 54.284H152.441L138.89 94.688ZM139.213 74.759H166.016V82.1548H139.213V74.759ZM197.876 56.5673V63.5164H175.341V56.5673H197.876ZM180.974 94.688V52.9686C180.974 50.4041 181.504 48.2697 182.563 46.5655C183.638 44.8614 185.078 43.5874 186.881 42.7435C188.685 41.8997 190.687 41.4778 192.887 41.4778C194.442 41.4778 195.824 41.6019 197.032 41.8501C198.24 42.0983 199.133 42.3216 199.712 42.5202L197.925 49.4693C197.545 49.3534 197.065 49.2376 196.486 49.1218C195.907 48.9894 195.261 48.9233 194.55 48.9233C192.879 48.9233 191.696 49.3286 191.001 50.1394C190.323 50.9335 189.983 52.0752 189.983 53.5643V94.688H180.974ZM201.417 94.688V56.5673H210.128V62.9207H210.525C211.22 60.7202 212.412 59.0243 214.099 57.833C215.803 56.6252 217.747 56.0213 219.931 56.0213C220.428 56.0213 220.982 56.0461 221.594 56.0957C222.223 56.1288 222.744 56.1867 223.158 56.2694V64.5339C222.777 64.4015 222.173 64.2857 221.346 64.1864C220.535 64.0706 219.749 64.0127 218.988 64.0127C217.35 64.0127 215.878 64.3684 214.571 65.0799C213.28 65.7748 212.263 66.7427 211.518 67.9836C210.774 69.2245 210.401 70.6557 210.401 72.2772V94.688H201.417ZM240.691 95.4325C236.968 95.4325 233.742 94.6135 231.012 92.9755C228.282 91.3375 226.164 89.046 224.658 86.1009C223.169 83.1558 222.424 79.7144 222.424 75.7765C222.424 71.8387 223.169 68.389 224.658 65.4274C226.164 62.4657 228.282 60.1659 231.012 58.5279C233.742 56.8899 236.968 56.0709 240.691 56.0709C244.413 56.0709 247.64 56.8899 250.37 58.5279C253.1 60.1659 255.209 62.4657 256.698 65.4274C258.204 68.389 258.957 71.8387 258.957 75.7765C258.957 79.7144 258.204 83.1558 256.698 86.1009C255.209 89.046 253.1 91.3375 250.37 92.9755C247.64 94.6135 244.413 95.4325 240.691 95.4325ZM240.74 88.2353C242.759 88.2353 244.446 87.681 245.803 86.5724C247.16 85.4474 248.169 83.9417 248.831 82.0555C249.509 80.1694 249.849 78.0681 249.849 75.7517C249.849 73.4188 249.509 71.3093 248.831 69.4231C248.169 67.5204 247.16 66.0064 245.803 64.8814C244.446 63.7563 242.759 63.1937 240.74 63.1937C238.672 63.1937 236.951 63.7563 235.578 64.8814C234.221 66.0064 233.204 67.5204 232.525 69.4231C231.864 71.3093 231.533 73.4188 231.533 75.7517C231.533 78.0681 231.864 80.1694 232.525 82.0555C233.204 83.9417 234.221 85.4474 235.578 86.5724C236.951 87.681 238.672 88.2353 240.74 88.2353ZM258.453 51.5788V43.8604H299.006V51.5788H283.296V94.688H274.163V51.5788H258.453ZM298.974 94.688V56.5673H307.685V62.9207H308.082C308.777 60.7202 309.968 59.0243 311.656 57.833C313.36 56.6252 315.304 56.0213 317.488 56.0213C317.984 56.0213 318.539 56.0461 319.151 56.0957C319.78 56.1288 320.301 56.1867 320.714 56.2694V64.5339C320.334 64.4015 319.73 64.2857 318.903 64.1864C318.092 64.0706 317.306 64.0127 316.545 64.0127C314.907 64.0127 313.434 64.3684 312.127 65.0799C310.837 65.7748 309.819 66.7427 309.075 67.9836C308.33 69.2245 307.958 70.6557 307.958 72.2772V94.688H298.974ZM333.476 95.4574C331.06 95.4574 328.885 95.0272 326.949 94.1668C325.029 93.2899 323.507 91.9994 322.382 90.2952C321.274 88.591 320.719 86.4897 320.719 83.9914C320.719 81.8404 321.116 80.0618 321.911 78.6554C322.705 77.2491 323.789 76.124 325.162 75.2802C326.535 74.4364 328.082 73.7994 329.803 73.3692C331.54 72.9224 333.335 72.5998 335.188 72.4013C337.422 72.1696 339.234 71.9628 340.624 71.7808C342.013 71.5823 343.023 71.2844 343.651 70.8874C344.297 70.4737 344.619 69.8367 344.619 68.9764V68.8274C344.619 66.9578 344.065 65.5101 342.956 64.4843C341.848 63.4584 340.251 62.9455 338.167 62.9455C335.966 62.9455 334.22 63.4254 332.93 64.385C331.656 65.3446 330.796 66.478 330.349 67.7851L321.96 66.5938C322.622 64.2774 323.714 62.3416 325.236 60.7864C326.758 59.2145 328.62 58.0398 330.82 57.2622C333.021 56.468 335.453 56.0709 338.117 56.0709C339.953 56.0709 341.782 56.286 343.602 56.7162C345.422 57.1464 347.085 57.8578 348.59 58.8505C350.096 59.8267 351.304 61.1586 352.214 62.8463C353.14 64.5339 353.603 66.6434 353.603 69.1749V94.688H344.967V89.4514H344.669C344.123 90.5103 343.354 91.503 342.361 92.4295C341.385 93.3395 340.152 94.0758 338.663 94.6384C337.19 95.1844 335.461 95.4574 333.476 95.4574ZM335.809 88.8557C337.612 88.8557 339.176 88.5 340.499 87.7885C341.823 87.0605 342.841 86.1009 343.552 84.9096C344.28 83.7184 344.644 82.4195 344.644 81.0132V76.5211C344.363 76.7527 343.883 76.9678 343.205 77.1664C342.543 77.3649 341.798 77.5386 340.971 77.6875C340.144 77.8364 339.325 77.9688 338.514 78.0846C337.703 78.2004 337 78.2997 336.404 78.3824C335.064 78.5644 333.865 78.8623 332.806 79.2759C331.747 79.6895 330.911 80.2686 330.299 81.0132C329.687 81.7412 329.381 82.6843 329.381 83.8424C329.381 85.497 329.985 86.7462 331.193 87.59C332.4 88.4338 333.939 88.8557 335.809 88.8557ZM368.127 72.3516V94.688H359.143V56.5673H367.73V63.0448H368.177C369.054 60.9104 370.452 59.2145 372.371 57.9571C374.307 56.6996 376.698 56.0709 379.543 56.0709C382.174 56.0709 384.466 56.6334 386.418 57.7585C388.387 58.8836 389.909 60.5134 390.985 62.6477C392.077 64.7821 392.614 67.3714 392.598 70.4158V94.688H383.614V71.8056C383.614 69.2576 382.952 67.2639 381.628 65.8244C380.321 64.385 378.509 63.6653 376.193 63.6653C374.621 63.6653 373.223 64.0127 371.999 64.7076C370.791 65.386 369.84 66.3704 369.145 67.661C368.466 68.9515 368.127 70.5151 368.127 72.3516ZM428.366 66.6434L420.176 67.5369C419.944 66.7096 419.539 65.932 418.96 65.204C418.397 64.476 417.636 63.8886 416.676 63.4419C415.717 62.9952 414.542 62.7718 413.152 62.7718C411.283 62.7718 409.711 63.1772 408.437 63.9879C407.179 64.7986 406.559 65.8493 406.575 67.1398C406.559 68.2484 406.964 69.1501 407.791 69.845C408.635 70.5399 410.025 71.1107 411.961 71.5574L418.463 72.9473C422.07 73.7249 424.751 74.9575 426.504 76.6452C428.275 78.3328 429.168 80.5416 429.185 83.2716C429.168 85.6707 428.465 87.7885 427.075 89.6251C425.702 91.4451 423.791 92.868 421.342 93.8938C418.893 94.9196 416.081 95.4325 412.904 95.4325C408.238 95.4325 404.482 94.4564 401.637 92.504C398.791 90.5351 397.095 87.7968 396.549 84.2892L405.31 83.4454C405.707 85.1661 406.551 86.4649 407.841 87.3418C409.132 88.2187 410.811 88.6572 412.879 88.6572C415.014 88.6572 416.726 88.2187 418.017 87.3418C419.324 86.4649 419.977 85.3812 419.977 84.0906C419.977 82.9986 419.555 82.0969 418.711 81.3854C417.884 80.674 416.594 80.128 414.84 79.7474L408.337 78.3824C404.681 77.6214 401.976 76.3391 400.222 74.5356C398.468 72.7156 397.599 70.4158 397.616 67.6362C397.599 65.2867 398.236 63.2516 399.527 61.5309C400.834 59.7936 402.646 58.4534 404.962 57.5104C407.295 56.5507 409.984 56.0709 413.028 56.0709C417.495 56.0709 421.011 57.0223 423.576 58.925C426.157 60.8277 427.754 63.4005 428.366 66.6434ZM444.068 95.4574C441.653 95.4574 439.477 95.0272 437.541 94.1668C435.622 93.2899 434.1 91.9994 432.974 90.2952C431.866 88.591 431.312 86.4897 431.312 83.9914C431.312 81.8404 431.709 80.0618 432.503 78.6554C433.297 77.2491 434.381 76.124 435.754 75.2802C437.127 74.4364 438.674 73.7994 440.395 73.3692C442.132 72.9224 443.928 72.5998 445.781 72.4013C448.014 72.1696 449.826 71.9628 451.216 71.7808C452.606 71.5823 453.615 71.2844 454.244 70.8874C454.889 70.4737 455.212 69.8367 455.212 68.9764V68.8274C455.212 66.9578 454.657 65.5101 453.549 64.4843C452.44 63.4584 450.844 62.9455 448.759 62.9455C446.558 62.9455 444.813 63.4254 443.522 64.385C442.248 65.3446 441.388 66.478 440.941 67.7851L432.553 66.5938C433.214 64.2774 434.306 62.3416 435.829 60.7864C437.351 59.2145 439.212 58.0398 441.413 57.2622C443.613 56.468 446.045 56.0709 448.709 56.0709C450.546 56.0709 452.374 56.286 454.194 56.7162C456.014 57.1464 457.677 57.8578 459.182 58.8505C460.688 59.8267 461.896 61.1586 462.806 62.8463C463.732 64.5339 464.196 66.6434 464.196 69.1749V94.688H455.559V89.4514H455.261C454.715 90.5103 453.946 91.503 452.953 92.4295C451.977 93.3395 450.744 94.0758 449.255 94.6384C447.783 95.1844 446.054 95.4574 444.068 95.4574ZM446.401 88.8557C448.205 88.8557 449.768 88.5 451.092 87.7885C452.415 87.0605 453.433 86.1009 454.144 84.9096C454.872 83.7184 455.236 82.4195 455.236 81.0132V76.5211C454.955 76.7527 454.475 76.9678 453.797 77.1664C453.135 77.3649 452.391 77.5386 451.563 77.6875C450.736 77.8364 449.917 77.9688 449.106 78.0846C448.296 78.2004 447.592 78.2997 446.997 78.3824C445.657 78.5644 444.457 78.8623 443.398 79.2759C442.339 79.6895 441.504 80.2686 440.891 81.0132C440.279 81.7412 439.973 82.6843 439.973 83.8424C439.973 85.497 440.577 86.7462 441.785 87.59C442.993 88.4338 444.531 88.8557 446.401 88.8557ZM486.363 95.4325C482.558 95.4325 479.29 94.597 476.56 92.9259C473.847 91.2548 471.754 88.9467 470.281 86.0016C468.825 83.04 468.097 79.6316 468.097 75.7765C468.097 71.9049 468.842 68.4883 470.331 65.5266C471.82 62.5484 473.921 60.2321 476.635 58.5775C479.365 56.9064 482.591 56.0709 486.314 56.0709C489.408 56.0709 492.146 56.6417 494.529 57.7834C496.928 58.9084 498.839 60.5051 500.262 62.5733C501.684 64.6249 502.495 67.024 502.694 69.7705H494.107C493.759 67.934 492.932 66.4035 491.625 65.1792C490.334 63.9383 488.605 63.3178 486.438 63.3178C484.601 63.3178 482.988 63.8142 481.598 64.8069C480.208 65.7831 479.125 67.1894 478.347 69.026C477.586 70.8625 477.205 73.0631 477.205 75.6276C477.205 78.2253 477.586 80.4589 478.347 82.3285C479.108 84.1816 480.175 85.6128 481.549 86.6221C482.938 87.6148 484.568 88.1112 486.438 88.1112C487.761 88.1112 488.944 87.863 489.987 87.3666C491.046 86.8537 491.931 86.1174 492.642 85.1578C493.354 84.1982 493.842 83.0317 494.107 81.6584H502.694C502.479 84.3554 501.684 86.7462 500.311 88.8309C498.938 90.8991 497.068 92.5205 494.702 93.6953C492.336 94.8534 489.557 95.4325 486.363 95.4325ZM525.612 56.5673V63.5164H503.698V56.5673H525.612ZM509.108 47.4342H518.092V83.222C518.092 84.4298 518.274 85.3564 518.638 86.0016C519.019 86.6304 519.515 87.0605 520.127 87.2922C520.739 87.5238 521.418 87.6396 522.162 87.6396C522.725 87.6396 523.238 87.5983 523.701 87.5155C524.181 87.4328 524.545 87.3584 524.793 87.2922L526.307 94.3157C525.827 94.4812 525.141 94.6632 524.247 94.8617C523.37 95.0603 522.295 95.1761 521.021 95.2092C518.771 95.2754 516.744 94.9362 514.94 94.1916C513.137 93.4305 511.706 92.2558 510.647 90.6674C509.604 89.0791 509.091 87.0936 509.108 84.7111V47.4342Z" fill="#FFD400"/>
</svg>
